<svg width="200mm" height="200mm" xmlns="http://www.w3.org/2000/svg" xmlns:xlink="http://www.w3.org/1999/xlink" viewBox="0 0 566.93 566.93"><defs><style>.cls-1{fill:#463f75;}.cls-2{fill:#564380;}.cls-3{fill:#67468b;}.cls-4{fill:#7b4896;}.cls-5{fill:#934a9c;}.cls-6{fill:#ac4c9e;}.cls-7{fill:#b74d9b;}.cls-8{fill:#c24e97;}.cls-9{fill:#cd4e88;}.cls-10{fill:#d84e74;}.cls-11{fill:#e24e5d;}.cls-12{fill:#ec594c;}.cls-13{fill:url(#Nouvelle_nuance_de_dégradé_1);}.cls-14{fill:url(#Nouvelle_nuance_de_dégradé_1-2);}.cls-15{fill:url(#Nouvelle_nuance_de_dégradé_1-3);}.cls-16{fill:url(#Nouvelle_nuance_de_dégradé_1-4);}.cls-17{fill:#41a46b;}.cls-18{fill:#73c69c;}.cls-19{fill:#fff;}</style><linearGradient id="Nouvelle_nuance_de_dégradé_1" x1="283.46" y1="70.86" x2="283.46" y2="212.6" gradientUnits="userSpaceOnUse"><stop offset="0" stop-color="#330968"/><stop offset="1" stop-color="#f13210"/></linearGradient><linearGradient id="Nouvelle_nuance_de_dégradé_1-2" x1="283.46" y1="496.06" x2="283.46" y2="354.33" gradientTransform="translate(566.93 850.4) rotate(-180)" xlink:href="#Nouvelle_nuance_de_dégradé_1"/><linearGradient id="Nouvelle_nuance_de_dégradé_1-3" x1="496.06" y1="283.46" x2="354.33" y2="283.46" gradientTransform="translate(141.73 708.66) rotate(-90)" xlink:href="#Nouvelle_nuance_de_dégradé_1"/><linearGradient id="Nouvelle_nuance_de_dégradé_1-4" x1="70.86" y1="283.46" x2="212.6" y2="283.46" gradientTransform="translate(425.2 141.73) rotate(90)" xlink:href="#Nouvelle_nuance_de_dégradé_1"/></defs><title>Fichier 5</title><g id="Calque_2"><g id="Calque_1-2" ><g id="Dégradé"><rect id="_12" class="cls-1" width="566.93" height="566.93"/><rect id="_11" class="cls-2" x="70.87" y="70.87" width="425.2" height="425.2" rx="127.56" ry="127.56"/><rect id="_10" class="cls-3" x="85.04" y="85.04" width="396.85" height="396.85" rx="119.06" ry="119.06"/><rect id="_9" class="cls-4" x="99.21" y="99.21" width="368.5" height="368.5" rx="110.55" ry="110.55"/><rect id="_8" class="cls-5" x="113.39" y="113.39" width="340.16" height="340.16" rx="102.05" ry="102.05"/><rect id="_7" class="cls-6" x="127.56" y="127.56" width="311.81" height="311.81" rx="93.54" ry="93.54"/><rect id="_6" class="cls-7" x="141.73" y="141.73" width="283.46" height="283.46" rx="85.04" ry="85.04"/><rect id="_5" class="cls-8" x="155.91" y="155.91" width="255.12" height="255.12" rx="76.54" ry="76.54"/><rect id="_4" class="cls-9" x="170.08" y="170.08" width="226.77" height="226.77" rx="68.03" ry="68.03"/><rect id="_3" class="cls-10" x="184.25" y="184.25" width="198.43" height="198.43" rx="59.53" ry="59.53"/><rect id="_2" class="cls-11" x="198.43" y="198.43" width="170.08" height="170.08" rx="51.02" ry="51.02"/><rect id="_1" class="cls-12" x="212.6" y="212.6" width="141.73" height="141.73" rx="42.52" ry="42.52"/></g><g id="Pistes"><rect class="cls-13" x="255.12" y="70.86" width="56.69" height="141.73"/><rect class="cls-14" x="255.12" y="354.33" width="56.69" height="141.73" transform="translate(566.93 850.4) rotate(180)"/><rect class="cls-15" x="396.85" y="212.6" width="56.69" height="141.73" transform="translate(708.66 -141.73) rotate(90)"/><rect class="cls-16" x="113.38" y="212.6" width="56.69" height="141.73" transform="translate(-141.73 425.2) rotate(-90)"/></g><g id="CFC"><path class="cls-17" d="M262.29,272.44a7.41,7.41,0,0,0-5.9,2.35,9.8,9.8,0,0,0-2,6.65q0,4.35,2.27,6.7a8.13,8.13,0,0,0,6.13,2.35,9.67,9.67,0,0,0,3.48-.55,23.71,23.71,0,0,0,2.73-1.25,5,5,0,0,1,1.32,1.68,5.14,5.14,0,0,1,.48,2.27,4.09,4.09,0,0,1-2.27,3.47q-2.28,1.43-6.92,1.43a20.45,20.45,0,0,1-6.3-1,14,14,0,0,1-5.15-2.92,13.8,13.8,0,0,1-3.48-5,18.54,18.54,0,0,1-1.27-7.23,17.94,17.94,0,0,1,1.23-6.87,14.6,14.6,0,0,1,3.35-5,14.1,14.1,0,0,1,5-3.1,17.51,17.51,0,0,1,6.1-1,14,14,0,0,1,7.13,1.5,4.42,4.42,0,0,1,2.52,3.85A3.89,3.89,0,0,1,270,273a5.36,5.36,0,0,1-1.5,1.5,16.28,16.28,0,0,0-2.77-1.45A9,9,0,0,0,262.29,272.44Z"/><path class="cls-17" d="M296.69,266.34a6,6,0,0,1,.63,1.47,6.75,6.75,0,0,1,.28,1.93,3.84,3.84,0,0,1-.83,2.77,3,3,0,0,1-2.22.83H284V279H295a4.92,4.92,0,0,1,.68,1.45,6.49,6.49,0,0,1,.27,1.9,3.75,3.75,0,0,1-.83,2.72,3,3,0,0,1-2.22.83h-8.75v10.55a13.75,13.75,0,0,1-1.73.3,18.25,18.25,0,0,1-2.32.15,10.45,10.45,0,0,1-2-.17,3.59,3.59,0,0,1-1.47-.62,2.7,2.7,0,0,1-.9-1.25,6.1,6.1,0,0,1-.3-2.1V271a4.32,4.32,0,0,1,4.65-4.65Z"/><path class="cls-17" d="M317.14,272.44a7.41,7.41,0,0,0-5.9,2.35,9.8,9.8,0,0,0-2,6.65q0,4.35,2.28,6.7a8.12,8.12,0,0,0,6.13,2.35,9.67,9.67,0,0,0,3.47-.55,23.7,23.7,0,0,0,2.72-1.25,5,5,0,0,1,1.33,1.68,5.14,5.14,0,0,1,.48,2.27,4.1,4.1,0,0,1-2.28,3.47q-2.28,1.43-6.92,1.43a20.44,20.44,0,0,1-6.3-1,14,14,0,0,1-5.15-2.92,13.8,13.8,0,0,1-3.47-5,18.53,18.53,0,0,1-1.28-7.23,18,18,0,0,1,1.22-6.87,14.61,14.61,0,0,1,3.35-5,14.1,14.1,0,0,1,5-3.1,17.51,17.51,0,0,1,6.1-1,14,14,0,0,1,7.13,1.5,4.42,4.42,0,0,1,2.52,3.85,3.89,3.89,0,0,1-.65,2.25,5.36,5.36,0,0,1-1.5,1.5,16.3,16.3,0,0,0-2.78-1.45A9,9,0,0,0,317.14,272.44Z"/><path class="cls-18" d="M260.29,274.44a7.41,7.41,0,0,0-5.9,2.35,9.8,9.8,0,0,0-2,6.65q0,4.35,2.27,6.7a8.13,8.13,0,0,0,6.13,2.35,9.67,9.67,0,0,0,3.48-.55,23.71,23.71,0,0,0,2.73-1.25,5,5,0,0,1,1.32,1.68,5.14,5.14,0,0,1,.48,2.27,4.09,4.09,0,0,1-2.27,3.47q-2.28,1.43-6.92,1.43a20.45,20.45,0,0,1-6.3-1,14,14,0,0,1-5.15-2.92,13.8,13.8,0,0,1-3.48-5,18.54,18.54,0,0,1-1.27-7.23,17.94,17.94,0,0,1,1.23-6.87,14.6,14.6,0,0,1,3.35-5,14.1,14.1,0,0,1,5-3.1,17.51,17.51,0,0,1,6.1-1,14,14,0,0,1,7.13,1.5,4.42,4.42,0,0,1,2.52,3.85A3.89,3.89,0,0,1,268,275a5.36,5.36,0,0,1-1.5,1.5,16.28,16.28,0,0,0-2.77-1.45A9,9,0,0,0,260.29,274.44Z"/><path class="cls-18" d="M294.69,268.34a6,6,0,0,1,.63,1.47,6.75,6.75,0,0,1,.28,1.93,3.84,3.84,0,0,1-.83,2.77,3,3,0,0,1-2.22.83H282V281H293a4.92,4.92,0,0,1,.68,1.45,6.49,6.49,0,0,1,.27,1.9,3.75,3.75,0,0,1-.83,2.72,3,3,0,0,1-2.22.83h-8.75v10.55a13.75,13.75,0,0,1-1.73.3,18.25,18.25,0,0,1-2.32.15,10.45,10.45,0,0,1-2-.17,3.59,3.59,0,0,1-1.47-.62,2.7,2.7,0,0,1-.9-1.25,6.1,6.1,0,0,1-.3-2.1V273a4.32,4.32,0,0,1,4.65-4.65Z"/><path class="cls-18" d="M315.14,274.44a7.41,7.41,0,0,0-5.9,2.35,9.8,9.8,0,0,0-2,6.65q0,4.35,2.28,6.7a8.12,8.12,0,0,0,6.13,2.35,9.67,9.67,0,0,0,3.47-.55,23.7,23.7,0,0,0,2.72-1.25,5,5,0,0,1,1.33,1.68,5.14,5.14,0,0,1,.48,2.27,4.1,4.1,0,0,1-2.28,3.47q-2.28,1.43-6.92,1.43a20.44,20.44,0,0,1-6.3-1,14,14,0,0,1-5.15-2.92,13.8,13.8,0,0,1-3.47-5,18.53,18.53,0,0,1-1.28-7.23,18,18,0,0,1,1.22-6.87,14.61,14.61,0,0,1,3.35-5,14.1,14.1,0,0,1,5-3.1,17.51,17.51,0,0,1,6.1-1,14,14,0,0,1,7.13,1.5,4.42,4.42,0,0,1,2.52,3.85,3.89,3.89,0,0,1-.65,2.25,5.36,5.36,0,0,1-1.5,1.5,16.3,16.3,0,0,0-2.78-1.45A9,9,0,0,0,315.14,274.44Z"/><path class="cls-19" d="M258.29,276.44a7.41,7.41,0,0,0-5.9,2.35,9.8,9.8,0,0,0-2,6.65q0,4.35,2.27,6.7a8.13,8.13,0,0,0,6.13,2.35,9.67,9.67,0,0,0,3.48-.55,23.71,23.71,0,0,0,2.73-1.25,5,5,0,0,1,1.32,1.68,5.14,5.14,0,0,1,.48,2.27,4.09,4.09,0,0,1-2.27,3.47q-2.28,1.43-6.92,1.43a20.45,20.45,0,0,1-6.3-1,14,14,0,0,1-5.15-2.92,13.8,13.8,0,0,1-3.48-5,18.54,18.54,0,0,1-1.27-7.23,17.94,17.94,0,0,1,1.23-6.87,14.6,14.6,0,0,1,3.35-5,14.1,14.1,0,0,1,5-3.1,17.51,17.51,0,0,1,6.1-1,14,14,0,0,1,7.13,1.5,4.42,4.42,0,0,1,2.52,3.85A3.89,3.89,0,0,1,266,277a5.36,5.36,0,0,1-1.5,1.5,16.28,16.28,0,0,0-2.77-1.45A9,9,0,0,0,258.29,276.44Z"/><path class="cls-19" d="M292.69,270.34a6,6,0,0,1,.63,1.47,6.75,6.75,0,0,1,.28,1.93,3.84,3.84,0,0,1-.83,2.77,3,3,0,0,1-2.22.83H280V283H291a4.92,4.92,0,0,1,.68,1.45,6.49,6.49,0,0,1,.27,1.9,3.75,3.75,0,0,1-.83,2.72,3,3,0,0,1-2.22.83h-8.75v10.55a13.75,13.75,0,0,1-1.73.3,18.25,18.25,0,0,1-2.32.15,10.45,10.45,0,0,1-2-.17,3.59,3.59,0,0,1-1.47-.62,2.7,2.7,0,0,1-.9-1.25,6.1,6.1,0,0,1-.3-2.1V275a4.32,4.32,0,0,1,4.65-4.65Z"/><path class="cls-19" d="M313.14,276.44a7.41,7.41,0,0,0-5.9,2.35,9.8,9.8,0,0,0-2,6.65q0,4.35,2.28,6.7a8.12,8.12,0,0,0,6.13,2.35,9.67,9.67,0,0,0,3.47-.55,23.7,23.7,0,0,0,2.72-1.25,5,5,0,0,1,1.33,1.68,5.14,5.14,0,0,1,.48,2.27,4.1,4.1,0,0,1-2.28,3.47q-2.28,1.43-6.92,1.43a20.44,20.44,0,0,1-6.3-1,14,14,0,0,1-5.15-2.92,13.8,13.8,0,0,1-3.47-5,18.53,18.53,0,0,1-1.28-7.23,18,18,0,0,1,1.22-6.87,14.61,14.61,0,0,1,3.35-5,14.1,14.1,0,0,1,5-3.1,17.51,17.51,0,0,1,6.1-1,14,14,0,0,1,7.13,1.5,4.42,4.42,0,0,1,2.52,3.85,3.89,3.89,0,0,1-.65,2.25,5.36,5.36,0,0,1-1.5,1.5,16.3,16.3,0,0,0-2.78-1.45A9,9,0,0,0,313.14,276.44Z"/></g></g></g></svg>