<svg width="20mm" height="25mm" xmlns="http://www.w3.org/2000/svg" viewBox="0 0 56.69 70.87"><defs><style>.cls-1{fill:#3c3e6a;}.cls-2{fill:#fff;}.cls-3{fill:#de5224;}.cls-4{fill:#ea9377;}</style></defs><title>Fichier 14</title><g id="Calque_2"><g id="Calque_1-2"><g id="Cotés"><g id="Barre_latérale_bas"><rect class="cls-1" x="2.5" y="2.5" width="51.69" height="65.87"/><path class="cls-2" d="M51.69,5V65.87H5V5H51.69m5-5H0V70.87H56.69V0Z"/></g></g><g id="Petites_cases"><g id="MATHS"><path class="cls-3" d="M18.46,15.52a.92.92,0,0,1-.32.17,1.49,1.49,0,0,1-.46.06,1.61,1.61,0,0,1-.57-.09.46.46,0,0,1-.29-.3L16.37,14q-.17-.52-.27-.92h0q0,.57,0,1T16,15q0,.44,0,.89t0,1a1.74,1.74,0,0,1-.33.08,2.42,2.42,0,0,1-.4,0,1.33,1.33,0,0,1-.66-.13.51.51,0,0,1-.24-.49l.28-4.9a.91.91,0,0,1,.34-.27,1.52,1.52,0,0,1,.73-.14,1.67,1.67,0,0,1,.8.16.94.94,0,0,1,.42.51l.19.53.2.61.2.63.17.56h0q.23-.81.46-1.56t.42-1.26a1.52,1.52,0,0,1,.37-.13,2.22,2.22,0,0,1,.5-.05,1.83,1.83,0,0,1,.77.14.55.55,0,0,1,.35.4q0,.19.08.59t.09.9q0,.5.1,1.06l.09,1.07q0,.51.07.94c0,.29,0,.5,0,.66a1.26,1.26,0,0,1-.34.14,2,2,0,0,1-.46,0,1.37,1.37,0,0,1-.61-.12.53.53,0,0,1-.27-.49q-.06-1-.07-1.88t0-1.4h0q-.1.38-.28.94T18.46,15.52Z"/><path class="cls-3" d="M23.37,11.3a2,2,0,0,1,.49-.18,2.63,2.63,0,0,1,.67-.09,2.4,2.4,0,0,1,.85.14.74.74,0,0,1,.48.44q.17.5.37,1.16t.4,1.37L27,15.53l.34,1.21A.78.78,0,0,1,27,17a1.64,1.64,0,0,1-.55.08,1.72,1.72,0,0,1-.39,0,.69.69,0,0,1-.26-.12.56.56,0,0,1-.16-.2,1.72,1.72,0,0,1-.11-.29l-.17-.66H23.64l-.15.6-.15.59-.28.08a1.69,1.69,0,0,1-.36,0,1.26,1.26,0,0,1-.73-.17.54.54,0,0,1-.24-.47,1,1,0,0,1,0-.27l.09-.32q.07-.26.19-.64l.26-.83q.14-.45.31-.92l.31-.89.26-.74Zm1.15,1.24-.3.9q-.17.49-.3,1h1.19q-.13-.52-.27-1l-.25-.89Z"/><path class="cls-3" d="M27.55,12.47a1.23,1.23,0,0,1-.12-.29,1.27,1.27,0,0,1-.06-.38.73.73,0,0,1,.17-.54A.6.6,0,0,1,28,11.1h4.19a1.36,1.36,0,0,1,.18.67.73.73,0,0,1-.17.54.6.6,0,0,1-.44.16H30.67v4.44l-.33.06-.45,0a2,2,0,0,1-.39,0,.68.68,0,0,1-.28-.12A.52.52,0,0,1,29,16.6a1.17,1.17,0,0,1-.06-.4V12.47Z"/><path class="cls-3" d="M38.36,16.91,38,17l-.45,0a2,2,0,0,1-.39,0,.68.68,0,0,1-.28-.12.52.52,0,0,1-.17-.24,1.17,1.17,0,0,1-.06-.4V14.7H34.83v2.21L34.5,17l-.45,0a2,2,0,0,1-.39,0,.68.68,0,0,1-.28-.12.52.52,0,0,1-.17-.24,1.17,1.17,0,0,1-.06-.4V11.13l.34-.05a3,3,0,0,1,.44,0,2,2,0,0,1,.39,0,.7.7,0,0,1,.28.12.52.52,0,0,1,.17.24,1.17,1.17,0,0,1,.06.4v1.54h1.84V11.13l.34-.05a3,3,0,0,1,.44,0,2,2,0,0,1,.39,0,.7.7,0,0,1,.28.12.52.52,0,0,1,.17.24,1.17,1.17,0,0,1,.06.4Z"/><path class="cls-3" d="M41.26,14.63q-.42-.14-.77-.29a2.37,2.37,0,0,1-.59-.36,1.49,1.49,0,0,1-.39-.5,1.66,1.66,0,0,1-.14-.72A1.57,1.57,0,0,1,40,11.46,2.8,2.8,0,0,1,41.76,11a4.83,4.83,0,0,1,.77.06,2.27,2.27,0,0,1,.61.18,1.06,1.06,0,0,1,.4.31.7.7,0,0,1,.14.44.77.77,0,0,1-.12.43,1.22,1.22,0,0,1-.28.3,2.17,2.17,0,0,0-.57-.24,2.84,2.84,0,0,0-.78-.1,1.29,1.29,0,0,0-.63.12.35.35,0,0,0-.2.3.28.28,0,0,0,.13.24,1.3,1.3,0,0,0,.37.17l.51.16a3.7,3.7,0,0,1,1.39.73A1.57,1.57,0,0,1,44,15.28a1.6,1.6,0,0,1-.64,1.32,3,3,0,0,1-1.89.5,4.36,4.36,0,0,1-.82-.07,2.57,2.57,0,0,1-.66-.21,1.23,1.23,0,0,1-.44-.35.76.76,0,0,1-.16-.48.72.72,0,0,1,.16-.47,1.24,1.24,0,0,1,.36-.3,2.61,2.61,0,0,0,.66.36,2.29,2.29,0,0,0,.85.15,1.14,1.14,0,0,0,.66-.14.41.41,0,0,0,.19-.34.33.33,0,0,0-.15-.29,2,2,0,0,0-.43-.2Z"/><path class="cls-4" d="M17.66,16.32a.92.92,0,0,1-.32.17,1.49,1.49,0,0,1-.46.06,1.61,1.61,0,0,1-.57-.09.46.46,0,0,1-.29-.3l-.44-1.37q-.17-.52-.27-.92h0q0,.57,0,1t0,.91q0,.44,0,.89t0,1a1.74,1.74,0,0,1-.33.08,2.42,2.42,0,0,1-.4,0,1.33,1.33,0,0,1-.66-.13.51.51,0,0,1-.24-.49l.28-4.9a.91.91,0,0,1,.34-.27,1.52,1.52,0,0,1,.73-.14,1.67,1.67,0,0,1,.8.16.94.94,0,0,1,.42.51l.19.53.2.61.2.63.17.56h0q.23-.81.46-1.56t.42-1.26a1.52,1.52,0,0,1,.37-.13,2.22,2.22,0,0,1,.5-.05,1.83,1.83,0,0,1,.77.14.55.55,0,0,1,.35.4q0,.19.08.59t.09.9q0,.5.1,1.06L20.11,16q0,.51.07.94c0,.29,0,.5,0,.66a1.26,1.26,0,0,1-.34.14,2,2,0,0,1-.46,0,1.37,1.37,0,0,1-.61-.12.53.53,0,0,1-.27-.49q-.06-1-.07-1.88t0-1.4h0q-.1.38-.28.94T17.66,16.32Z"/><path class="cls-4" d="M22.57,12.1a2,2,0,0,1,.49-.18,2.63,2.63,0,0,1,.67-.09,2.4,2.4,0,0,1,.85.14.74.74,0,0,1,.48.44q.17.5.37,1.16t.4,1.37l.39,1.39.34,1.21a.78.78,0,0,1-.35.22,1.64,1.64,0,0,1-.55.08,1.72,1.72,0,0,1-.39,0,.69.69,0,0,1-.26-.12.56.56,0,0,1-.16-.2,1.72,1.72,0,0,1-.11-.29l-.17-.66H22.84l-.15.6-.15.59-.28.08a1.69,1.69,0,0,1-.36,0,1.26,1.26,0,0,1-.73-.17.54.54,0,0,1-.24-.47,1,1,0,0,1,0-.27l.09-.32q.07-.26.19-.64l.26-.83q.14-.45.31-.92l.31-.89.26-.74Zm1.15,1.24-.3.9q-.17.49-.3,1h1.19q-.13-.52-.27-1l-.25-.89Z"/><path class="cls-4" d="M26.75,13.27a1.23,1.23,0,0,1-.12-.29,1.27,1.27,0,0,1-.06-.38.73.73,0,0,1,.17-.54.6.6,0,0,1,.44-.16h4.19a1.36,1.36,0,0,1,.18.67.73.73,0,0,1-.17.54.6.6,0,0,1-.44.16H29.87v4.44l-.33.06-.45,0a2,2,0,0,1-.39,0,.68.68,0,0,1-.28-.12.52.52,0,0,1-.17-.24,1.17,1.17,0,0,1-.06-.4V13.27Z"/><path class="cls-4" d="M37.56,17.71l-.33.06-.45,0a2,2,0,0,1-.39,0,.68.68,0,0,1-.28-.12.52.52,0,0,1-.17-.24,1.17,1.17,0,0,1-.06-.4V15.5H34v2.21l-.33.06-.45,0a2,2,0,0,1-.39,0,.68.68,0,0,1-.28-.12.52.52,0,0,1-.17-.24,1.17,1.17,0,0,1-.06-.4V11.93l.34-.05a3,3,0,0,1,.44,0,2,2,0,0,1,.39,0,.7.7,0,0,1,.28.12.52.52,0,0,1,.17.24,1.17,1.17,0,0,1,.06.4v1.54h1.84V11.93l.34-.05a3,3,0,0,1,.44,0,2,2,0,0,1,.39,0,.7.7,0,0,1,.28.12.52.52,0,0,1,.17.24,1.17,1.17,0,0,1,.06.4Z"/><path class="cls-4" d="M40.46,15.43q-.42-.14-.77-.29a2.37,2.37,0,0,1-.59-.36,1.49,1.49,0,0,1-.39-.5,1.66,1.66,0,0,1-.14-.72,1.57,1.57,0,0,1,.63-1.31A2.8,2.8,0,0,1,41,11.77a4.83,4.83,0,0,1,.77.06,2.27,2.27,0,0,1,.61.18,1.06,1.06,0,0,1,.4.31.7.7,0,0,1,.14.44.77.77,0,0,1-.12.43,1.22,1.22,0,0,1-.28.3,2.17,2.17,0,0,0-.57-.24,2.84,2.84,0,0,0-.78-.1,1.29,1.29,0,0,0-.63.12.35.35,0,0,0-.2.3.28.28,0,0,0,.13.24,1.3,1.3,0,0,0,.37.17l.51.16a3.7,3.7,0,0,1,1.39.73,1.57,1.57,0,0,1,.48,1.21,1.6,1.6,0,0,1-.64,1.32,3,3,0,0,1-1.89.5,4.36,4.36,0,0,1-.82-.07,2.57,2.57,0,0,1-.66-.21,1.23,1.23,0,0,1-.44-.35.76.76,0,0,1-.16-.48.72.72,0,0,1,.16-.48,1.24,1.24,0,0,1,.36-.3,2.61,2.61,0,0,0,.66.36,2.29,2.29,0,0,0,.85.15,1.14,1.14,0,0,0,.66-.14.41.41,0,0,0,.19-.34.33.33,0,0,0-.15-.29,2,2,0,0,0-.43-.2Z"/><path class="cls-2" d="M16.86,17.12a.92.92,0,0,1-.32.17,1.49,1.49,0,0,1-.46.06,1.61,1.61,0,0,1-.57-.09.46.46,0,0,1-.29-.3l-.44-1.37q-.17-.52-.27-.92h0q0,.57,0,1t0,.91q0,.44,0,.89t0,1a1.74,1.74,0,0,1-.33.08,2.42,2.42,0,0,1-.4,0,1.33,1.33,0,0,1-.66-.13.51.51,0,0,1-.24-.49L13,13.1a.91.91,0,0,1,.34-.27,1.52,1.52,0,0,1,.73-.14,1.67,1.67,0,0,1,.8.16.94.94,0,0,1,.42.51l.19.53.2.61.2.63.17.56h0q.23-.81.46-1.56T17,12.87a1.52,1.52,0,0,1,.37-.13,2.22,2.22,0,0,1,.5-.05,1.83,1.83,0,0,1,.77.14.55.55,0,0,1,.35.4q0,.19.08.59t.09.9q0,.5.1,1.06l.09,1.07q0,.51.07.94c0,.29,0,.5,0,.66a1.26,1.26,0,0,1-.34.14,2,2,0,0,1-.46,0A1.37,1.37,0,0,1,18,18.5a.53.53,0,0,1-.27-.49q-.06-1-.07-1.88t0-1.4h0q-.1.38-.28.94T16.86,17.12Z"/><path class="cls-2" d="M21.77,12.9a2,2,0,0,1,.49-.18,2.63,2.63,0,0,1,.67-.09,2.4,2.4,0,0,1,.85.14.74.74,0,0,1,.48.44q.17.5.37,1.16t.4,1.37l.39,1.39.34,1.21a.78.78,0,0,1-.35.22,1.64,1.64,0,0,1-.55.08,1.72,1.72,0,0,1-.39,0,.69.69,0,0,1-.26-.12.56.56,0,0,1-.16-.2A1.72,1.72,0,0,1,24,18l-.17-.66H22l-.15.6-.15.59-.28.08a1.69,1.69,0,0,1-.36,0,1.26,1.26,0,0,1-.73-.17.54.54,0,0,1-.24-.47,1,1,0,0,1,0-.27l.09-.32q.07-.26.19-.64l.26-.83q.14-.45.31-.92l.31-.89.26-.74Zm1.15,1.24-.3.9q-.17.49-.3,1h1.19q-.13-.52-.27-1L23,14.14Z"/><path class="cls-2" d="M25.95,14.07a1.23,1.23,0,0,1-.12-.29,1.27,1.27,0,0,1-.06-.38.73.73,0,0,1,.17-.54.6.6,0,0,1,.44-.16h4.19a1.36,1.36,0,0,1,.18.67.73.73,0,0,1-.17.54.6.6,0,0,1-.44.16H29.07v4.44l-.33.06-.45,0a2,2,0,0,1-.39,0,.68.68,0,0,1-.28-.12.52.52,0,0,1-.17-.24,1.17,1.17,0,0,1-.06-.4V14.07Z"/><path class="cls-2" d="M36.76,18.51l-.33.06-.45,0a2,2,0,0,1-.39,0,.68.68,0,0,1-.28-.12.52.52,0,0,1-.17-.24,1.17,1.17,0,0,1-.06-.4V16.3H33.23v2.21l-.33.06-.45,0a2,2,0,0,1-.39,0,.68.68,0,0,1-.28-.12.52.52,0,0,1-.17-.24,1.17,1.17,0,0,1-.06-.4V12.73l.34-.05a3,3,0,0,1,.44,0,2,2,0,0,1,.39,0,.7.7,0,0,1,.28.12.52.52,0,0,1,.17.24,1.17,1.17,0,0,1,.06.4V15h1.84V12.73l.34-.05a3,3,0,0,1,.44,0,2,2,0,0,1,.39,0,.7.7,0,0,1,.28.12.52.52,0,0,1,.17.24,1.17,1.17,0,0,1,.06.4Z"/><path class="cls-2" d="M39.66,16.23q-.42-.14-.77-.29a2.37,2.37,0,0,1-.59-.36,1.49,1.49,0,0,1-.39-.5,1.66,1.66,0,0,1-.14-.72,1.57,1.57,0,0,1,.63-1.31,2.8,2.8,0,0,1,1.76-.49,4.83,4.83,0,0,1,.77.06,2.27,2.27,0,0,1,.61.18,1.06,1.06,0,0,1,.4.31.7.7,0,0,1,.14.44A.77.77,0,0,1,42,14a1.22,1.22,0,0,1-.28.3,2.17,2.17,0,0,0-.57-.24,2.84,2.84,0,0,0-.78-.1,1.29,1.29,0,0,0-.63.12.35.35,0,0,0-.2.3.28.28,0,0,0,.13.24,1.3,1.3,0,0,0,.37.17l.51.16a3.7,3.7,0,0,1,1.39.73,1.57,1.57,0,0,1,.48,1.21,1.6,1.6,0,0,1-.64,1.32,3,3,0,0,1-1.89.5,4.36,4.36,0,0,1-.82-.07,2.57,2.57,0,0,1-.66-.21,1.23,1.23,0,0,1-.44-.35.76.76,0,0,1-.16-.48.72.72,0,0,1,.16-.48,1.24,1.24,0,0,1,.36-.3,2.61,2.61,0,0,0,.66.36,2.29,2.29,0,0,0,.85.15,1.14,1.14,0,0,0,.66-.14.41.41,0,0,0,.19-.34.33.33,0,0,0-.15-.29,2,2,0,0,0-.43-.2Z"/></g></g><g id="Modules"><g id="Module_bas"><g id="Algèbre"><path class="cls-2" d="M18.87,56.25a1.24,1.24,0,0,1,.31-.11,1.65,1.65,0,0,1,.42-.05,1.51,1.51,0,0,1,.53.09.46.46,0,0,1,.3.27q.11.31.23.73l.25.86.25.87.21.76a.5.5,0,0,1-.22.13,1,1,0,0,1-.34.05l-.24,0a.44.44,0,0,1-.16-.07.36.36,0,0,1-.1-.13,1.12,1.12,0,0,1-.07-.18L20.12,59H19l-.1.37-.1.37-.18.05-.22,0a.78.78,0,0,1-.45-.1.34.34,0,0,1-.15-.29.59.59,0,0,1,0-.17l.05-.2c0-.11.07-.24.12-.4l.17-.52.19-.57.19-.55.17-.46Zm.72.77-.19.56q-.11.31-.19.63H20l-.17-.63L19.62,57Z"/><path class="cls-2" d="M22.81,59.77l-.19,0-.26,0-.24,0a.41.41,0,0,1-.18-.07.34.34,0,0,1-.11-.15.62.62,0,0,1,0-.24V55.87l.2,0,.26,0,.24,0a.41.41,0,0,1,.18.07.34.34,0,0,1,.11.15.62.62,0,0,1,0,.24Z"/><path class="cls-2" d="M24.88,56.77a2.1,2.1,0,0,1,.62.09,1.63,1.63,0,0,1,.47.22.73.73,0,0,1,.19.19.46.46,0,0,1,.07.26v2.1a1.18,1.18,0,0,1-.12.55,1.11,1.11,0,0,1-.33.38,1.4,1.4,0,0,1-.49.22,2.4,2.4,0,0,1-.6.07,2.06,2.06,0,0,1-.86-.15.5.5,0,0,1-.31-.48.5.5,0,0,1,.06-.24.48.48,0,0,1,.13-.16,2,2,0,0,0,.39.16,1.57,1.57,0,0,0,.45.07,1,1,0,0,0,.52-.11.37.37,0,0,0,.19-.35v-.1a1.5,1.5,0,0,1-.6.11,1.59,1.59,0,0,1-.51-.08,1.14,1.14,0,0,1-.43-.25,1.23,1.23,0,0,1-.29-.44,1.68,1.68,0,0,1-.11-.64,1.59,1.59,0,0,1,.12-.64,1.22,1.22,0,0,1,.32-.45,1.36,1.36,0,0,1,.49-.26A2.13,2.13,0,0,1,24.88,56.77Zm.37.87-.12,0-.2,0a.56.56,0,0,0-.44.17.69.69,0,0,0-.15.47.71.71,0,0,0,.15.5.5.5,0,0,0,.38.15.61.61,0,0,0,.39-.11Z"/><path class="cls-2" d="M28.4,59.88a2.09,2.09,0,0,1-.66-.1,1.5,1.5,0,0,1-.53-.3,1.37,1.37,0,0,1-.35-.5,1.75,1.75,0,0,1-.13-.7,1.62,1.62,0,0,1,.13-.68,1.34,1.34,0,0,1,.34-.47,1.36,1.36,0,0,1,.48-.27,1.8,1.8,0,0,1,.55-.09,1.68,1.68,0,0,1,.58.1,1.4,1.4,0,0,1,.45.26,1.17,1.17,0,0,1,.29.4,1.23,1.23,0,0,1,.11.51.41.41,0,0,1-.11.31.56.56,0,0,1-.32.14l-1.48.22A.5.5,0,0,0,28,59a1.07,1.07,0,0,0,.47.1,1.68,1.68,0,0,0,.46-.06,1.53,1.53,0,0,0,.36-.15.5.5,0,0,1,.16.17.43.43,0,0,1,.07.23.43.43,0,0,1-.25.4,1.32,1.32,0,0,1-.43.14A3,3,0,0,1,28.4,59.88Zm-1-4a.61.61,0,0,1,0-.12.56.56,0,0,1,.11-.37.38.38,0,0,1,.31-.14.49.49,0,0,1,.25.06,1.6,1.6,0,0,1,.23.17l.68.57a.59.59,0,0,1-.13.37.34.34,0,0,1-.27.14.52.52,0,0,1-.19,0l-.19-.11Zm.88,1.6a.59.59,0,0,0-.25,0,.51.51,0,0,0-.17.12.5.5,0,0,0-.1.17.67.67,0,0,0,0,.19l1-.17a.46.46,0,0,0-.13-.24A.44.44,0,0,0,28.23,57.52Z"/><path class="cls-2" d="M30.17,55.87l.19,0,.27,0,.24,0a.41.41,0,0,1,.18.07.32.32,0,0,1,.11.15.67.67,0,0,1,0,.24v.59l.29-.08.3,0a1.48,1.48,0,0,1,.55.1,1.36,1.36,0,0,1,.46.3,1.39,1.39,0,0,1,.31.48,2,2,0,0,1,0,1.35,1.3,1.3,0,0,1-.33.48,1.4,1.4,0,0,1-.51.29,2.14,2.14,0,0,1-.67.1,2.11,2.11,0,0,1-.67-.09,1.76,1.76,0,0,1-.47-.23.57.57,0,0,1-.26-.48Zm1.4,3.2a.52.52,0,0,0,.43-.19.88.88,0,0,0,.15-.56.87.87,0,0,0-.16-.56.52.52,0,0,0-.42-.19l-.21,0-.19.07V59l.16.07A.81.81,0,0,0,31.57,59.07Z"/><path class="cls-2" d="M34.72,59.77l-.19,0-.27,0-.24,0a.41.41,0,0,1-.18-.07.35.35,0,0,1-.11-.15.64.64,0,0,1,0-.24v-1.8a.51.51,0,0,1,.05-.24.56.56,0,0,1,.15-.18,1.09,1.09,0,0,1,.24-.14l.3-.11.34-.07.35,0a.82.82,0,0,1,.46.11.4.4,0,0,1,.17.36.59.59,0,0,1,0,.17.75.75,0,0,1-.06.15H35.4l-.26,0-.24.05-.19.06Z"/><path class="cls-2" d="M37.59,59.88a2.09,2.09,0,0,1-.66-.1,1.5,1.5,0,0,1-.53-.3,1.37,1.37,0,0,1-.35-.5,1.75,1.75,0,0,1-.13-.7,1.62,1.62,0,0,1,.13-.68,1.34,1.34,0,0,1,.34-.47,1.36,1.36,0,0,1,.48-.27,1.8,1.8,0,0,1,.55-.09,1.68,1.68,0,0,1,.58.1,1.4,1.4,0,0,1,.45.26,1.17,1.17,0,0,1,.29.4,1.23,1.23,0,0,1,.11.51.41.41,0,0,1-.11.31.56.56,0,0,1-.32.14l-1.48.22a.5.5,0,0,0,.27.3,1.07,1.07,0,0,0,.47.1,1.68,1.68,0,0,0,.46-.06,1.53,1.53,0,0,0,.36-.15.5.5,0,0,1,.16.17.43.43,0,0,1,.07.23.43.43,0,0,1-.25.4,1.32,1.32,0,0,1-.43.14A3,3,0,0,1,37.59,59.88Zm-.17-2.36a.59.59,0,0,0-.25,0,.51.51,0,0,0-.17.12.5.5,0,0,0-.1.17.67.67,0,0,0,0,.19l1-.17a.46.46,0,0,0-.13-.24A.44.44,0,0,0,37.42,57.52Z"/></g></g></g></g></g></svg>