<svg width="20mm" height="25mm" xmlns="http://www.w3.org/2000/svg" viewBox="0 0 56.69 70.87"><defs><style>.cls-1{fill:#3c3e6a;}.cls-2{fill:#fff;}.cls-3{fill:#2a60a9;}.cls-4{fill:#7c9dc9;}</style></defs><title>Fichier 11</title><g id="Calque_2"><g id="Calque_1-2"><g id="Cotés"><g id="Barre_latérale_haut"><rect class="cls-1" x="2.5" y="2.5" width="51.69" height="65.87"/><path class="cls-2" d="M51.69,5V65.87H5V5H51.69m5-5H0V70.87H56.69V0Z"/></g></g><g id="Petites_cases"><g id="LANGUES"><path class="cls-3" d="M10,17a.83.83,0,0,1-.89-.89v-5l.34-.05a3,3,0,0,1,.44,0,2,2,0,0,1,.39,0,.68.68,0,0,1,.28.12.52.52,0,0,1,.17.24,1.18,1.18,0,0,1,.06.4v3.79H13a1.26,1.26,0,0,1,.13.28,1.19,1.19,0,0,1,.06.37.74.74,0,0,1-.16.54.59.59,0,0,1-.43.16Z"/><path class="cls-3" d="M15.41,11.3a2,2,0,0,1,.49-.18,2.63,2.63,0,0,1,.67-.09,2.4,2.4,0,0,1,.85.14.74.74,0,0,1,.48.44q.17.5.37,1.16t.4,1.37l.39,1.39.34,1.21a.78.78,0,0,1-.35.22,1.64,1.64,0,0,1-.55.08,1.72,1.72,0,0,1-.39,0,.69.69,0,0,1-.26-.12.56.56,0,0,1-.16-.2,1.72,1.72,0,0,1-.11-.29l-.17-.66H15.68l-.15.6-.15.59-.28.08a1.69,1.69,0,0,1-.36,0,1.26,1.26,0,0,1-.72-.17.54.54,0,0,1-.24-.47,1,1,0,0,1,0-.27l.09-.32q.07-.26.19-.64l.26-.83q.14-.45.31-.92l.31-.89.26-.74Zm1.15,1.24-.3.9q-.17.49-.3,1h1.19q-.13-.52-.27-1l-.25-.89Z"/><path class="cls-3" d="M25.46,16.75a.87.87,0,0,1-.39.21,2.24,2.24,0,0,1-.61.07,2.11,2.11,0,0,1-.67-.11.93.93,0,0,1-.52-.51l-1-1.94-.26-.56c-.08-.18-.16-.38-.25-.61h-.06q0,.52,0,1.06t0,1.06v1.49l-.32.06-.43,0a2.22,2.22,0,0,1-.37,0,.57.57,0,0,1-.27-.12.55.55,0,0,1-.16-.24,1.1,1.1,0,0,1-.06-.39v-4.8a.81.81,0,0,1,.41-.29,1.81,1.81,0,0,1,.6-.1,2.08,2.08,0,0,1,.68.11.92.92,0,0,1,.51.5l1,1.94.26.56q.12.26.25.61h0q0-.52,0-1t0-1V11.13l.32-.06.43,0a1.15,1.15,0,0,1,.64.15.71.71,0,0,1,.22.62Z"/><path class="cls-3" d="M32,16a.75.75,0,0,1-.11.44,1.09,1.09,0,0,1-.34.28,2.13,2.13,0,0,1-.34.15l-.44.12-.5.08-.52,0a4.35,4.35,0,0,1-1.3-.19,3,3,0,0,1-1.05-.57,2.69,2.69,0,0,1-.71-.95,3.47,3.47,0,0,1,0-2.69,2.88,2.88,0,0,1,.75-1,3.14,3.14,0,0,1,1.07-.58A4,4,0,0,1,29.75,11a3,3,0,0,1,1.44.29.87.87,0,0,1,.53.76.75.75,0,0,1-.12.43,1,1,0,0,1-.29.29,4,4,0,0,0-.6-.28,2.25,2.25,0,0,0-.81-.14,1.76,1.76,0,0,0-1.28.46,1.7,1.7,0,0,0-.48,1.28,2,2,0,0,0,.13.76,1.45,1.45,0,0,0,.35.53,1.43,1.43,0,0,0,.51.31,1.85,1.85,0,0,0,.61.1,1.63,1.63,0,0,0,.37,0,1,1,0,0,0,.25-.09v-.9h-1a1.51,1.51,0,0,1-.11-.28,1.24,1.24,0,0,1-.05-.36.67.67,0,0,1,.16-.5.56.56,0,0,1,.41-.15h1.62A.55.55,0,0,1,32,14Z"/><path class="cls-3" d="M38.24,14.8a2.44,2.44,0,0,1-.18.95,2,2,0,0,1-.51.73,2.31,2.31,0,0,1-.82.47,3.68,3.68,0,0,1-2.17,0,2.31,2.31,0,0,1-.82-.47,2,2,0,0,1-.51-.73,2.44,2.44,0,0,1-.18-.95V11.13l.34-.05a3,3,0,0,1,.44,0,2,2,0,0,1,.39,0,.7.7,0,0,1,.28.12.52.52,0,0,1,.17.24,1.17,1.17,0,0,1,.06.4v2.93a1,1,0,0,0,.25.72,1,1,0,0,0,1.32,0,1,1,0,0,0,.25-.72V11.13l.34-.05a3,3,0,0,1,.44,0,2,2,0,0,1,.39,0,.7.7,0,0,1,.28.12.52.52,0,0,1,.17.24,1.16,1.16,0,0,1,.06.4Z"/><path class="cls-3" d="M39.46,12a.83.83,0,0,1,.89-.89h3.17a1.15,1.15,0,0,1,.12.28,1.24,1.24,0,0,1,.05.36.7.7,0,0,1-.16.52.57.57,0,0,1-.42.15h-2v.89h2.16a1.17,1.17,0,0,1,.12.27,1.19,1.19,0,0,1,.05.36.72.72,0,0,1-.15.52.56.56,0,0,1-.41.15H41.09v1h2.47a1.16,1.16,0,0,1,.12.28,1.26,1.26,0,0,1,.05.36.72.72,0,0,1-.16.52.56.56,0,0,1-.42.16h-2.8a.83.83,0,0,1-.89-.89Z"/><path class="cls-3" d="M46.42,14.63q-.42-.14-.77-.29a2.37,2.37,0,0,1-.59-.36,1.49,1.49,0,0,1-.39-.5,1.66,1.66,0,0,1-.14-.72,1.57,1.57,0,0,1,.63-1.31A2.8,2.8,0,0,1,46.92,11a4.82,4.82,0,0,1,.77.06,2.27,2.27,0,0,1,.61.18,1.06,1.06,0,0,1,.4.31.7.7,0,0,1,.14.44.77.77,0,0,1-.12.43,1.21,1.21,0,0,1-.28.3,2.17,2.17,0,0,0-.57-.24,2.84,2.84,0,0,0-.78-.1,1.29,1.29,0,0,0-.63.12.35.35,0,0,0-.2.3.28.28,0,0,0,.13.24,1.3,1.3,0,0,0,.37.17l.51.16a3.7,3.7,0,0,1,1.39.73,1.57,1.57,0,0,1,.49,1.21,1.6,1.6,0,0,1-.64,1.32,3,3,0,0,1-1.89.5,4.36,4.36,0,0,1-.82-.07,2.57,2.57,0,0,1-.66-.21,1.23,1.23,0,0,1-.44-.35.76.76,0,0,1-.16-.48.72.72,0,0,1,.16-.47,1.24,1.24,0,0,1,.36-.3,2.61,2.61,0,0,0,.66.36,2.29,2.29,0,0,0,.85.15,1.14,1.14,0,0,0,.66-.14.41.41,0,0,0,.19-.34.33.33,0,0,0-.15-.29,2,2,0,0,0-.43-.2Z"/><path class="cls-4" d="M9.24,17.78a.83.83,0,0,1-.89-.89v-5l.34-.05a3,3,0,0,1,.44,0,2,2,0,0,1,.39,0A.68.68,0,0,1,9.8,12a.52.52,0,0,1,.17.24,1.18,1.18,0,0,1,.06.4v3.79h2.2a1.26,1.26,0,0,1,.13.28,1.19,1.19,0,0,1,.06.37.74.74,0,0,1-.16.54.59.59,0,0,1-.43.16Z"/><path class="cls-4" d="M14.61,12.1a2,2,0,0,1,.49-.18,2.63,2.63,0,0,1,.67-.09,2.4,2.4,0,0,1,.85.14.74.74,0,0,1,.48.44q.17.5.37,1.16t.4,1.37l.39,1.39.34,1.21a.78.78,0,0,1-.35.22,1.64,1.64,0,0,1-.55.08,1.72,1.72,0,0,1-.39,0,.69.69,0,0,1-.26-.12.56.56,0,0,1-.16-.2,1.72,1.72,0,0,1-.11-.29l-.17-.66H14.88l-.15.6-.15.59-.28.08a1.69,1.69,0,0,1-.36,0,1.26,1.26,0,0,1-.72-.17.54.54,0,0,1-.24-.47,1,1,0,0,1,0-.27l.09-.32q.07-.26.19-.64l.26-.83q.14-.45.31-.92l.31-.89.26-.74Zm1.15,1.24-.3.9q-.17.49-.3,1h1.19q-.13-.52-.27-1l-.25-.89Z"/><path class="cls-4" d="M24.66,17.55a.87.87,0,0,1-.39.21,2.24,2.24,0,0,1-.61.07,2.11,2.11,0,0,1-.67-.11.93.93,0,0,1-.52-.51l-1-1.94-.26-.56c-.08-.18-.16-.38-.25-.61H21q0,.52,0,1.06t0,1.06v1.49l-.32.06-.43,0a2.22,2.22,0,0,1-.37,0,.57.57,0,0,1-.27-.12.55.55,0,0,1-.16-.24,1.1,1.1,0,0,1-.06-.39v-4.8a.81.81,0,0,1,.41-.29,1.81,1.81,0,0,1,.6-.1,2.08,2.08,0,0,1,.68.11.92.92,0,0,1,.51.5l1,1.94.26.56q.12.26.25.61h0q0-.52,0-1t0-1V11.93l.32-.06.43,0a1.15,1.15,0,0,1,.64.15.71.71,0,0,1,.22.62Z"/><path class="cls-4" d="M31.18,16.8a.75.75,0,0,1-.11.44,1.09,1.09,0,0,1-.34.28,2.13,2.13,0,0,1-.34.15l-.44.12-.5.08-.52,0a4.35,4.35,0,0,1-1.3-.19,3,3,0,0,1-1.05-.57,2.69,2.69,0,0,1-.71-.95,3.47,3.47,0,0,1,0-2.69,2.88,2.88,0,0,1,.75-1A3.14,3.14,0,0,1,27.72,12,4,4,0,0,1,29,11.77a3,3,0,0,1,1.44.29.87.87,0,0,1,.53.76.75.75,0,0,1-.12.43,1,1,0,0,1-.29.29,4,4,0,0,0-.6-.28,2.25,2.25,0,0,0-.81-.14,1.76,1.76,0,0,0-1.28.46,1.7,1.7,0,0,0-.47,1.28,2,2,0,0,0,.13.76,1.45,1.45,0,0,0,.35.53,1.43,1.43,0,0,0,.51.31,1.85,1.85,0,0,0,.61.1,1.63,1.63,0,0,0,.37,0,1,1,0,0,0,.25-.09v-.9h-1a1.51,1.51,0,0,1-.11-.28,1.24,1.24,0,0,1-.05-.36.67.67,0,0,1,.16-.5.56.56,0,0,1,.41-.15h1.62a.55.55,0,0,1,.61.6Z"/><path class="cls-4" d="M37.44,15.6a2.44,2.44,0,0,1-.18.95,2,2,0,0,1-.51.73,2.31,2.31,0,0,1-.82.47,3.68,3.68,0,0,1-2.17,0,2.31,2.31,0,0,1-.82-.47,2,2,0,0,1-.51-.73,2.44,2.44,0,0,1-.18-.95V11.93l.34-.05a3,3,0,0,1,.44,0,2,2,0,0,1,.39,0,.7.7,0,0,1,.28.12.52.52,0,0,1,.17.24,1.17,1.17,0,0,1,.06.4v2.93a1,1,0,0,0,.25.72,1,1,0,0,0,1.32,0,1,1,0,0,0,.25-.72V11.93l.34-.05a3,3,0,0,1,.44,0,2,2,0,0,1,.39,0,.7.7,0,0,1,.28.12.52.52,0,0,1,.17.24,1.16,1.16,0,0,1,.06.4Z"/><path class="cls-4" d="M38.66,12.82a.83.83,0,0,1,.89-.89h3.17a1.15,1.15,0,0,1,.12.28,1.24,1.24,0,0,1,.05.36.7.7,0,0,1-.16.52.57.57,0,0,1-.42.15h-2v.89h2.16a1.17,1.17,0,0,1,.12.27,1.19,1.19,0,0,1,.05.36.72.72,0,0,1-.15.52.56.56,0,0,1-.41.15H40.29v1h2.47a1.16,1.16,0,0,1,.12.28,1.26,1.26,0,0,1,.05.36.72.72,0,0,1-.16.52.56.56,0,0,1-.42.16h-2.8a.83.83,0,0,1-.89-.89Z"/><path class="cls-4" d="M45.62,15.43q-.42-.14-.77-.29a2.37,2.37,0,0,1-.59-.36,1.49,1.49,0,0,1-.39-.5,1.66,1.66,0,0,1-.14-.72,1.57,1.57,0,0,1,.63-1.31,2.8,2.8,0,0,1,1.76-.49,4.82,4.82,0,0,1,.77.06,2.27,2.27,0,0,1,.61.18,1.06,1.06,0,0,1,.4.31.7.7,0,0,1,.14.44.77.77,0,0,1-.12.43,1.21,1.21,0,0,1-.28.3,2.17,2.17,0,0,0-.57-.24,2.84,2.84,0,0,0-.78-.1,1.29,1.29,0,0,0-.63.12.35.35,0,0,0-.2.3.28.28,0,0,0,.13.24A1.3,1.3,0,0,0,46,14l.51.16a3.7,3.7,0,0,1,1.39.73,1.57,1.57,0,0,1,.49,1.21,1.6,1.6,0,0,1-.64,1.32,3,3,0,0,1-1.89.5,4.36,4.36,0,0,1-.82-.07,2.57,2.57,0,0,1-.66-.21,1.23,1.23,0,0,1-.44-.35.76.76,0,0,1-.16-.48.72.72,0,0,1,.16-.47,1.24,1.24,0,0,1,.36-.3,2.61,2.61,0,0,0,.66.36,2.29,2.29,0,0,0,.85.15,1.14,1.14,0,0,0,.66-.14.41.41,0,0,0,.19-.34.33.33,0,0,0-.15-.29,2,2,0,0,0-.43-.2Z"/><path class="cls-2" d="M8.44,18.58a.83.83,0,0,1-.89-.89v-5l.34-.05a3,3,0,0,1,.44,0,2,2,0,0,1,.39,0,.68.68,0,0,1,.28.12.52.52,0,0,1,.17.24,1.18,1.18,0,0,1,.06.4v3.79h2.2a1.26,1.26,0,0,1,.13.28,1.19,1.19,0,0,1,.06.37.74.74,0,0,1-.16.54.59.59,0,0,1-.43.16Z"/><path class="cls-2" d="M13.81,12.9a2,2,0,0,1,.49-.18,2.63,2.63,0,0,1,.67-.09,2.4,2.4,0,0,1,.85.14.74.74,0,0,1,.48.44q.17.5.37,1.16t.4,1.37l.39,1.39.34,1.21a.78.78,0,0,1-.35.22,1.64,1.64,0,0,1-.55.08,1.72,1.72,0,0,1-.39,0,.69.69,0,0,1-.26-.12.56.56,0,0,1-.16-.2A1.72,1.72,0,0,1,16,18l-.17-.66H14.08l-.15.6-.15.59-.28.08a1.69,1.69,0,0,1-.36,0,1.26,1.26,0,0,1-.73-.17.54.54,0,0,1-.24-.47,1,1,0,0,1,0-.27l.09-.32q.07-.26.19-.64l.26-.83q.14-.45.31-.92l.31-.89.26-.74ZM15,14.14l-.3.9q-.17.49-.3,1h1.19q-.13-.52-.27-1L15,14.14Z"/><path class="cls-2" d="M23.86,18.35a.87.87,0,0,1-.39.21,2.24,2.24,0,0,1-.61.07,2.11,2.11,0,0,1-.67-.11.93.93,0,0,1-.52-.51l-1-1.94-.26-.56c-.08-.18-.16-.38-.25-.61h-.06q0,.52,0,1.06t0,1.06v1.49l-.32.06-.43,0a2.22,2.22,0,0,1-.37,0,.57.57,0,0,1-.27-.12.55.55,0,0,1-.16-.24,1.1,1.1,0,0,1-.06-.39V13a.81.81,0,0,1,.41-.29,1.81,1.81,0,0,1,.6-.1,2.08,2.08,0,0,1,.68.11.92.92,0,0,1,.51.5l1,1.94.26.56q.12.26.25.61h0q0-.52,0-1t0-1V12.73l.32-.06.43,0a1.15,1.15,0,0,1,.64.15.71.71,0,0,1,.22.62Z"/><path class="cls-2" d="M30.38,17.6a.75.75,0,0,1-.11.44,1.09,1.09,0,0,1-.34.28,2.13,2.13,0,0,1-.34.15l-.44.12-.5.08-.52,0a4.35,4.35,0,0,1-1.3-.19,3,3,0,0,1-1.05-.57,2.69,2.69,0,0,1-.71-.95,3.47,3.47,0,0,1,0-2.69,2.88,2.88,0,0,1,.75-1,3.14,3.14,0,0,1,1.07-.58,4,4,0,0,1,1.23-.19,3,3,0,0,1,1.44.29.87.87,0,0,1,.53.76.75.75,0,0,1-.12.43,1,1,0,0,1-.29.29,4,4,0,0,0-.6-.28,2.25,2.25,0,0,0-.81-.14,1.76,1.76,0,0,0-1.28.46,1.7,1.7,0,0,0-.47,1.28,2,2,0,0,0,.13.76,1.45,1.45,0,0,0,.35.53,1.43,1.43,0,0,0,.51.31,1.85,1.85,0,0,0,.61.1,1.63,1.63,0,0,0,.37,0,1,1,0,0,0,.25-.09v-.9h-1a1.51,1.51,0,0,1-.11-.28,1.24,1.24,0,0,1-.05-.36.67.67,0,0,1,.16-.5.56.56,0,0,1,.41-.15h1.62a.55.55,0,0,1,.61.6Z"/><path class="cls-2" d="M36.64,16.4a2.44,2.44,0,0,1-.18.95,2,2,0,0,1-.51.73,2.31,2.31,0,0,1-.82.47,3.68,3.68,0,0,1-2.17,0,2.31,2.31,0,0,1-.82-.47,2,2,0,0,1-.51-.73,2.44,2.44,0,0,1-.18-.95V12.73l.34-.05a3,3,0,0,1,.44,0,2,2,0,0,1,.39,0,.7.7,0,0,1,.28.12.52.52,0,0,1,.17.24,1.17,1.17,0,0,1,.06.4v2.93a1,1,0,0,0,.25.72,1,1,0,0,0,1.32,0,1,1,0,0,0,.25-.72V12.73l.34-.05a3,3,0,0,1,.44,0,2,2,0,0,1,.39,0,.7.7,0,0,1,.28.12.52.52,0,0,1,.17.24,1.16,1.16,0,0,1,.06.4Z"/><path class="cls-2" d="M37.86,13.62a.83.83,0,0,1,.89-.89h3.17A1.15,1.15,0,0,1,42,13a1.24,1.24,0,0,1,.05.36.7.7,0,0,1-.16.52.57.57,0,0,1-.42.15h-2v.89h2.16a1.17,1.17,0,0,1,.12.27,1.19,1.19,0,0,1,.05.36.72.72,0,0,1-.15.52.56.56,0,0,1-.41.15H39.49v1H42a1.16,1.16,0,0,1,.12.28,1.26,1.26,0,0,1,.05.36.72.72,0,0,1-.16.52.56.56,0,0,1-.42.16h-2.8a.83.83,0,0,1-.89-.89Z"/><path class="cls-2" d="M44.82,16.23q-.42-.14-.77-.29a2.37,2.37,0,0,1-.59-.36,1.49,1.49,0,0,1-.39-.5,1.66,1.66,0,0,1-.14-.72,1.57,1.57,0,0,1,.63-1.31,2.8,2.8,0,0,1,1.76-.49,4.82,4.82,0,0,1,.77.06,2.27,2.27,0,0,1,.61.18,1.06,1.06,0,0,1,.4.31.7.7,0,0,1,.14.44.77.77,0,0,1-.12.43,1.21,1.21,0,0,1-.28.3,2.17,2.17,0,0,0-.57-.24,2.84,2.84,0,0,0-.78-.1,1.29,1.29,0,0,0-.63.12.35.35,0,0,0-.2.3.28.28,0,0,0,.13.24,1.3,1.3,0,0,0,.37.17l.51.16a3.7,3.7,0,0,1,1.39.73,1.57,1.57,0,0,1,.49,1.21,1.6,1.6,0,0,1-.64,1.32,3,3,0,0,1-1.89.5,4.36,4.36,0,0,1-.82-.07,2.57,2.57,0,0,1-.66-.21,1.23,1.23,0,0,1-.44-.35.76.76,0,0,1-.16-.48.72.72,0,0,1,.16-.47,1.24,1.24,0,0,1,.36-.3,2.61,2.61,0,0,0,.66.36,2.29,2.29,0,0,0,.85.15,1.14,1.14,0,0,0,.66-.14.41.41,0,0,0,.19-.34.33.33,0,0,0-.15-.29,2,2,0,0,0-.43-.2Z"/></g></g><g id="Modules"><g id="Menu_haut"><g id="Allemand"><path class="cls-2" d="M16.72,56.23a1.27,1.27,0,0,1,.31-.11,1.64,1.64,0,0,1,.42-.05,1.5,1.5,0,0,1,.53.09.46.46,0,0,1,.3.27q.11.31.23.73l.25.85.25.87.21.76a.49.49,0,0,1-.22.13,1,1,0,0,1-.34.05l-.24,0a.43.43,0,0,1-.16-.07.35.35,0,0,1-.1-.13,1.05,1.05,0,0,1-.07-.18L18,59H16.89l-.1.37-.1.37-.18.05-.23,0a.78.78,0,0,1-.45-.1.34.34,0,0,1-.15-.29.6.6,0,0,1,0-.17l.05-.2c0-.11.07-.24.12-.4l.17-.52.19-.57.19-.56.17-.46Zm.72.77-.19.56q-.1.31-.19.63h.74l-.17-.63L17.47,57Z"/><path class="cls-2" d="M20.67,59.75l-.2,0-.26,0-.24,0a.4.4,0,0,1-.18-.07.35.35,0,0,1-.11-.15.63.63,0,0,1,0-.24V55.85l.19,0,.26,0,.24,0a.41.41,0,0,1,.18.07.35.35,0,0,1,.11.15.64.64,0,0,1,0,.24Z"/><path class="cls-2" d="M22.35,59.75l-.2,0-.26,0-.24,0a.4.4,0,0,1-.18-.07.35.35,0,0,1-.11-.15.63.63,0,0,1,0-.24V55.85l.19,0,.26,0,.24,0a.41.41,0,0,1,.18.07.35.35,0,0,1,.11.15.64.64,0,0,1,0,.24Z"/><path class="cls-2" d="M24.53,59.86a2.11,2.11,0,0,1-.66-.1,1.49,1.49,0,0,1-.53-.3A1.38,1.38,0,0,1,23,59a1.77,1.77,0,0,1-.13-.7,1.64,1.64,0,0,1,.13-.68,1.32,1.32,0,0,1,.82-.74,1.79,1.79,0,0,1,.55-.09,1.67,1.67,0,0,1,.58.1,1.4,1.4,0,0,1,.45.26,1.17,1.17,0,0,1,.29.4,1.23,1.23,0,0,1,.1.51.41.41,0,0,1-.11.31.57.57,0,0,1-.32.14l-1.48.22a.5.5,0,0,0,.27.3,1.06,1.06,0,0,0,.47.1,1.67,1.67,0,0,0,.46-.06,1.47,1.47,0,0,0,.36-.15.5.5,0,0,1,.16.17.44.44,0,0,1-.19.63,1.33,1.33,0,0,1-.43.14A3.06,3.06,0,0,1,24.53,59.86Zm-.17-2.36a.59.59,0,0,0-.25,0,.49.49,0,0,0-.17.12.51.51,0,0,0-.1.17.69.69,0,0,0,0,.19l1-.17a.45.45,0,0,0-.13-.24A.44.44,0,0,0,24.36,57.5Z"/><path class="cls-2" d="M27.68,56.75a1.72,1.72,0,0,1,.48.07,1.19,1.19,0,0,1,.41.21,1.78,1.78,0,0,1,.4-.2,1.82,1.82,0,0,1,1,0,1.15,1.15,0,0,1,.39.19.92.92,0,0,1,.27.34,1.2,1.2,0,0,1,.1.52v1.89l-.19,0-.27,0-.24,0a.4.4,0,0,1-.18-.07.35.35,0,0,1-.11-.15.63.63,0,0,1,0-.24V57.89a.31.31,0,0,0-.1-.26.43.43,0,0,0-.28-.08.48.48,0,0,0-.18,0,.52.52,0,0,0-.14.08.19.19,0,0,1,0,0v2l-.19,0-.26,0-.24,0a.4.4,0,0,1-.18-.07.34.34,0,0,1-.11-.15.64.64,0,0,1,0-.24V57.89a.3.3,0,0,0-.11-.26.44.44,0,0,0-.27-.08.48.48,0,0,0-.19,0l-.13.06v2.11l-.19,0-.27,0-.24,0a.4.4,0,0,1-.18-.07.35.35,0,0,1-.11-.15.63.63,0,0,1,0-.24V57.52a.43.43,0,0,1,.07-.26.78.78,0,0,1,.19-.18,1.74,1.74,0,0,1,.51-.23A2.21,2.21,0,0,1,27.68,56.75Z"/><path class="cls-2" d="M32.56,56.75a2.47,2.47,0,0,1,.59.07,1.32,1.32,0,0,1,.46.2.91.91,0,0,1,.29.34,1.1,1.1,0,0,1,.1.49V59.2a.37.37,0,0,1-.09.25.88.88,0,0,1-.21.17,2.14,2.14,0,0,1-1.1.23A2.51,2.51,0,0,1,32,59.8a1.36,1.36,0,0,1-.44-.18.83.83,0,0,1-.28-.31.9.9,0,0,1-.1-.43.81.81,0,0,1,.25-.64,1.33,1.33,0,0,1,.76-.28l.79-.08v0a.26.26,0,0,0-.15-.25,1,1,0,0,0-.44-.08,2,2,0,0,0-.44,0,2.34,2.34,0,0,0-.39.12.41.41,0,0,1-.13-.17.53.53,0,0,1-.05-.23.39.39,0,0,1,.07-.25.58.58,0,0,1,.23-.16,1.81,1.81,0,0,1,.41-.1Zm0,2.36.23,0A.55.55,0,0,0,33,59v-.48l-.43,0a.67.67,0,0,0-.28.07.19.19,0,0,0-.11.18.24.24,0,0,0,.09.19A.51.51,0,0,0,32.61,59.11Z"/><path class="cls-2" d="M36.47,57.91a.34.34,0,0,0-.1-.27.44.44,0,0,0-.29-.09,1,1,0,0,0-.24,0,.61.61,0,0,0-.2.09v2.08l-.19,0-.27,0-.24,0a.4.4,0,0,1-.18-.07.35.35,0,0,1-.11-.15.63.63,0,0,1,0-.24v-1.8a.46.46,0,0,1,.07-.26.73.73,0,0,1,.19-.19,1.73,1.73,0,0,1,.51-.23,2.45,2.45,0,0,1,.69-.09,1.62,1.62,0,0,1,1,.3,1,1,0,0,1,.37.83v1.88l-.19,0-.27,0-.24,0a.4.4,0,0,1-.18-.07.35.35,0,0,1-.11-.15.63.63,0,0,1,0-.24Z"/><path class="cls-2" d="M38,58.3a1.79,1.79,0,0,1,.12-.69,1.31,1.31,0,0,1,.33-.48,1.36,1.36,0,0,1,.5-.29,2,2,0,0,1,.61-.09l.23,0,.19.05v-1l.19,0,.27,0,.24,0a.4.4,0,0,1,.18.07A.32.32,0,0,1,41,56a.68.68,0,0,1,0,.24v2.84a.51.51,0,0,1-.26.45,1.83,1.83,0,0,1-.45.2,2.33,2.33,0,0,1-1.33,0,1.41,1.41,0,0,1-.52-.31,1.34,1.34,0,0,1-.32-.49A1.77,1.77,0,0,1,38,58.3Zm1.7-.75a.65.65,0,0,0-.5.19.8.8,0,0,0-.17.56.84.84,0,0,0,.16.56.58.58,0,0,0,.47.19.54.54,0,0,0,.19,0,.44.44,0,0,0,.14-.07V57.62A.55.55,0,0,0,39.7,57.55Z"/></g></g></g></g></g></svg>