<svg width="20mm" height="25mm" xmlns="http://www.w3.org/2000/svg" viewBox="0 0 56.69 70.87"><defs><style>.cls-1{fill:#3c3e6a;}.cls-2{fill:#fff;}.cls-3{fill:#ef1a23;}.cls-4{fill:#f27076;}</style></defs><title>Fichier 16</title><g id="Calque_2" data-name="Calque 2"><g id="Calque_1-2" data-name="Calque 1"><g id="Cotés"><g id="Barre_latérale_droite"><rect class="cls-1" x="2.5" y="2.5" width="51.69" height="65.87"/><path class="cls-2" d="M51.69,5V65.87H5V5H51.69m5-5H0V70.87H56.69V0Z"/></g></g><g id="Petites_cases"><g id="SPORT"><path class="cls-3" d="M17,14.66q-.42-.14-.77-.29a2.35,2.35,0,0,1-.6-.36,1.48,1.48,0,0,1-.39-.5,1.66,1.66,0,0,1-.14-.72,1.57,1.57,0,0,1,.63-1.31A2.81,2.81,0,0,1,17.5,11a4.77,4.77,0,0,1,.77.06,2.31,2.31,0,0,1,.61.18,1.06,1.06,0,0,1,.4.31.7.7,0,0,1,.14.44.76.76,0,0,1-.12.43,1.2,1.2,0,0,1-.28.3,2.16,2.16,0,0,0-.57-.24,2.84,2.84,0,0,0-.78-.1,1.28,1.28,0,0,0-.63.12.35.35,0,0,0-.2.3A.28.28,0,0,0,17,13a1.3,1.3,0,0,0,.38.17l.51.16a3.68,3.68,0,0,1,1.39.73,1.57,1.57,0,0,1,.48,1.21,1.6,1.6,0,0,1-.64,1.32,3,3,0,0,1-1.89.5,4.4,4.4,0,0,1-.82-.07,2.59,2.59,0,0,1-.66-.21,1.22,1.22,0,0,1-.44-.35.76.76,0,0,1-.16-.48.72.72,0,0,1,.16-.48,1.26,1.26,0,0,1,.36-.3,2.6,2.6,0,0,0,.66.36,2.29,2.29,0,0,0,.85.15,1.14,1.14,0,0,0,.66-.14.41.41,0,0,0,.19-.34.33.33,0,0,0-.15-.29,2,2,0,0,0-.43-.2Z"/><path class="cls-3" d="M22.32,16.93,22,17l-.45,0a2,2,0,0,1-.39,0,.69.69,0,0,1-.28-.12.52.52,0,0,1-.17-.24,1.17,1.17,0,0,1-.06-.4V11.7a.42.42,0,0,1,.11-.31.79.79,0,0,1,.3-.18,3.64,3.64,0,0,1,.74-.17,6.71,6.71,0,0,1,.84-.05,3.16,3.16,0,0,1,2,.57,1.87,1.87,0,0,1,.7,1.54,2.31,2.31,0,0,1-.15.85,1.77,1.77,0,0,1-.44.65A2,2,0,0,1,24,15a3.27,3.27,0,0,1-1,.15h-.68Zm.5-3.08a.92.92,0,0,0,.62-.19.72.72,0,0,0,.22-.57.7.7,0,0,0-.23-.56,1,1,0,0,0-.66-.2h-.25l-.21,0v1.49Z"/><path class="cls-3" d="M25.93,14.05a3.48,3.48,0,0,1,.24-1.32,2.67,2.67,0,0,1,1.6-1.56,3.65,3.65,0,0,1,2.39,0,2.78,2.78,0,0,1,1,.59,2.71,2.71,0,0,1,.65,1A3.48,3.48,0,0,1,32,14.05a3.58,3.58,0,0,1-.23,1.33,2.68,2.68,0,0,1-.64,1,2.73,2.73,0,0,1-1,.59,3.53,3.53,0,0,1-1.21.2,3.45,3.45,0,0,1-1.21-.21,2.7,2.7,0,0,1-1-.6,2.78,2.78,0,0,1-.63-1A3.51,3.51,0,0,1,25.93,14.05Zm1.73,0A2,2,0,0,0,28,15.36a1.27,1.27,0,0,0,1.91,0,2,2,0,0,0,.36-1.31,2,2,0,0,0-.35-1.3,1.17,1.17,0,0,0-1-.43,1.19,1.19,0,0,0-1,.43A2,2,0,0,0,27.65,14.05Z"/><path class="cls-3" d="M34.63,15.09v1.84L34.3,17l-.45,0a2,2,0,0,1-.39,0,.66.66,0,0,1-.28-.12.54.54,0,0,1-.17-.24,1.17,1.17,0,0,1-.06-.4V11.7a.42.42,0,0,1,.11-.31.79.79,0,0,1,.3-.18,3.64,3.64,0,0,1,.76-.17,7.61,7.61,0,0,1,.92-.05,3.07,3.07,0,0,1,2,.56,1.85,1.85,0,0,1,.67,1.51,1.68,1.68,0,0,1-.31,1,2.2,2.2,0,0,1-.73.65q.35.47.68.88a5.71,5.71,0,0,1,.53.75.91.91,0,0,1-.35.51A1,1,0,0,1,37,17a1.23,1.23,0,0,1-.36,0,.88.88,0,0,1-.27-.13,1.11,1.11,0,0,1-.21-.21,2.84,2.84,0,0,1-.18-.27l-.81-1.3Zm.6-1.28a.84.84,0,0,0,.58-.19.7.7,0,0,0,.21-.55.67.67,0,0,0-.24-.55,1.2,1.2,0,0,0-.74-.19h-.23l-.19,0v1.44Z"/><path class="cls-3" d="M38.4,12.5a1.22,1.22,0,0,1-.12-.29,1.27,1.27,0,0,1-.06-.38.73.73,0,0,1,.17-.54.6.6,0,0,1,.44-.16H43a1.29,1.29,0,0,1,.13.29,1.27,1.27,0,0,1,.06.38.72.72,0,0,1-.17.54.6.6,0,0,1-.44.16H41.52v4.44l-.33.06-.45,0a2,2,0,0,1-.39,0,.69.69,0,0,1-.28-.12.51.51,0,0,1-.17-.24,1.15,1.15,0,0,1-.06-.4V12.5Z"/><path class="cls-4" d="M16.2,15.46q-.42-.14-.77-.29a2.35,2.35,0,0,1-.6-.36,1.48,1.48,0,0,1-.39-.5,1.66,1.66,0,0,1-.14-.72,1.57,1.57,0,0,1,.63-1.31,2.81,2.81,0,0,1,1.76-.49,4.77,4.77,0,0,1,.77.06,2.31,2.31,0,0,1,.61.18,1.06,1.06,0,0,1,.4.31.7.7,0,0,1,.14.44.76.76,0,0,1-.12.43,1.2,1.2,0,0,1-.28.3,2.16,2.16,0,0,0-.57-.24,2.84,2.84,0,0,0-.78-.1,1.28,1.28,0,0,0-.63.12.35.35,0,0,0-.2.3.28.28,0,0,0,.12.24,1.3,1.3,0,0,0,.38.17l.51.16a3.68,3.68,0,0,1,1.39.73,1.57,1.57,0,0,1,.48,1.21,1.6,1.6,0,0,1-.64,1.32,3,3,0,0,1-1.89.5,4.4,4.4,0,0,1-.82-.07,2.59,2.59,0,0,1-.66-.21,1.22,1.22,0,0,1-.44-.35.76.76,0,0,1-.16-.48.72.72,0,0,1,.16-.48,1.26,1.26,0,0,1,.36-.3,2.6,2.6,0,0,0,.66.36,2.29,2.29,0,0,0,.85.15,1.14,1.14,0,0,0,.66-.14.41.41,0,0,0,.19-.34.33.33,0,0,0-.15-.29,2,2,0,0,0-.43-.2Z"/><path class="cls-4" d="M21.52,17.73l-.33.06-.45,0a2,2,0,0,1-.39,0,.69.69,0,0,1-.28-.12.52.52,0,0,1-.17-.24,1.17,1.17,0,0,1-.06-.4V12.5a.42.42,0,0,1,.11-.31.79.79,0,0,1,.3-.18,3.64,3.64,0,0,1,.74-.17,6.71,6.71,0,0,1,.84-.05,3.16,3.16,0,0,1,2,.57,1.87,1.87,0,0,1,.7,1.54,2.31,2.31,0,0,1-.15.85,1.77,1.77,0,0,1-.44.65,2,2,0,0,1-.74.42,3.27,3.27,0,0,1-1,.15h-.68Zm.5-3.08a.92.92,0,0,0,.62-.19.72.72,0,0,0,.22-.57.7.7,0,0,0-.23-.56,1,1,0,0,0-.66-.2h-.25l-.21,0v1.49Z"/><path class="cls-4" d="M25.13,14.85a3.48,3.48,0,0,1,.24-1.33A2.67,2.67,0,0,1,27,12a3.65,3.65,0,0,1,2.39,0,2.78,2.78,0,0,1,1,.59,2.71,2.71,0,0,1,.65,1,3.48,3.48,0,0,1,.24,1.33A3.58,3.58,0,0,1,31,16.18a2.68,2.68,0,0,1-.64,1,2.73,2.73,0,0,1-1,.59,3.53,3.53,0,0,1-1.21.2,3.45,3.45,0,0,1-1.21-.21,2.7,2.7,0,0,1-1-.6,2.78,2.78,0,0,1-.63-1A3.51,3.51,0,0,1,25.13,14.85Zm1.73,0a2,2,0,0,0,.36,1.31,1.27,1.27,0,0,0,1.91,0,2,2,0,0,0,.36-1.31,2,2,0,0,0-.35-1.3,1.17,1.17,0,0,0-1-.43,1.19,1.19,0,0,0-1,.43A2,2,0,0,0,26.85,14.85Z"/><path class="cls-4" d="M33.83,15.89v1.84l-.33.06-.45,0a2,2,0,0,1-.39,0,.66.66,0,0,1-.28-.12.54.54,0,0,1-.17-.24,1.17,1.17,0,0,1-.06-.4V12.5a.42.42,0,0,1,.11-.31.79.79,0,0,1,.3-.18,3.64,3.64,0,0,1,.76-.17,7.61,7.61,0,0,1,.92-.05,3.07,3.07,0,0,1,2,.56,1.85,1.85,0,0,1,.67,1.51,1.68,1.68,0,0,1-.31,1,2.2,2.2,0,0,1-.73.65q.35.47.68.88a5.71,5.71,0,0,1,.53.75.91.91,0,0,1-.35.51,1,1,0,0,1-.57.18,1.23,1.23,0,0,1-.36,0,.88.88,0,0,1-.27-.13,1.11,1.11,0,0,1-.21-.21,2.84,2.84,0,0,1-.18-.27l-.81-1.3Zm.6-1.28a.84.84,0,0,0,.58-.19.7.7,0,0,0,.21-.55.67.67,0,0,0-.24-.55,1.2,1.2,0,0,0-.74-.19H34l-.19,0v1.44Z"/><path class="cls-4" d="M37.6,13.3a1.22,1.22,0,0,1-.12-.29,1.27,1.27,0,0,1-.06-.38.73.73,0,0,1,.17-.54.6.6,0,0,1,.44-.16H42.2a1.29,1.29,0,0,1,.13.29,1.27,1.27,0,0,1,.06.38.72.72,0,0,1-.17.54.6.6,0,0,1-.44.16H40.72v4.44l-.33.06-.45,0a2,2,0,0,1-.39,0,.69.69,0,0,1-.28-.12.51.51,0,0,1-.17-.24A1.15,1.15,0,0,1,39,17V13.3Z"/><path class="cls-2" d="M15.4,16.26q-.42-.14-.77-.29a2.35,2.35,0,0,1-.6-.36,1.48,1.48,0,0,1-.39-.5,1.66,1.66,0,0,1-.14-.72,1.57,1.57,0,0,1,.63-1.31,2.81,2.81,0,0,1,1.76-.49,4.77,4.77,0,0,1,.77.06,2.31,2.31,0,0,1,.61.18,1.06,1.06,0,0,1,.4.31.7.7,0,0,1,.14.44.76.76,0,0,1-.12.43,1.2,1.2,0,0,1-.28.3,2.16,2.16,0,0,0-.57-.24,2.84,2.84,0,0,0-.78-.1,1.28,1.28,0,0,0-.63.12.35.35,0,0,0-.2.3.28.28,0,0,0,.12.24,1.3,1.3,0,0,0,.38.17l.51.16a3.68,3.68,0,0,1,1.39.73,1.57,1.57,0,0,1,.48,1.21,1.6,1.6,0,0,1-.64,1.32,3,3,0,0,1-1.89.5,4.4,4.4,0,0,1-.82-.07,2.59,2.59,0,0,1-.66-.21,1.22,1.22,0,0,1-.44-.35.76.76,0,0,1-.16-.47.72.72,0,0,1,.16-.48,1.26,1.26,0,0,1,.36-.3,2.6,2.6,0,0,0,.66.36,2.29,2.29,0,0,0,.85.15,1.14,1.14,0,0,0,.66-.14.41.41,0,0,0,.19-.34.33.33,0,0,0-.15-.29,2,2,0,0,0-.43-.2Z"/><path class="cls-2" d="M20.72,18.53l-.33.06-.45,0a2,2,0,0,1-.39,0,.69.69,0,0,1-.28-.12.52.52,0,0,1-.17-.24,1.17,1.17,0,0,1-.06-.4V13.3a.42.42,0,0,1,.11-.31.79.79,0,0,1,.3-.18,3.64,3.64,0,0,1,.74-.17,6.71,6.71,0,0,1,.84-.05,3.16,3.16,0,0,1,2,.57,1.87,1.87,0,0,1,.7,1.54,2.31,2.31,0,0,1-.15.85,1.77,1.77,0,0,1-.44.65,2,2,0,0,1-.74.42,3.27,3.27,0,0,1-1,.15h-.68Zm.5-3.08a.92.92,0,0,0,.62-.19.72.72,0,0,0,.22-.57.7.7,0,0,0-.23-.56,1,1,0,0,0-.66-.2h-.25l-.21,0v1.49Z"/><path class="cls-2" d="M24.33,15.65a3.48,3.48,0,0,1,.24-1.32,2.67,2.67,0,0,1,1.6-1.56,3.65,3.65,0,0,1,2.39,0,2.78,2.78,0,0,1,1,.59,2.71,2.71,0,0,1,.65,1,3.48,3.48,0,0,1,.24,1.32A3.58,3.58,0,0,1,30.17,17a2.68,2.68,0,0,1-.64,1,2.73,2.73,0,0,1-1,.59,3.53,3.53,0,0,1-1.21.2,3.45,3.45,0,0,1-1.21-.21,2.7,2.7,0,0,1-1-.6,2.78,2.78,0,0,1-.63-1A3.51,3.51,0,0,1,24.33,15.65Zm1.73,0A2,2,0,0,0,26.41,17a1.27,1.27,0,0,0,1.91,0,2,2,0,0,0,.36-1.31,2,2,0,0,0-.35-1.3,1.17,1.17,0,0,0-1-.43,1.19,1.19,0,0,0-1,.43A2,2,0,0,0,26.05,15.65Z"/><path class="cls-2" d="M33,16.69v1.84l-.33.06-.45,0a2,2,0,0,1-.39,0,.66.66,0,0,1-.28-.12.54.54,0,0,1-.17-.24,1.17,1.17,0,0,1-.06-.4V13.3a.42.42,0,0,1,.11-.31.79.79,0,0,1,.3-.18,3.64,3.64,0,0,1,.76-.17,7.61,7.61,0,0,1,.92-.05,3.07,3.07,0,0,1,2,.56,1.85,1.85,0,0,1,.67,1.51,1.68,1.68,0,0,1-.31,1,2.2,2.2,0,0,1-.73.65q.35.47.68.88a5.71,5.71,0,0,1,.53.75.91.91,0,0,1-.35.51,1,1,0,0,1-.57.18,1.23,1.23,0,0,1-.36,0,.88.88,0,0,1-.27-.13,1.11,1.11,0,0,1-.21-.21,2.84,2.84,0,0,1-.18-.27l-.81-1.3Zm.6-1.28a.84.84,0,0,0,.58-.19.7.7,0,0,0,.21-.55.67.67,0,0,0-.24-.55,1.2,1.2,0,0,0-.74-.19h-.23L33,14v1.44Z"/><path class="cls-2" d="M36.8,14.1a1.22,1.22,0,0,1-.12-.29,1.27,1.27,0,0,1-.06-.38.73.73,0,0,1,.17-.54.6.6,0,0,1,.44-.16H41.4a1.29,1.29,0,0,1,.13.29,1.27,1.27,0,0,1,.06.38.72.72,0,0,1-.17.54.6.6,0,0,1-.44.16H39.92v4.44l-.33.06-.45,0a2,2,0,0,1-.39,0,.69.69,0,0,1-.28-.12.51.51,0,0,1-.17-.24,1.15,1.15,0,0,1-.06-.4V14.1Z"/></g></g><g id="Modules"><g id="Module_droit"><g id="Basketball"><path class="cls-2" d="M15.62,59.85h-.24l-.28,0-.29,0-.26-.08a.45.45,0,0,1-.33-.44v-2.8a.26.26,0,0,1,.07-.2.49.49,0,0,1,.19-.11A2.27,2.27,0,0,1,15,56a6,6,0,0,1,.63,0,2.24,2.24,0,0,1,1.18.26.88.88,0,0,1,.41.8.72.72,0,0,1-.16.46.89.89,0,0,1-.42.29,1,1,0,0,1,.5.31.8.8,0,0,1,.2.56,1,1,0,0,1-.44.88A2.34,2.34,0,0,1,15.62,59.85Zm-.39-2.31h.44a.59.59,0,0,0,.38-.1.34.34,0,0,0,.12-.28.3.3,0,0,0-.13-.26.69.69,0,0,0-.41-.1h-.21l-.18,0Zm0,1.46.22,0h.25a.75.75,0,0,0,.4-.1.34.34,0,0,0,.16-.31.31.31,0,0,0-.13-.28.76.76,0,0,0-.4-.08h-.49Z"/><path class="cls-2" d="M19,56.75a2.47,2.47,0,0,1,.59.07,1.34,1.34,0,0,1,.46.2.9.9,0,0,1,.29.34,1.09,1.09,0,0,1,.1.49v1.34a.38.38,0,0,1-.09.26.89.89,0,0,1-.21.17,2.15,2.15,0,0,1-1.1.23,2.5,2.5,0,0,1-.57-.06,1.36,1.36,0,0,1-.44-.18.83.83,0,0,1-.28-.31.91.91,0,0,1-.1-.43.81.81,0,0,1,.25-.64,1.32,1.32,0,0,1,.76-.28l.79-.08v0a.26.26,0,0,0-.15-.25,1,1,0,0,0-.44-.08,2.09,2.09,0,0,0-.44,0,2.41,2.41,0,0,0-.39.12.42.42,0,0,1-.13-.17.52.52,0,0,1-.05-.23A.38.38,0,0,1,18,57a.57.57,0,0,1,.23-.16,1.77,1.77,0,0,1,.41-.1Zm0,2.36.23,0A.55.55,0,0,0,19.5,59v-.48l-.43,0a.66.66,0,0,0-.28.07.19.19,0,0,0-.11.18.24.24,0,0,0,.09.2A.51.51,0,0,0,19.09,59.11Z"/><path class="cls-2" d="M23.57,58.88a.84.84,0,0,1-.34.71,1.66,1.66,0,0,1-1,.26,2.91,2.91,0,0,1-.47,0,1.35,1.35,0,0,1-.37-.11.67.67,0,0,1-.24-.19.43.43,0,0,1-.09-.27.46.46,0,0,1,.06-.24.61.61,0,0,1,.14-.17,2.34,2.34,0,0,0,.4.17,1.64,1.64,0,0,0,.52.08.61.61,0,0,0,.29-.05.16.16,0,0,0,.1-.14.15.15,0,0,0-.07-.13.68.68,0,0,0-.24-.08l-.18,0a1.68,1.68,0,0,1-.78-.32A.78.78,0,0,1,21,57.7a.84.84,0,0,1,.1-.4.85.85,0,0,1,.27-.3,1.34,1.34,0,0,1,.42-.19,2,2,0,0,1,.54-.07,2.45,2.45,0,0,1,.42,0,1.34,1.34,0,0,1,.34.1.61.61,0,0,1,.23.17.39.39,0,0,1,.08.25.51.51,0,0,1-.05.24.54.54,0,0,1-.13.17l-.14-.06-.21-.06-.23,0-.21,0a.84.84,0,0,0-.31,0,.15.15,0,0,0-.11.14.12.12,0,0,0,.06.11.69.69,0,0,0,.23.08l.19,0a1.77,1.77,0,0,1,.82.36A.79.79,0,0,1,23.57,58.88Z"/><path class="cls-2" d="M26.91,59.23a.76.76,0,0,1-.17.43.5.5,0,0,1-.39.15.63.63,0,0,1-.34-.09,1.33,1.33,0,0,1-.32-.31l-.59-.74v1.09l-.19,0-.26,0-.24,0a.42.42,0,0,1-.18-.07.34.34,0,0,1-.11-.15.62.62,0,0,1,0-.24V55.85l.19,0,.26,0,.24,0a.41.41,0,0,1,.18.07.34.34,0,0,1,.11.15.62.62,0,0,1,0,.24v1.58l1-1.06a.83.83,0,0,1,.5.14.42.42,0,0,1,.19.35.45.45,0,0,1,0,.17.61.61,0,0,1-.09.15l-.16.17-.23.2-.35.3Z"/><path class="cls-2" d="M28.8,59.85a2.09,2.09,0,0,1-.66-.1,1.5,1.5,0,0,1-.53-.3,1.37,1.37,0,0,1-.35-.5,1.75,1.75,0,0,1-.13-.7,1.62,1.62,0,0,1,.13-.68,1.34,1.34,0,0,1,.34-.47,1.36,1.36,0,0,1,.48-.27,1.8,1.8,0,0,1,.55-.09,1.68,1.68,0,0,1,.58.1,1.4,1.4,0,0,1,.45.26,1.17,1.17,0,0,1,.29.4,1.23,1.23,0,0,1,.11.51.41.41,0,0,1-.11.31.56.56,0,0,1-.32.14l-1.48.22a.5.5,0,0,0,.27.3,1.07,1.07,0,0,0,.47.1,1.68,1.68,0,0,0,.46-.06,1.53,1.53,0,0,0,.36-.15.5.5,0,0,1,.16.17.43.43,0,0,1,.07.23.43.43,0,0,1-.25.4,1.32,1.32,0,0,1-.43.14A3,3,0,0,1,28.8,59.85Zm-.17-2.36a.59.59,0,0,0-.25,0,.51.51,0,0,0-.17.12.5.5,0,0,0-.1.17.67.67,0,0,0,0,.19l1-.17a.46.46,0,0,0-.13-.24A.44.44,0,0,0,28.63,57.49Z"/><path class="cls-2" d="M31.57,58.75a.25.25,0,0,0,.1.22.5.5,0,0,0,.28.07h.19l.17,0a.79.79,0,0,1,.09.15.45.45,0,0,1,0,.2.47.47,0,0,1-.17.37,1,1,0,0,1-.6.14,1.23,1.23,0,0,1-.81-.24,1,1,0,0,1-.29-.78V56.26l.19,0,.26,0a.76.76,0,0,1,.41.09.43.43,0,0,1,.15.39v.38h.79a1.1,1.1,0,0,1,.07.17.68.68,0,0,1,0,.22.41.41,0,0,1-.09.3.33.33,0,0,1-.25.09h-.55Z"/><path class="cls-2" d="M33,55.85l.19,0,.27,0,.24,0a.41.41,0,0,1,.18.07.32.32,0,0,1,.11.15.67.67,0,0,1,0,.24v.59l.29-.08.3,0a1.48,1.48,0,0,1,.55.1,1.36,1.36,0,0,1,.46.3,1.39,1.39,0,0,1,.31.48,2,2,0,0,1,0,1.35,1.3,1.3,0,0,1-.33.48,1.4,1.4,0,0,1-.51.29,2.14,2.14,0,0,1-.67.1,2.11,2.11,0,0,1-.67-.09,1.76,1.76,0,0,1-.47-.23A.57.57,0,0,1,33,59Zm1.4,3.2a.52.52,0,0,0,.43-.19.88.88,0,0,0,.15-.56.87.87,0,0,0-.16-.56.52.52,0,0,0-.42-.19l-.21,0-.19.07V59l.16.07A.81.81,0,0,0,34.37,59Z"/><path class="cls-2" d="M37.7,56.75a2.47,2.47,0,0,1,.59.07,1.34,1.34,0,0,1,.46.2.9.9,0,0,1,.29.34,1.09,1.09,0,0,1,.1.49v1.34a.38.38,0,0,1-.09.26.89.89,0,0,1-.21.17,2.15,2.15,0,0,1-1.1.23,2.5,2.5,0,0,1-.57-.06,1.36,1.36,0,0,1-.44-.18.83.83,0,0,1-.28-.31.91.91,0,0,1-.1-.43.81.81,0,0,1,.25-.64,1.32,1.32,0,0,1,.76-.28l.79-.08v0a.26.26,0,0,0-.15-.25,1,1,0,0,0-.44-.08,2.09,2.09,0,0,0-.44,0,2.41,2.41,0,0,0-.39.12.42.42,0,0,1-.13-.17.52.52,0,0,1-.05-.23.38.38,0,0,1,.08-.25.57.57,0,0,1,.23-.16,1.77,1.77,0,0,1,.41-.1Zm0,2.36.23,0a.55.55,0,0,0,.18-.06v-.48l-.43,0a.66.66,0,0,0-.28.07.19.19,0,0,0-.11.18.24.24,0,0,0,.09.2A.51.51,0,0,0,37.75,59.11Z"/><path class="cls-2" d="M40.81,59.75l-.19,0-.26,0-.24,0a.41.41,0,0,1-.18-.07.34.34,0,0,1-.11-.15.62.62,0,0,1,0-.24V55.84l.2,0,.26,0,.24,0a.41.41,0,0,1,.18.07.34.34,0,0,1,.11.15.62.62,0,0,1,0,.24Z"/><path class="cls-2" d="M42.49,59.75l-.19,0-.26,0-.24,0a.41.41,0,0,1-.18-.07.34.34,0,0,1-.11-.15.62.62,0,0,1,0-.24V55.84l.2,0,.26,0,.24,0a.41.41,0,0,1,.18.07.34.34,0,0,1,.11.15.62.62,0,0,1,0,.24Z"/></g></g></g></g></g></svg>