<svg width="20mm" height="25mm" xmlns="http://www.w3.org/2000/svg" viewBox="0 0 56.69 70.87"><defs><style>.cls-1{fill:#3c3e6a;}.cls-2{fill:#fff;}.cls-3{fill:#2ea992;}.cls-4{fill:#7bcbbc;}</style></defs><title>Fichier 18</title><g id="Calque_2" ><g id="Calque_1-2" ><g id="Cotés"><g id="Barre_latérale_droite"><rect class="cls-1" x="2.5" y="2.5" width="51.69" height="65.87"/><path class="cls-2" d="M51.69,5V65.87H5V5H51.69m5-5H0V70.87H56.69V0Z"/></g></g><g id="Petites_cases"><g id="ECG"><path class="cls-3" d="M21.22,12a.83.83,0,0,1,.89-.89h3.17a1.15,1.15,0,0,1,.12.28,1.24,1.24,0,0,1,.05.36.7.7,0,0,1-.16.52.57.57,0,0,1-.42.15h-2v.89H25a1.17,1.17,0,0,1,.12.27,1.19,1.19,0,0,1,.05.36.72.72,0,0,1-.15.52.56.56,0,0,1-.41.15H22.85v1h2.47a1.16,1.16,0,0,1,.12.28,1.26,1.26,0,0,1,.05.36.72.72,0,0,1-.16.52.56.56,0,0,1-.42.16h-2.8a.83.83,0,0,1-.89-.89Z"/><path class="cls-3" d="M29.39,12.33a1.42,1.42,0,0,0-1.13.45,1.88,1.88,0,0,0-.39,1.28,1.77,1.77,0,0,0,.44,1.29,1.56,1.56,0,0,0,1.18.45,1.84,1.84,0,0,0,.67-.11,4.52,4.52,0,0,0,.52-.24,1,1,0,0,1,.25.32,1,1,0,0,1,.09.44.79.79,0,0,1-.44.67,2.56,2.56,0,0,1-1.33.27A3.94,3.94,0,0,1,28,17a2.7,2.7,0,0,1-1-.56,2.65,2.65,0,0,1-.67-1,3.56,3.56,0,0,1-.24-1.39,3.45,3.45,0,0,1,.24-1.32,2.81,2.81,0,0,1,.64-1,2.7,2.7,0,0,1,1-.6,3.36,3.36,0,0,1,1.17-.2,2.69,2.69,0,0,1,1.37.29A.85.85,0,0,1,31,12a.75.75,0,0,1-.12.43,1,1,0,0,1-.29.29,3.12,3.12,0,0,0-.53-.28A1.74,1.74,0,0,0,29.39,12.33Z"/><path class="cls-3" d="M37.08,16a.75.75,0,0,1-.11.44,1.09,1.09,0,0,1-.34.28,2.13,2.13,0,0,1-.34.15l-.44.12-.5.08-.52,0a4.35,4.35,0,0,1-1.3-.19,3,3,0,0,1-1.05-.57,2.69,2.69,0,0,1-.71-.95,3.47,3.47,0,0,1,0-2.69,2.88,2.88,0,0,1,.75-1,3.14,3.14,0,0,1,1.07-.58A4,4,0,0,1,34.85,11a3,3,0,0,1,1.44.29.87.87,0,0,1,.53.76.75.75,0,0,1-.12.43,1,1,0,0,1-.29.29,4,4,0,0,0-.6-.28,2.25,2.25,0,0,0-.81-.14,1.76,1.76,0,0,0-1.28.46,1.7,1.7,0,0,0-.48,1.28,2,2,0,0,0,.13.76,1.45,1.45,0,0,0,.35.53,1.43,1.43,0,0,0,.51.31,1.85,1.85,0,0,0,.61.1,1.63,1.63,0,0,0,.37,0,1,1,0,0,0,.25-.09v-.9h-1a1.51,1.51,0,0,1-.11-.28,1.24,1.24,0,0,1-.05-.36.67.67,0,0,1,.16-.5.56.56,0,0,1,.41-.15h1.62a.55.55,0,0,1,.61.6Z"/><path class="cls-4" d="M20.42,12.85a.83.83,0,0,1,.89-.89h3.17a1.15,1.15,0,0,1,.12.28,1.24,1.24,0,0,1,.05.36.7.7,0,0,1-.16.52.57.57,0,0,1-.42.15H22v.89h2.16a1.17,1.17,0,0,1,.12.27,1.19,1.19,0,0,1,.05.36.72.72,0,0,1-.15.52.56.56,0,0,1-.41.15H22v1h2.47a1.16,1.16,0,0,1,.12.28,1.26,1.26,0,0,1,.05.36.72.72,0,0,1-.16.52.56.56,0,0,1-.42.16h-2.8a.83.83,0,0,1-.89-.89Z"/><path class="cls-4" d="M28.59,13.13a1.42,1.42,0,0,0-1.13.45,1.88,1.88,0,0,0-.39,1.28,1.77,1.77,0,0,0,.44,1.29,1.56,1.56,0,0,0,1.18.45,1.84,1.84,0,0,0,.67-.11,4.52,4.52,0,0,0,.52-.24,1,1,0,0,1,.25.32,1,1,0,0,1,.09.44.79.79,0,0,1-.44.67,2.56,2.56,0,0,1-1.33.27,3.94,3.94,0,0,1-1.21-.18,2.7,2.7,0,0,1-1-.56,2.65,2.65,0,0,1-.67-1,3.56,3.56,0,0,1-.24-1.39,3.45,3.45,0,0,1,.24-1.32,2.81,2.81,0,0,1,.64-1,2.7,2.7,0,0,1,1-.6,3.36,3.36,0,0,1,1.17-.2,2.69,2.69,0,0,1,1.37.29.85.85,0,0,1,.48.74.75.75,0,0,1-.12.43,1,1,0,0,1-.29.29,3.12,3.12,0,0,0-.53-.28A1.74,1.74,0,0,0,28.59,13.13Z"/><path class="cls-4" d="M36.28,16.82a.75.75,0,0,1-.11.44,1.09,1.09,0,0,1-.34.28,2.13,2.13,0,0,1-.34.15l-.44.12-.5.08-.52,0a4.35,4.35,0,0,1-1.3-.19,3,3,0,0,1-1.05-.57,2.69,2.69,0,0,1-.71-.95,3.47,3.47,0,0,1,0-2.69,2.88,2.88,0,0,1,.75-1A3.14,3.14,0,0,1,32.82,12,4,4,0,0,1,34,11.79a3,3,0,0,1,1.44.29.87.87,0,0,1,.53.76.75.75,0,0,1-.12.43,1,1,0,0,1-.29.29,4,4,0,0,0-.6-.28,2.25,2.25,0,0,0-.81-.14,1.76,1.76,0,0,0-1.28.46,1.7,1.7,0,0,0-.48,1.28,2,2,0,0,0,.13.76,1.45,1.45,0,0,0,.35.53,1.43,1.43,0,0,0,.51.31,1.85,1.85,0,0,0,.61.1,1.63,1.63,0,0,0,.37,0,1,1,0,0,0,.25-.09v-.9h-1a1.51,1.51,0,0,1-.11-.28,1.24,1.24,0,0,1-.05-.36.67.67,0,0,1,.16-.5.56.56,0,0,1,.41-.15h1.62a.55.55,0,0,1,.61.6Z"/><path class="cls-2" d="M19.62,13.65a.83.83,0,0,1,.89-.89h3.17a1.15,1.15,0,0,1,.12.28,1.24,1.24,0,0,1,.05.36.7.7,0,0,1-.16.52.57.57,0,0,1-.42.15h-2V15h2.16a1.17,1.17,0,0,1,.12.27,1.19,1.19,0,0,1,.05.36.72.72,0,0,1-.15.52.56.56,0,0,1-.41.15H21.25v1h2.47a1.16,1.16,0,0,1,.12.28,1.26,1.26,0,0,1,.05.36.72.72,0,0,1-.16.52.56.56,0,0,1-.42.16h-2.8a.83.83,0,0,1-.89-.89Z"/><path class="cls-2" d="M27.79,13.93a1.42,1.42,0,0,0-1.13.45,1.88,1.88,0,0,0-.39,1.28,1.77,1.77,0,0,0,.44,1.29,1.56,1.56,0,0,0,1.18.45,1.84,1.84,0,0,0,.67-.11,4.52,4.52,0,0,0,.52-.24,1,1,0,0,1,.25.32,1,1,0,0,1,.09.44.79.79,0,0,1-.44.67,2.56,2.56,0,0,1-1.33.27,3.94,3.94,0,0,1-1.21-.18,2.7,2.7,0,0,1-1-.56,2.65,2.65,0,0,1-.67-1,3.56,3.56,0,0,1-.24-1.39,3.45,3.45,0,0,1,.24-1.32,2.81,2.81,0,0,1,.64-1,2.7,2.7,0,0,1,1-.6,3.36,3.36,0,0,1,1.17-.2,2.69,2.69,0,0,1,1.37.29.85.85,0,0,1,.48.74.75.75,0,0,1-.12.43,1,1,0,0,1-.29.29,3.12,3.12,0,0,0-.53-.28A1.74,1.74,0,0,0,27.79,13.93Z"/><path class="cls-2" d="M35.48,17.62a.75.75,0,0,1-.11.44,1.09,1.09,0,0,1-.34.28,2.13,2.13,0,0,1-.34.15l-.44.12-.5.08-.52,0a4.35,4.35,0,0,1-1.3-.19A3,3,0,0,1,30.88,18a2.69,2.69,0,0,1-.71-.95,3.47,3.47,0,0,1,0-2.69,2.88,2.88,0,0,1,.75-1A3.14,3.14,0,0,1,32,12.78a4,4,0,0,1,1.23-.19,3,3,0,0,1,1.44.29.87.87,0,0,1,.53.76.75.75,0,0,1-.12.43,1,1,0,0,1-.29.29,4,4,0,0,0-.6-.28,2.25,2.25,0,0,0-.81-.14,1.76,1.76,0,0,0-1.28.46,1.7,1.7,0,0,0-.47,1.28,2,2,0,0,0,.13.76,1.45,1.45,0,0,0,.35.53,1.43,1.43,0,0,0,.51.31,1.85,1.85,0,0,0,.61.1,1.63,1.63,0,0,0,.37,0,1,1,0,0,0,.25-.09v-.9h-1a1.51,1.51,0,0,1-.11-.28,1.24,1.24,0,0,1-.05-.36.67.67,0,0,1,.16-.5.56.56,0,0,1,.41-.15h1.62a.55.55,0,0,1,.61.6Z"/></g></g><g id="Modules"><g id="Module_droit"><g id="Droit"><path class="cls-2" d="M23,59.86H22.8l-.27,0-.28,0L22,59.71a.45.45,0,0,1-.33-.44v-2.8a.26.26,0,0,1,.07-.19.49.49,0,0,1,.19-.11,2.53,2.53,0,0,1,.55-.11L23,56a3,3,0,0,1,.85.11,1.75,1.75,0,0,1,.65.35,1.58,1.58,0,0,1,.42.6,2.19,2.19,0,0,1,.15.85,2.22,2.22,0,0,1-.14.84,1.61,1.61,0,0,1-.41.6,1.73,1.73,0,0,1-.64.36A2.66,2.66,0,0,1,23,59.86ZM22.7,59l.16,0H23a1.13,1.13,0,0,0,.38-.06.76.76,0,0,0,.29-.19.85.85,0,0,0,.19-.33A1.5,1.5,0,0,0,24,58a1.16,1.16,0,0,0-.25-.81.87.87,0,0,0-.67-.27h-.17l-.18,0Z"/><path class="cls-2" d="M26.59,59.75l-.19,0-.27,0-.24,0a.4.4,0,0,1-.18-.07.35.35,0,0,1-.11-.15.65.65,0,0,1,0-.24v-1.8a.51.51,0,0,1,.05-.24.55.55,0,0,1,.15-.18A1.09,1.09,0,0,1,26,57l.3-.11.34-.08.35,0a.82.82,0,0,1,.46.11.4.4,0,0,1,.17.36.59.59,0,0,1,0,.17.77.77,0,0,1-.06.15h-.26l-.26,0-.24.05-.19.06Z"/><path class="cls-2" d="M30.94,58.3a1.8,1.8,0,0,1-.11.66,1.34,1.34,0,0,1-.32.49,1.36,1.36,0,0,1-.49.3,1.92,1.92,0,0,1-.64.1,1.8,1.8,0,0,1-.64-.11,1.41,1.41,0,0,1-.5-.31,1.39,1.39,0,0,1-.32-.49,1.88,1.88,0,0,1,0-1.29,1.38,1.38,0,0,1,.32-.49,1.4,1.4,0,0,1,.5-.31,1.8,1.8,0,0,1,.64-.11,1.78,1.78,0,0,1,.64.11,1.45,1.45,0,0,1,.49.31,1.37,1.37,0,0,1,.32.49A1.71,1.71,0,0,1,30.94,58.3Zm-2.1,0a1,1,0,0,0,.14.56.46.46,0,0,0,.39.19.44.44,0,0,0,.39-.2,1,1,0,0,0,.13-.56,1,1,0,0,0-.14-.56.49.49,0,0,0-.78,0A1,1,0,0,0,28.84,58.3Z"/><path class="cls-2" d="M31.42,56a.53.53,0,0,1,.15-.38.6.6,0,0,1,.81,0,.56.56,0,0,1,0,.77.6.6,0,0,1-.81,0A.53.53,0,0,1,31.42,56Zm1.07,3.72-.2,0-.26,0-.24,0a.4.4,0,0,1-.18-.07.35.35,0,0,1-.11-.15.63.63,0,0,1,0-.24V56.89l.2,0,.26,0,.24,0a.41.41,0,0,1,.18.07.35.35,0,0,1,.11.15.65.65,0,0,1,0,.24Z"/><path class="cls-2" d="M34.15,58.76a.25.25,0,0,0,.1.22.5.5,0,0,0,.28.07l.19,0,.17,0a.8.8,0,0,1,.09.15.46.46,0,0,1,0,.2.46.46,0,0,1-.17.37,1,1,0,0,1-.6.14,1.23,1.23,0,0,1-.81-.24,1,1,0,0,1-.29-.78V56.26l.19,0,.26,0a.76.76,0,0,1,.41.09.43.43,0,0,1,.15.39v.38h.79a1,1,0,0,1,.07.17.68.68,0,0,1,0,.22.41.41,0,0,1-.09.3.34.34,0,0,1-.25.09h-.55Z"/></g></g></g></g></g></svg>