<svg width="20mm" height="25mm" xmlns="http://www.w3.org/2000/svg" viewBox="0 0 56.69 70.87"><defs><style>.cls-1{fill:#3c3e6a;}.cls-2{fill:#fff;}.cls-3{fill:#2b9d3c;}.cls-4{fill:#7ac185;}</style></defs><title>Fichier 12</title><g id="Calque_2" ><g id="Calque_1-2" ><g id="Cotés"><g id="Barre_latérale_bas"><rect class="cls-1" x="2.5" y="2.5" width="51.69" height="65.87"/><path class="cls-2" d="M51.69,5V65.87H5V5H51.69m5-5H0V70.87H56.69V0Z"/></g></g><g id="Petites_cases"><g id="INFO"><path class="cls-3" d="M20.68,16.93l-.33.06-.45,0a2,2,0,0,1-.39,0,.68.68,0,0,1-.28-.12.52.52,0,0,1-.17-.24,1.17,1.17,0,0,1-.06-.4V11.15l.34-.05a3,3,0,0,1,.44,0,2,2,0,0,1,.39,0,.7.7,0,0,1,.28.12.52.52,0,0,1,.17.24,1.17,1.17,0,0,1,.06.4Z"/><path class="cls-3" d="M27.2,16.77a.87.87,0,0,1-.39.21,2.24,2.24,0,0,1-.61.07,2.11,2.11,0,0,1-.67-.11.93.93,0,0,1-.52-.51l-1-1.94-.26-.56c-.08-.18-.16-.38-.25-.61H23.5q0,.52,0,1.06t0,1.06v1.49l-.32.06-.43,0a2.22,2.22,0,0,1-.37,0,.57.57,0,0,1-.27-.12.55.55,0,0,1-.16-.24,1.1,1.1,0,0,1-.06-.39v-4.8a.81.81,0,0,1,.41-.29,1.81,1.81,0,0,1,.6-.1,2.08,2.08,0,0,1,.68.11.92.92,0,0,1,.51.5l1,1.94.26.56q.12.26.25.61h0q0-.52,0-1t0-1V11.15l.32-.06.43,0a1.15,1.15,0,0,1,.64.15.71.71,0,0,1,.22.62Z"/><path class="cls-3" d="M32.54,11.15a1.16,1.16,0,0,1,.12.28,1.29,1.29,0,0,1,.05.37.74.74,0,0,1-.16.53.58.58,0,0,1-.43.16h-2v1.08h2.1a1,1,0,0,1,.13.28,1.24,1.24,0,0,1,.05.36.72.72,0,0,1-.16.52.58.58,0,0,1-.43.16H30.13v2L29.8,17l-.45,0A2,2,0,0,1,29,17a.68.68,0,0,1-.28-.12.52.52,0,0,1-.17-.24,1.17,1.17,0,0,1-.06-.4V12a.83.83,0,0,1,.89-.89Z"/><path class="cls-3" d="M33.21,14.05a3.48,3.48,0,0,1,.24-1.32,2.67,2.67,0,0,1,1.6-1.56,3.65,3.65,0,0,1,2.39,0,2.78,2.78,0,0,1,1,.59,2.72,2.72,0,0,1,.65,1,3.48,3.48,0,0,1,.24,1.32,3.59,3.59,0,0,1-.23,1.33,2.68,2.68,0,0,1-.64,1,2.73,2.73,0,0,1-1,.59,3.53,3.53,0,0,1-1.21.2A3.45,3.45,0,0,1,35,16.94a2.69,2.69,0,0,1-1-.6,2.78,2.78,0,0,1-.63-1A3.52,3.52,0,0,1,33.21,14.05Zm1.73,0a2,2,0,0,0,.36,1.31,1.27,1.27,0,0,0,1.91,0,2,2,0,0,0,.36-1.31,2,2,0,0,0-.35-1.3,1.16,1.16,0,0,0-1-.43,1.19,1.19,0,0,0-1,.43A2,2,0,0,0,34.94,14.05Z"/><path class="cls-4" d="M19.88,17.73l-.33.06-.45,0a2,2,0,0,1-.39,0,.68.68,0,0,1-.28-.12.52.52,0,0,1-.17-.24,1.17,1.17,0,0,1-.06-.4V12l.34-.05a3,3,0,0,1,.44,0,2,2,0,0,1,.39,0,.7.7,0,0,1,.28.12.52.52,0,0,1,.17.24,1.17,1.17,0,0,1,.06.4Z"/><path class="cls-4" d="M26.4,17.57a.87.87,0,0,1-.39.21,2.24,2.24,0,0,1-.61.07,2.11,2.11,0,0,1-.67-.11.93.93,0,0,1-.52-.51l-1-1.94L23,14.73c-.08-.18-.16-.38-.25-.61H22.7q0,.52,0,1.06t0,1.06v1.49l-.32.06-.43,0a2.22,2.22,0,0,1-.37,0,.57.57,0,0,1-.27-.12.55.55,0,0,1-.16-.24,1.1,1.1,0,0,1-.06-.39v-4.8a.81.81,0,0,1,.41-.29,1.81,1.81,0,0,1,.6-.1,2.08,2.08,0,0,1,.68.11.92.92,0,0,1,.51.5l1,1.94.26.56q.12.26.25.61h0q0-.52,0-1t0-1V12l.32-.06.43,0a1.15,1.15,0,0,1,.64.15.71.71,0,0,1,.22.62Z"/><path class="cls-4" d="M31.74,12a1.16,1.16,0,0,1,.12.28,1.29,1.29,0,0,1,.05.37.74.74,0,0,1-.16.53.58.58,0,0,1-.43.16h-2v1.08h2.1a1,1,0,0,1,.13.28,1.24,1.24,0,0,1,.05.36.72.72,0,0,1-.16.52.58.58,0,0,1-.43.16H29.33v2l-.33.06-.45,0a2,2,0,0,1-.39,0,.68.68,0,0,1-.28-.12.52.52,0,0,1-.17-.24,1.17,1.17,0,0,1-.06-.4V12.85a.83.83,0,0,1,.89-.89Z"/><path class="cls-4" d="M32.41,14.85a3.48,3.48,0,0,1,.24-1.32A2.67,2.67,0,0,1,34.25,12a3.65,3.65,0,0,1,2.39,0,2.78,2.78,0,0,1,1,.59,2.72,2.72,0,0,1,.65,1,3.48,3.48,0,0,1,.24,1.32,3.59,3.59,0,0,1-.23,1.33,2.68,2.68,0,0,1-.64,1,2.73,2.73,0,0,1-1,.59,3.53,3.53,0,0,1-1.21.2,3.45,3.45,0,0,1-1.21-.21,2.69,2.69,0,0,1-1-.6,2.78,2.78,0,0,1-.63-1A3.52,3.52,0,0,1,32.41,14.85Zm1.73,0a2,2,0,0,0,.36,1.31,1.27,1.27,0,0,0,1.91,0,2,2,0,0,0,.36-1.31,2,2,0,0,0-.35-1.3,1.16,1.16,0,0,0-1-.43,1.19,1.19,0,0,0-1,.43A2,2,0,0,0,34.14,14.85Z"/><path class="cls-2" d="M19.08,18.53l-.33.06-.45,0a2,2,0,0,1-.39,0,.68.68,0,0,1-.28-.12.52.52,0,0,1-.17-.24,1.17,1.17,0,0,1-.06-.4V12.75l.34-.05a3,3,0,0,1,.44,0,2,2,0,0,1,.39,0,.7.7,0,0,1,.28.12.52.52,0,0,1,.17.24,1.17,1.17,0,0,1,.06.4Z"/><path class="cls-2" d="M25.6,18.37a.87.87,0,0,1-.39.21,2.24,2.24,0,0,1-.61.07,2.11,2.11,0,0,1-.67-.11.93.93,0,0,1-.52-.51l-1-1.94-.26-.56c-.08-.18-.16-.38-.25-.61H21.9q0,.52,0,1.06t0,1.06v1.49l-.32.06-.43,0a2.22,2.22,0,0,1-.37,0,.57.57,0,0,1-.27-.12.55.55,0,0,1-.16-.24,1.1,1.1,0,0,1-.06-.39v-4.8a.81.81,0,0,1,.41-.29,1.81,1.81,0,0,1,.6-.1,2.08,2.08,0,0,1,.68.11.92.92,0,0,1,.51.5l1,1.94.26.56q.12.26.25.61h0q0-.52,0-1t0-1V12.75l.32-.06.43,0a1.15,1.15,0,0,1,.64.15.71.71,0,0,1,.22.62Z"/><path class="cls-2" d="M30.94,12.75a1.16,1.16,0,0,1,.12.28,1.29,1.29,0,0,1,.05.37.74.74,0,0,1-.16.53.58.58,0,0,1-.43.16h-2v1.08h2.1a1,1,0,0,1,.13.28,1.24,1.24,0,0,1,.05.36.72.72,0,0,1-.16.52.58.58,0,0,1-.43.16H28.53v2l-.33.06-.45,0a2,2,0,0,1-.39,0,.68.68,0,0,1-.28-.12.52.52,0,0,1-.17-.24,1.17,1.17,0,0,1-.06-.4V13.65a.83.83,0,0,1,.89-.89Z"/><path class="cls-2" d="M31.61,15.65a3.48,3.48,0,0,1,.24-1.32,2.67,2.67,0,0,1,1.6-1.56,3.65,3.65,0,0,1,2.39,0,2.78,2.78,0,0,1,1,.59,2.72,2.72,0,0,1,.65,1,3.48,3.48,0,0,1,.24,1.32A3.59,3.59,0,0,1,37.46,17a2.68,2.68,0,0,1-.64,1,2.73,2.73,0,0,1-1,.59,3.53,3.53,0,0,1-1.21.2,3.45,3.45,0,0,1-1.21-.21,2.69,2.69,0,0,1-1-.6,2.78,2.78,0,0,1-.63-1A3.52,3.52,0,0,1,31.61,15.65Zm1.73,0A2,2,0,0,0,33.7,17a1.27,1.27,0,0,0,1.91,0A2,2,0,0,0,36,15.65a2,2,0,0,0-.35-1.3,1.16,1.16,0,0,0-1-.43,1.19,1.19,0,0,0-1,.43A2,2,0,0,0,33.34,15.65Z"/></g></g><g id="Modules"><g id="Module_bas"><g id="Développement"><path class="cls-2" d="M8.22,59.89H8l-.27,0-.28,0-.26-.08a.45.45,0,0,1-.33-.44V56.5a.26.26,0,0,1,.07-.2.48.48,0,0,1,.19-.11,2.45,2.45,0,0,1,.55-.11l.52,0a3,3,0,0,1,.85.11,1.76,1.76,0,0,1,.65.35,1.58,1.58,0,0,1,.42.6,2.5,2.5,0,0,1,0,1.69,1.62,1.62,0,0,1-.41.6,1.71,1.71,0,0,1-.64.36A2.66,2.66,0,0,1,8.22,59.89ZM7.88,59,8,59h.18A1.12,1.12,0,0,0,8.6,59a.75.75,0,0,0,.29-.19.86.86,0,0,0,.19-.33A1.5,1.5,0,0,0,9.16,58a1.16,1.16,0,0,0-.25-.81.87.87,0,0,0-.67-.27H8.06l-.18,0Z"/><path class="cls-2" d="M12.3,59.89a2.1,2.1,0,0,1-.66-.1,1.5,1.5,0,0,1-.53-.3,1.37,1.37,0,0,1-.35-.5,1.77,1.77,0,0,1-.13-.7,1.64,1.64,0,0,1,.13-.68,1.35,1.35,0,0,1,.34-.47,1.37,1.37,0,0,1,.48-.27,1.8,1.8,0,0,1,.55-.09,1.68,1.68,0,0,1,.58.1,1.41,1.41,0,0,1,.45.26,1.17,1.17,0,0,1,.29.4,1.23,1.23,0,0,1,.1.51.41.41,0,0,1-.11.31.57.57,0,0,1-.32.14l-1.48.22a.5.5,0,0,0,.27.3,1.06,1.06,0,0,0,.47.1,1.67,1.67,0,0,0,.46-.06,1.53,1.53,0,0,0,.36-.15.5.5,0,0,1,.16.17.44.44,0,0,1-.19.63,1.31,1.31,0,0,1-.43.14A3,3,0,0,1,12.3,59.89Zm-.06-4.56a.69.69,0,0,1,.45.12.37.37,0,0,1,.14.29.41.41,0,0,1-.08.26.89.89,0,0,1-.28.21l-.77.41a.49.49,0,0,1-.31-.14.38.38,0,0,1-.13-.27.32.32,0,0,1,0-.14.37.37,0,0,1,.12-.13Zm-.11,2.2a.59.59,0,0,0-.25,0,.49.49,0,0,0-.27.29.69.69,0,0,0,0,.19l1-.17a.45.45,0,0,0-.13-.24A.44.44,0,0,0,12.13,57.54Z"/><path class="cls-2" d="M16,59.72a.68.68,0,0,1-.25.11,1.49,1.49,0,0,1-.37,0,1.22,1.22,0,0,1-.4-.06.39.39,0,0,1-.24-.19c0-.07-.08-.16-.13-.29l-.16-.41-.17-.48-.17-.51q-.08-.25-.15-.49c0-.16-.08-.29-.11-.41a.73.73,0,0,1,.23-.15.75.75,0,0,1,.31-.06.62.62,0,0,1,.35.09.54.54,0,0,1,.2.33l.23.92.13.49.09.34h0q.11-.44.24-1t.23-1.06a1,1,0,0,1,.23-.08l.25,0a.65.65,0,0,1,.35.09.34.34,0,0,1,.14.31,1.29,1.29,0,0,1,0,.28c0,.12-.07.26-.11.41s-.1.32-.16.49l-.19.5-.19.46C16.09,59.51,16,59.63,16,59.72Z"/><path class="cls-2" d="M18.82,59.89a2.1,2.1,0,0,1-.66-.1,1.5,1.5,0,0,1-.53-.3,1.37,1.37,0,0,1-.35-.5,1.77,1.77,0,0,1-.13-.7,1.64,1.64,0,0,1,.13-.68,1.35,1.35,0,0,1,.34-.47,1.37,1.37,0,0,1,.48-.27,1.8,1.8,0,0,1,.55-.09,1.68,1.68,0,0,1,.58.1,1.41,1.41,0,0,1,.45.26,1.17,1.17,0,0,1,.29.4,1.23,1.23,0,0,1,.1.51.41.41,0,0,1-.11.31.57.57,0,0,1-.32.14l-1.48.22a.5.5,0,0,0,.27.3,1.06,1.06,0,0,0,.47.1,1.67,1.67,0,0,0,.46-.06,1.53,1.53,0,0,0,.36-.15.5.5,0,0,1,.16.17.44.44,0,0,1-.19.63,1.31,1.31,0,0,1-.43.14A3,3,0,0,1,18.82,59.89Zm-.17-2.36a.59.59,0,0,0-.25,0,.49.49,0,0,0-.27.29.69.69,0,0,0,0,.19l1-.17a.45.45,0,0,0-.13-.24A.44.44,0,0,0,18.65,57.54Z"/><path class="cls-2" d="M21.61,59.79l-.2,0-.26,0-.24,0a.41.41,0,0,1-.18-.07.35.35,0,0,1-.11-.15.62.62,0,0,1,0-.24V55.88l.19,0,.26,0,.24,0a.41.41,0,0,1,.18.07.35.35,0,0,1,.11.15.63.63,0,0,1,0,.24Z"/><path class="cls-2" d="M25.27,58.34a1.8,1.8,0,0,1-.11.66,1.34,1.34,0,0,1-.32.49,1.37,1.37,0,0,1-.5.3,1.93,1.93,0,0,1-.64.1,1.83,1.83,0,0,1-.64-.11,1.4,1.4,0,0,1-.5-.31,1.38,1.38,0,0,1-.32-.49,1.76,1.76,0,0,1-.11-.65,1.73,1.73,0,0,1,.11-.64,1.37,1.37,0,0,1,.32-.49,1.42,1.42,0,0,1,.5-.31,1.83,1.83,0,0,1,.64-.11,1.77,1.77,0,0,1,.64.11,1.44,1.44,0,0,1,.5.31,1.37,1.37,0,0,1,.32.49A1.71,1.71,0,0,1,25.27,58.34Zm-2.1,0a.94.94,0,0,0,.14.56.46.46,0,0,0,.39.2.44.44,0,0,0,.39-.2,1,1,0,0,0,.14-.56,1,1,0,0,0-.14-.55.49.49,0,0,0-.78,0A1,1,0,0,0,23.17,58.34Z"/><path class="cls-2" d="M27.1,56.79a2.33,2.33,0,0,1,.67.09,1.44,1.44,0,0,1,.53.29,1.33,1.33,0,0,1,.35.48,1.73,1.73,0,0,1,.13.69,1.9,1.9,0,0,1-.11.67,1.31,1.31,0,0,1-.31.48,1.26,1.26,0,0,1-.48.29,1.91,1.91,0,0,1-.62.1,1.44,1.44,0,0,1-.48-.08v1l-.19,0-.27,0-.24,0a.4.4,0,0,1-.18-.07.32.32,0,0,1-.11-.15.69.69,0,0,1,0-.24V57.5a.46.46,0,0,1,.07-.26.73.73,0,0,1,.19-.19,1.59,1.59,0,0,1,.46-.19A2.41,2.41,0,0,1,27.1,56.79Zm0,2.29q.62,0,.62-.74a.89.89,0,0,0-.15-.57.54.54,0,0,0-.44-.19.69.69,0,0,0-.2,0l-.16.06V59l.16.06Z"/><path class="cls-2" d="M30.61,56.79a2.33,2.33,0,0,1,.67.09,1.44,1.44,0,0,1,.53.29,1.33,1.33,0,0,1,.35.48,1.73,1.73,0,0,1,.13.69,1.9,1.9,0,0,1-.11.67,1.31,1.31,0,0,1-.31.48,1.26,1.26,0,0,1-.48.29,1.91,1.91,0,0,1-.62.1,1.44,1.44,0,0,1-.48-.08v1l-.19,0-.27,0-.24,0a.4.4,0,0,1-.18-.07.32.32,0,0,1-.11-.15.69.69,0,0,1,0-.24V57.5a.46.46,0,0,1,.07-.26.73.73,0,0,1,.19-.19,1.59,1.59,0,0,1,.46-.19A2.41,2.41,0,0,1,30.61,56.79Zm0,2.29q.62,0,.62-.74a.89.89,0,0,0-.15-.57.54.54,0,0,0-.44-.19.69.69,0,0,0-.2,0l-.16.06V59l.16.06Z"/><path class="cls-2" d="M34.33,59.89a2.1,2.1,0,0,1-.66-.1,1.5,1.5,0,0,1-.53-.3,1.37,1.37,0,0,1-.35-.5,1.77,1.77,0,0,1-.13-.7,1.64,1.64,0,0,1,.13-.68,1.35,1.35,0,0,1,.34-.47,1.37,1.37,0,0,1,.48-.27,1.8,1.8,0,0,1,.55-.09,1.68,1.68,0,0,1,.58.1,1.41,1.41,0,0,1,.45.26,1.17,1.17,0,0,1,.29.4,1.23,1.23,0,0,1,.1.51.41.41,0,0,1-.11.31.57.57,0,0,1-.32.14l-1.48.22a.5.5,0,0,0,.27.3,1.06,1.06,0,0,0,.47.1,1.67,1.67,0,0,0,.46-.06,1.53,1.53,0,0,0,.36-.15.5.5,0,0,1,.16.17.44.44,0,0,1-.19.63,1.31,1.31,0,0,1-.43.14A3,3,0,0,1,34.33,59.89Zm-.17-2.36a.59.59,0,0,0-.25,0,.49.49,0,0,0-.27.29.69.69,0,0,0,0,.19l1-.17a.45.45,0,0,0-.13-.24A.44.44,0,0,0,34.16,57.54Z"/><path class="cls-2" d="M37.48,56.79a1.69,1.69,0,0,1,.48.07,1.19,1.19,0,0,1,.41.21,1.8,1.8,0,0,1,.4-.2,1.82,1.82,0,0,1,1,0,1.15,1.15,0,0,1,.39.19.92.92,0,0,1,.27.34,1.2,1.2,0,0,1,.1.52v1.89l-.19,0-.27,0-.24,0a.41.41,0,0,1-.18-.07.35.35,0,0,1-.11-.15.62.62,0,0,1,0-.24V57.93a.31.31,0,0,0-.1-.26.43.43,0,0,0-.28-.08.47.47,0,0,0-.18,0,.52.52,0,0,0-.14.08.19.19,0,0,1,0,0v2l-.19,0-.26,0-.24,0a.41.41,0,0,1-.18-.07.34.34,0,0,1-.11-.15.63.63,0,0,1,0-.24V57.93a.3.3,0,0,0-.11-.26.44.44,0,0,0-.27-.08.47.47,0,0,0-.19,0l-.13.06v2.11l-.19,0-.27,0-.24,0a.41.41,0,0,1-.18-.07.35.35,0,0,1-.11-.15.62.62,0,0,1,0-.24V57.55a.44.44,0,0,1,.07-.26.76.76,0,0,1,.19-.18,1.7,1.7,0,0,1,.51-.23A2.22,2.22,0,0,1,37.48,56.79Z"/><path class="cls-2" d="M42.7,59.89a2.1,2.1,0,0,1-.66-.1,1.5,1.5,0,0,1-.53-.3,1.37,1.37,0,0,1-.35-.5,1.77,1.77,0,0,1-.13-.7,1.64,1.64,0,0,1,.13-.68,1.35,1.35,0,0,1,.34-.47,1.37,1.37,0,0,1,.48-.27,1.8,1.8,0,0,1,.55-.09,1.68,1.68,0,0,1,.58.1,1.41,1.41,0,0,1,.45.26,1.17,1.17,0,0,1,.29.4,1.23,1.23,0,0,1,.1.51.41.41,0,0,1-.11.31.57.57,0,0,1-.32.14L42,58.74a.5.5,0,0,0,.27.3,1.06,1.06,0,0,0,.47.1,1.67,1.67,0,0,0,.46-.06,1.53,1.53,0,0,0,.36-.15.5.5,0,0,1,.16.17.44.44,0,0,1-.19.63,1.31,1.31,0,0,1-.43.14A3,3,0,0,1,42.7,59.89Zm-.17-2.36a.59.59,0,0,0-.25,0,.49.49,0,0,0-.27.29.69.69,0,0,0,0,.19l1-.17a.45.45,0,0,0-.13-.24A.44.44,0,0,0,42.53,57.54Z"/><path class="cls-2" d="M46.3,57.95a.34.34,0,0,0-.1-.27.44.44,0,0,0-.29-.09.92.92,0,0,0-.24,0,.59.59,0,0,0-.2.09v2.08l-.19,0-.27,0-.24,0a.41.41,0,0,1-.18-.07.35.35,0,0,1-.11-.15.62.62,0,0,1,0-.24v-1.8a.46.46,0,0,1,.07-.26.71.71,0,0,1,.19-.19,1.7,1.7,0,0,1,.51-.23,2.47,2.47,0,0,1,.69-.09,1.62,1.62,0,0,1,1,.3,1,1,0,0,1,.37.83v1.88l-.19,0-.27,0-.24,0a.41.41,0,0,1-.18-.07.35.35,0,0,1-.11-.15.62.62,0,0,1,0-.24Z"/><path class="cls-2" d="M49,58.79a.25.25,0,0,0,.1.22.5.5,0,0,0,.28.07h.19l.17,0a.75.75,0,0,1,.09.15.45.45,0,0,1,0,.2.46.46,0,0,1-.17.37,1,1,0,0,1-.6.14,1.23,1.23,0,0,1-.81-.24,1,1,0,0,1-.28-.78V56.3l.19,0,.26,0a.76.76,0,0,1,.41.09.43.43,0,0,1,.15.39v.38h.79a1.09,1.09,0,0,1,.07.17.7.7,0,0,1,0,.22.42.42,0,0,1-.09.3.33.33,0,0,1-.25.09H49Z"/></g></g></g></g></g></svg>