<svg width="20mm" height="25mm" xmlns="http://www.w3.org/2000/svg" viewBox="0 0 56.69 70.87"><defs><style>.cls-1{fill:#3c3e6a;}.cls-2{fill:#fff;}.cls-3{fill:#2ea992;}.cls-4{fill:#7bcbbc;}</style></defs><title>Fichier 19</title><g id="Calque_2" data-name="Calque 2"><g id="Calque_1-2" data-name="Calque 1"><g id="Cotés"><g id="Barre_latérale_droite"><rect class="cls-1" x="2.5" y="2.5" width="51.69" height="65.87"/><path class="cls-2" d="M51.69,5V65.87H5V5H51.69m5-5H0V70.87H56.69V0Z"/></g></g><g id="Petites_cases"><g id="ECG"><path class="cls-3" d="M21.22,12a.83.83,0,0,1,.89-.89h3.17a1.15,1.15,0,0,1,.12.28,1.24,1.24,0,0,1,.05.36.7.7,0,0,1-.16.52.57.57,0,0,1-.42.15h-2v.89H25a1.17,1.17,0,0,1,.12.27,1.19,1.19,0,0,1,.05.36.72.72,0,0,1-.15.52.56.56,0,0,1-.41.15H22.85v1h2.47a1.16,1.16,0,0,1,.12.28,1.26,1.26,0,0,1,.05.36.72.72,0,0,1-.16.52.56.56,0,0,1-.42.16h-2.8a.83.83,0,0,1-.89-.89Z"/><path class="cls-3" d="M29.39,12.33a1.42,1.42,0,0,0-1.13.45,1.88,1.88,0,0,0-.39,1.28,1.77,1.77,0,0,0,.44,1.29,1.56,1.56,0,0,0,1.18.45,1.84,1.84,0,0,0,.67-.11,4.52,4.52,0,0,0,.52-.24,1,1,0,0,1,.25.32,1,1,0,0,1,.09.44.79.79,0,0,1-.44.67,2.56,2.56,0,0,1-1.33.27A3.94,3.94,0,0,1,28,17a2.7,2.7,0,0,1-1-.56,2.65,2.65,0,0,1-.67-1,3.56,3.56,0,0,1-.24-1.39,3.45,3.45,0,0,1,.24-1.32,2.81,2.81,0,0,1,.64-1,2.7,2.7,0,0,1,1-.6,3.36,3.36,0,0,1,1.17-.2,2.69,2.69,0,0,1,1.37.29A.85.85,0,0,1,31,12a.75.75,0,0,1-.12.43,1,1,0,0,1-.29.29,3.12,3.12,0,0,0-.53-.28A1.74,1.74,0,0,0,29.39,12.33Z"/><path class="cls-3" d="M37.08,16a.75.75,0,0,1-.11.44,1.09,1.09,0,0,1-.34.28,2.13,2.13,0,0,1-.34.15l-.44.12-.5.08-.52,0a4.35,4.35,0,0,1-1.3-.19,3,3,0,0,1-1.05-.57,2.69,2.69,0,0,1-.71-.95,3.47,3.47,0,0,1,0-2.69,2.88,2.88,0,0,1,.75-1,3.14,3.14,0,0,1,1.07-.58A4,4,0,0,1,34.85,11a3,3,0,0,1,1.44.29.87.87,0,0,1,.53.76.75.75,0,0,1-.12.43,1,1,0,0,1-.29.29,4,4,0,0,0-.6-.28,2.25,2.25,0,0,0-.81-.14,1.76,1.76,0,0,0-1.28.46,1.7,1.7,0,0,0-.48,1.28,2,2,0,0,0,.13.76,1.45,1.45,0,0,0,.35.53,1.43,1.43,0,0,0,.51.31,1.85,1.85,0,0,0,.61.1,1.63,1.63,0,0,0,.37,0,1,1,0,0,0,.25-.09v-.9h-1a1.51,1.51,0,0,1-.11-.28,1.24,1.24,0,0,1-.05-.36.67.67,0,0,1,.16-.5.56.56,0,0,1,.41-.15h1.62a.55.55,0,0,1,.61.6Z"/><path class="cls-4" d="M20.42,12.85a.83.83,0,0,1,.89-.89h3.17a1.15,1.15,0,0,1,.12.28,1.24,1.24,0,0,1,.05.36.7.7,0,0,1-.16.52.57.57,0,0,1-.42.15H22v.89h2.16a1.17,1.17,0,0,1,.12.27,1.19,1.19,0,0,1,.05.36.72.72,0,0,1-.15.52.56.56,0,0,1-.41.15H22v1h2.47a1.16,1.16,0,0,1,.12.28,1.26,1.26,0,0,1,.05.36.72.72,0,0,1-.16.52.56.56,0,0,1-.42.16h-2.8a.83.83,0,0,1-.89-.89Z"/><path class="cls-4" d="M28.59,13.13a1.42,1.42,0,0,0-1.13.45,1.88,1.88,0,0,0-.39,1.28,1.77,1.77,0,0,0,.44,1.29,1.56,1.56,0,0,0,1.18.45,1.84,1.84,0,0,0,.67-.11,4.52,4.52,0,0,0,.52-.24,1,1,0,0,1,.25.32,1,1,0,0,1,.09.44.79.79,0,0,1-.44.67,2.56,2.56,0,0,1-1.33.27,3.94,3.94,0,0,1-1.21-.18,2.7,2.7,0,0,1-1-.56,2.65,2.65,0,0,1-.67-1,3.56,3.56,0,0,1-.24-1.39,3.45,3.45,0,0,1,.24-1.32,2.81,2.81,0,0,1,.64-1,2.7,2.7,0,0,1,1-.6,3.36,3.36,0,0,1,1.17-.2,2.69,2.69,0,0,1,1.37.29.85.85,0,0,1,.48.74.75.75,0,0,1-.12.43,1,1,0,0,1-.29.29,3.12,3.12,0,0,0-.53-.28A1.74,1.74,0,0,0,28.59,13.13Z"/><path class="cls-4" d="M36.28,16.82a.75.75,0,0,1-.11.44,1.09,1.09,0,0,1-.34.28,2.13,2.13,0,0,1-.34.15l-.44.12-.5.08-.52,0a4.35,4.35,0,0,1-1.3-.19,3,3,0,0,1-1.05-.57,2.69,2.69,0,0,1-.71-.95,3.47,3.47,0,0,1,0-2.69,2.88,2.88,0,0,1,.75-1A3.14,3.14,0,0,1,32.82,12,4,4,0,0,1,34,11.79a3,3,0,0,1,1.44.29.87.87,0,0,1,.53.76.75.75,0,0,1-.12.43,1,1,0,0,1-.29.29,4,4,0,0,0-.6-.28,2.25,2.25,0,0,0-.81-.14,1.76,1.76,0,0,0-1.28.46,1.7,1.7,0,0,0-.47,1.28,2,2,0,0,0,.13.76,1.45,1.45,0,0,0,.35.53,1.43,1.43,0,0,0,.51.31,1.85,1.85,0,0,0,.61.1,1.63,1.63,0,0,0,.37,0,1,1,0,0,0,.25-.09v-.9h-1a1.51,1.51,0,0,1-.11-.28,1.24,1.24,0,0,1-.05-.36.67.67,0,0,1,.16-.5.56.56,0,0,1,.41-.15h1.62a.55.55,0,0,1,.61.6Z"/><path class="cls-2" d="M19.62,13.65a.83.83,0,0,1,.89-.89h3.17a1.15,1.15,0,0,1,.12.28,1.24,1.24,0,0,1,.05.36.7.7,0,0,1-.16.52.57.57,0,0,1-.42.15h-2V15h2.16a1.17,1.17,0,0,1,.12.27,1.19,1.19,0,0,1,.05.36.72.72,0,0,1-.15.52.56.56,0,0,1-.41.15H21.25v1h2.47a1.16,1.16,0,0,1,.12.28,1.26,1.26,0,0,1,.05.36.72.72,0,0,1-.16.52.56.56,0,0,1-.42.16h-2.8a.83.83,0,0,1-.89-.89Z"/><path class="cls-2" d="M27.79,13.93a1.42,1.42,0,0,0-1.13.45,1.88,1.88,0,0,0-.39,1.28,1.77,1.77,0,0,0,.44,1.29,1.56,1.56,0,0,0,1.18.45,1.84,1.84,0,0,0,.67-.11,4.52,4.52,0,0,0,.52-.24,1,1,0,0,1,.25.32,1,1,0,0,1,.09.44.79.79,0,0,1-.44.67,2.56,2.56,0,0,1-1.33.27,3.94,3.94,0,0,1-1.21-.18,2.7,2.7,0,0,1-1-.56,2.65,2.65,0,0,1-.67-1,3.56,3.56,0,0,1-.24-1.39,3.45,3.45,0,0,1,.24-1.32,2.81,2.81,0,0,1,.64-1,2.7,2.7,0,0,1,1-.6,3.36,3.36,0,0,1,1.17-.2,2.69,2.69,0,0,1,1.37.29.85.85,0,0,1,.48.74.75.75,0,0,1-.12.43,1,1,0,0,1-.29.29,3.12,3.12,0,0,0-.53-.28A1.74,1.74,0,0,0,27.79,13.93Z"/><path class="cls-2" d="M35.48,17.62a.75.75,0,0,1-.11.44,1.09,1.09,0,0,1-.34.28,2.13,2.13,0,0,1-.34.15l-.44.12-.5.08-.52,0a4.35,4.35,0,0,1-1.3-.19A3,3,0,0,1,30.88,18a2.69,2.69,0,0,1-.71-.95,3.47,3.47,0,0,1,0-2.69,2.88,2.88,0,0,1,.75-1A3.14,3.14,0,0,1,32,12.78a4,4,0,0,1,1.23-.19,3,3,0,0,1,1.44.29.87.87,0,0,1,.53.76.75.75,0,0,1-.12.43,1,1,0,0,1-.29.29,4,4,0,0,0-.6-.28,2.25,2.25,0,0,0-.81-.14,1.76,1.76,0,0,0-1.28.46,1.7,1.7,0,0,0-.48,1.28,2,2,0,0,0,.13.76,1.45,1.45,0,0,0,.35.53,1.43,1.43,0,0,0,.51.31,1.85,1.85,0,0,0,.61.1,1.63,1.63,0,0,0,.37,0,1,1,0,0,0,.25-.09v-.9h-1a1.51,1.51,0,0,1-.11-.28,1.24,1.24,0,0,1-.05-.36.67.67,0,0,1,.16-.5.56.56,0,0,1,.41-.15h1.62a.55.55,0,0,1,.61.6Z"/></g></g><g id="Modules"><g id="Module_droit"><g id="Economie"><path class="cls-2" d="M15.31,56.68a.52.52,0,0,1,.56-.56h2a.69.69,0,0,1,.08.17.76.76,0,0,1,0,.23.44.44,0,0,1-.1.32.36.36,0,0,1-.26.1H16.33v.56h1.35a.78.78,0,0,1,.11.4.45.45,0,0,1-.1.32.35.35,0,0,1-.26.1h-1.1V59h1.54a.77.77,0,0,1,.08.17.8.8,0,0,1,0,.23.45.45,0,0,1-.1.33.35.35,0,0,1-.26.1H15.87a.52.52,0,0,1-.56-.56Z"/><path class="cls-2" d="M20.08,57.56a.84.84,0,0,0-.29,0,.66.66,0,0,0-.23.14.7.7,0,0,0-.16.23.81.81,0,0,0-.06.32.7.7,0,0,0,.21.56.76.76,0,0,0,.52.19,1,1,0,0,0,.31,0l.23-.09a.62.62,0,0,1,.18.18.45.45,0,0,1,.06.24.42.42,0,0,1-.23.38,1.31,1.31,0,0,1-.65.13,2,2,0,0,1-.68-.11,1.54,1.54,0,0,1-.53-.31,1.39,1.39,0,0,1-.34-.48,1.58,1.58,0,0,1-.12-.62,1.71,1.71,0,0,1,.13-.69,1.33,1.33,0,0,1,.35-.49,1.49,1.49,0,0,1,.51-.29,2,2,0,0,1,.62-.1,1.2,1.2,0,0,1,.67.16.47.47,0,0,1,.23.4.44.44,0,0,1-.05.21.75.75,0,0,1-.13.17l-.25-.09A1,1,0,0,0,20.08,57.56Z"/><path class="cls-2" d="M24.3,58.3a1.8,1.8,0,0,1-.11.66,1.34,1.34,0,0,1-.32.49,1.36,1.36,0,0,1-.49.3,1.92,1.92,0,0,1-.64.1,1.8,1.8,0,0,1-.64-.11,1.41,1.41,0,0,1-.5-.31,1.39,1.39,0,0,1-.32-.49,1.88,1.88,0,0,1,0-1.29,1.38,1.38,0,0,1,.32-.49,1.4,1.4,0,0,1,.5-.31,1.8,1.8,0,0,1,.64-.11,1.78,1.78,0,0,1,.64.11,1.45,1.45,0,0,1,.49.31,1.37,1.37,0,0,1,.32.49A1.71,1.71,0,0,1,24.3,58.3Zm-2.1,0a1,1,0,0,0,.14.56.46.46,0,0,0,.39.19.44.44,0,0,0,.39-.2,1,1,0,0,0,.13-.56,1,1,0,0,0-.14-.56.49.49,0,0,0-.78,0A1,1,0,0,0,22.2,58.3Z"/><path class="cls-2" d="M26.64,57.91a.33.33,0,0,0-.11-.27.43.43,0,0,0-.29-.09,1,1,0,0,0-.24,0,.6.6,0,0,0-.2.09v2.08l-.19,0-.27,0-.24,0a.4.4,0,0,1-.18-.07.35.35,0,0,1-.11-.15.65.65,0,0,1,0-.24v-1.8a.46.46,0,0,1,.07-.26.73.73,0,0,1,.19-.19,1.72,1.72,0,0,1,.51-.23,2.45,2.45,0,0,1,.69-.09,1.62,1.62,0,0,1,1,.3,1,1,0,0,1,.37.83v1.88l-.19,0-.27,0-.24,0a.4.4,0,0,1-.18-.07.34.34,0,0,1-.11-.15.63.63,0,0,1,0-.24Z"/><path class="cls-2" d="M31.31,58.3a1.8,1.8,0,0,1-.11.66,1.34,1.34,0,0,1-.32.49,1.36,1.36,0,0,1-.49.3,1.92,1.92,0,0,1-.64.1,1.8,1.8,0,0,1-.64-.11,1.41,1.41,0,0,1-.5-.31,1.39,1.39,0,0,1-.32-.49,1.88,1.88,0,0,1,0-1.29,1.38,1.38,0,0,1,.32-.49,1.4,1.4,0,0,1,.5-.31,1.8,1.8,0,0,1,.64-.11,1.78,1.78,0,0,1,.64.11,1.45,1.45,0,0,1,.49.31,1.37,1.37,0,0,1,.32.49A1.71,1.71,0,0,1,31.31,58.3Zm-2.1,0a1,1,0,0,0,.14.56.46.46,0,0,0,.39.19.44.44,0,0,0,.39-.2,1,1,0,0,0,.13-.56,1,1,0,0,0-.14-.56.49.49,0,0,0-.78,0A1,1,0,0,0,29.21,58.3Z"/><path class="cls-2" d="M33.21,56.75a1.73,1.73,0,0,1,.48.07,1.19,1.19,0,0,1,.41.21,1.8,1.8,0,0,1,.41-.2,1.82,1.82,0,0,1,1,0,1.14,1.14,0,0,1,.39.19.91.91,0,0,1,.27.34,1.2,1.2,0,0,1,.1.52v1.89l-.19,0-.27,0-.24,0a.4.4,0,0,1-.18-.07.34.34,0,0,1-.11-.15.63.63,0,0,1,0-.24V57.89a.31.31,0,0,0-.1-.26.43.43,0,0,0-.28-.08.48.48,0,0,0-.18,0l-.14.08a.19.19,0,0,1,0,0v2l-.2,0-.26,0-.24,0a.4.4,0,0,1-.18-.07.34.34,0,0,1-.11-.15.63.63,0,0,1,0-.24V57.89a.3.3,0,0,0-.11-.26.44.44,0,0,0-.27-.08.48.48,0,0,0-.19,0l-.13.06v2.11l-.19,0-.27,0-.24,0a.4.4,0,0,1-.18-.07.35.35,0,0,1-.11-.15.65.65,0,0,1,0-.24V57.52a.43.43,0,0,1,.07-.26.78.78,0,0,1,.19-.18,1.73,1.73,0,0,1,.51-.23A2.21,2.21,0,0,1,33.21,56.75Z"/><path class="cls-2" d="M36.86,56a.53.53,0,0,1,.15-.38.6.6,0,0,1,.81,0,.56.56,0,0,1,0,.77.6.6,0,0,1-.81,0A.53.53,0,0,1,36.86,56Zm1.07,3.72-.2,0-.26,0-.24,0a.4.4,0,0,1-.18-.07.35.35,0,0,1-.11-.15.63.63,0,0,1,0-.24V56.89l.2,0,.26,0,.24,0a.41.41,0,0,1,.18.07.35.35,0,0,1,.11.15.65.65,0,0,1,0,.24Z"/><path class="cls-2" d="M40.12,59.86a2.11,2.11,0,0,1-.66-.1,1.49,1.49,0,0,1-.53-.3,1.37,1.37,0,0,1-.35-.5,1.75,1.75,0,0,1-.13-.7,1.63,1.63,0,0,1,.13-.68,1.34,1.34,0,0,1,.34-.47,1.35,1.35,0,0,1,.48-.27,1.79,1.79,0,0,1,.55-.09,1.66,1.66,0,0,1,.58.1,1.39,1.39,0,0,1,.45.26,1.17,1.17,0,0,1,.29.4,1.23,1.23,0,0,1,.11.51.41.41,0,0,1-.11.31.57.57,0,0,1-.32.14l-1.48.22a.5.5,0,0,0,.27.3,1.06,1.06,0,0,0,.47.1,1.68,1.68,0,0,0,.46-.06,1.47,1.47,0,0,0,.36-.15.5.5,0,0,1,.16.17.44.44,0,0,1-.19.63,1.33,1.33,0,0,1-.43.14A3.05,3.05,0,0,1,40.12,59.86Zm-.17-2.36a.59.59,0,0,0-.25,0,.49.49,0,0,0-.27.29.67.67,0,0,0,0,.19l1-.17a.46.46,0,0,0-.13-.24A.44.44,0,0,0,39.95,57.5Z"/></g></g></g></g></g></svg>