<svg width="20mm" height="25mm" xmlns="http://www.w3.org/2000/svg" viewBox="0 0 56.69 70.87"><defs><style>.cls-1{fill:#3c3e6a;}.cls-2{fill:#fff;}.cls-3{fill:#ef2d6d;}.cls-4{fill:#f17da3;}</style></defs><title>Fichier 9</title><g id="Calque_2" ><g id="Calque_1-2" ><g id="Cotés"><g id="Barre_latérale_haut"><rect class="cls-1" x="2.5" y="2.5" width="51.69" height="65.87"/><path class="cls-2" d="M51.69,5V65.87H5V5H51.69m5-5H0V70.87H56.69V0Z"/></g></g><g id="Petites_cases"><g id="MEDIA"><path class="cls-3" d="M19.53,15.52a.92.92,0,0,1-.32.17,1.49,1.49,0,0,1-.46.06,1.61,1.61,0,0,1-.57-.09.46.46,0,0,1-.29-.3L17.45,14q-.17-.52-.27-.92h0q0,.57,0,1t0,.91q0,.44,0,.89t0,1a1.74,1.74,0,0,1-.33.08,2.42,2.42,0,0,1-.4,0,1.33,1.33,0,0,1-.66-.13.51.51,0,0,1-.24-.49l.28-4.9a.91.91,0,0,1,.34-.27,1.52,1.52,0,0,1,.73-.14,1.67,1.67,0,0,1,.8.16.94.94,0,0,1,.42.51l.19.53.2.61.2.63.17.56h0q.23-.81.46-1.56t.42-1.26a1.52,1.52,0,0,1,.37-.13,2.22,2.22,0,0,1,.5-.05,1.83,1.83,0,0,1,.77.14.55.55,0,0,1,.35.4q0,.19.08.59t.09.9q0,.5.1,1.06L22,15.24q0,.51.07.94c0,.29,0,.5,0,.66a1.26,1.26,0,0,1-.34.14,2,2,0,0,1-.46,0,1.37,1.37,0,0,1-.61-.12.53.53,0,0,1-.27-.49q-.06-1-.07-1.88t0-1.4h0q-.1.38-.28.94T19.53,15.52Z"/><path class="cls-3" d="M23.09,12a.83.83,0,0,1,.89-.89h3.17a1.17,1.17,0,0,1,.12.28,1.24,1.24,0,0,1,.05.36.7.7,0,0,1-.16.52.57.57,0,0,1-.42.15h-2v.89h2.16a1.17,1.17,0,0,1,.12.27,1.19,1.19,0,0,1,.05.36.72.72,0,0,1-.15.52.56.56,0,0,1-.41.15H24.73v1h2.47a1.16,1.16,0,0,1,.12.28,1.26,1.26,0,0,1,.05.36.72.72,0,0,1-.16.52.56.56,0,0,1-.42.16H24a.83.83,0,0,1-.89-.89Zm2.59-3.24a1.11,1.11,0,0,1,.67.23.58.58,0,0,1,.2.44.61.61,0,0,1-.16.44,1.43,1.43,0,0,1-.49.3l-1.32.52a.85.85,0,0,1-.45-.23.54.54,0,0,1-.17-.38A.51.51,0,0,1,24,9.82a.52.52,0,0,1,.23-.2Z"/><path class="cls-3" d="M30.56,17.1h-.37l-.44,0L29.3,17a2.26,2.26,0,0,1-.42-.12.71.71,0,0,1-.53-.7V11.68a.42.42,0,0,1,.11-.31.79.79,0,0,1,.3-.18,4.06,4.06,0,0,1,.87-.18q.46,0,.83,0a4.75,4.75,0,0,1,1.36.18,2.79,2.79,0,0,1,1,.56,2.53,2.53,0,0,1,.68,1A3.53,3.53,0,0,1,33.79,14a3.57,3.57,0,0,1-.23,1.34,2.58,2.58,0,0,1-.66,1,2.75,2.75,0,0,1-1,.58A4.26,4.26,0,0,1,30.56,17.1ZM30,15.7l.26,0h.29a1.8,1.8,0,0,0,.6-.1,1.21,1.21,0,0,0,.47-.3,1.37,1.37,0,0,0,.31-.52,2.39,2.39,0,0,0,.11-.77,1.86,1.86,0,0,0-.4-1.3,1.4,1.4,0,0,0-1.08-.44h-.27l-.28,0Z"/><path class="cls-3" d="M36.43,16.91,36.1,17l-.45,0a2,2,0,0,1-.39,0,.68.68,0,0,1-.28-.12.52.52,0,0,1-.17-.24,1.17,1.17,0,0,1-.06-.4V11.13l.34-.05a3,3,0,0,1,.44,0,2,2,0,0,1,.39,0,.7.7,0,0,1,.28.12.52.52,0,0,1,.17.24,1.17,1.17,0,0,1,.06.4Z"/><path class="cls-3" d="M38.91,11.3a2,2,0,0,1,.49-.18,2.63,2.63,0,0,1,.67-.09,2.4,2.4,0,0,1,.85.14.74.74,0,0,1,.48.44q.17.5.37,1.16t.4,1.37l.39,1.39.34,1.21a.78.78,0,0,1-.35.22A1.64,1.64,0,0,1,42,17a1.72,1.72,0,0,1-.39,0,.69.69,0,0,1-.26-.12.56.56,0,0,1-.16-.2,1.72,1.72,0,0,1-.11-.29l-.17-.66H39.18l-.15.6-.15.59-.28.08a1.69,1.69,0,0,1-.36,0,1.26,1.26,0,0,1-.73-.17.54.54,0,0,1-.24-.47,1,1,0,0,1,0-.27l.09-.32q.07-.26.19-.64l.26-.83q.14-.45.31-.92l.31-.89.26-.74Zm1.15,1.24-.3.9q-.17.49-.3,1h1.19q-.13-.52-.27-1l-.25-.89Z"/><path class="cls-4" d="M18.73,16.32a.92.92,0,0,1-.32.17,1.49,1.49,0,0,1-.46.06,1.61,1.61,0,0,1-.57-.09.46.46,0,0,1-.29-.3l-.44-1.37q-.17-.52-.27-.92h0q0,.57,0,1t0,.91q0,.44,0,.89t0,1a1.74,1.74,0,0,1-.33.08,2.42,2.42,0,0,1-.4,0,1.33,1.33,0,0,1-.66-.13.51.51,0,0,1-.24-.49l.28-4.9A.91.91,0,0,1,15.2,12a1.52,1.52,0,0,1,.73-.14,1.67,1.67,0,0,1,.8.16.94.94,0,0,1,.42.51l.19.53.2.61.2.63.17.56h0q.23-.81.46-1.56t.42-1.26a1.52,1.52,0,0,1,.37-.13,2.22,2.22,0,0,1,.5-.05,1.83,1.83,0,0,1,.77.14.55.55,0,0,1,.35.4q0,.19.08.59t.09.9q0,.5.1,1.06L21.19,16q0,.51.07.94c0,.29,0,.5,0,.66a1.26,1.26,0,0,1-.34.14,2,2,0,0,1-.46,0,1.37,1.37,0,0,1-.61-.12.53.53,0,0,1-.27-.49q-.06-1-.07-1.88t0-1.4h0q-.1.38-.28.94T18.73,16.32Z"/><path class="cls-4" d="M22.29,12.82a.83.83,0,0,1,.89-.89h3.17a1.17,1.17,0,0,1,.12.28,1.24,1.24,0,0,1,.05.36.7.7,0,0,1-.16.52.57.57,0,0,1-.42.15h-2v.89h2.16a1.17,1.17,0,0,1,.12.27,1.19,1.19,0,0,1,.05.36.72.72,0,0,1-.15.52.56.56,0,0,1-.41.15H23.93v1h2.47a1.16,1.16,0,0,1,.12.28,1.26,1.26,0,0,1,.05.36.72.72,0,0,1-.16.52.56.56,0,0,1-.42.16h-2.8a.83.83,0,0,1-.89-.89Zm2.59-3.24a1.11,1.11,0,0,1,.67.23.58.58,0,0,1,.2.44.61.61,0,0,1-.16.44,1.43,1.43,0,0,1-.49.3l-1.32.52a.85.85,0,0,1-.45-.23.54.54,0,0,1-.17-.38.51.51,0,0,1,.07-.26.52.52,0,0,1,.23-.2Z"/><path class="cls-4" d="M29.76,17.9h-.37l-.44,0-.45-.07a2.26,2.26,0,0,1-.42-.12.71.71,0,0,1-.53-.7V12.48a.42.42,0,0,1,.11-.31A.79.79,0,0,1,28,12a4.06,4.06,0,0,1,.87-.18q.46,0,.83,0a4.75,4.75,0,0,1,1.36.18,2.79,2.79,0,0,1,1,.56,2.53,2.53,0,0,1,.68,1A3.53,3.53,0,0,1,33,14.83a3.57,3.57,0,0,1-.23,1.34,2.58,2.58,0,0,1-.66,1,2.75,2.75,0,0,1-1,.58A4.26,4.26,0,0,1,29.76,17.9Zm-.54-1.4.26,0h.29a1.8,1.8,0,0,0,.6-.1,1.21,1.21,0,0,0,.47-.3,1.37,1.37,0,0,0,.31-.52,2.39,2.39,0,0,0,.11-.77,1.86,1.86,0,0,0-.4-1.3,1.4,1.4,0,0,0-1.08-.44h-.27l-.28,0Z"/><path class="cls-4" d="M35.63,17.71l-.33.06-.45,0a2,2,0,0,1-.39,0,.68.68,0,0,1-.28-.12A.52.52,0,0,1,34,17.4a1.17,1.17,0,0,1-.06-.4V11.93l.34-.05a3,3,0,0,1,.44,0,2,2,0,0,1,.39,0,.7.7,0,0,1,.28.12.52.52,0,0,1,.17.24,1.17,1.17,0,0,1,.06.4Z"/><path class="cls-4" d="M38.11,12.1a2,2,0,0,1,.49-.18,2.63,2.63,0,0,1,.67-.09,2.4,2.4,0,0,1,.85.14.74.74,0,0,1,.48.44q.17.5.37,1.16t.4,1.37l.39,1.39.34,1.21a.78.78,0,0,1-.35.22,1.64,1.64,0,0,1-.55.08,1.72,1.72,0,0,1-.39,0,.69.69,0,0,1-.26-.12.56.56,0,0,1-.16-.2,1.72,1.72,0,0,1-.11-.29l-.17-.66H38.38l-.15.6-.15.59-.28.08a1.69,1.69,0,0,1-.36,0,1.26,1.26,0,0,1-.72-.17.54.54,0,0,1-.24-.47,1,1,0,0,1,0-.27l.09-.32q.07-.26.19-.64l.26-.83q.14-.45.31-.92l.31-.89.26-.74Zm1.15,1.24-.3.9q-.17.49-.3,1h1.19q-.13-.52-.27-1l-.25-.89Z"/><path class="cls-2" d="M17.93,17.12a.92.92,0,0,1-.32.17,1.49,1.49,0,0,1-.46.06,1.61,1.61,0,0,1-.57-.09.46.46,0,0,1-.29-.3l-.44-1.37q-.17-.52-.27-.92h0q0,.57,0,1t0,.91q0,.44,0,.89t0,1a1.74,1.74,0,0,1-.33.08,2.42,2.42,0,0,1-.4,0,1.33,1.33,0,0,1-.66-.13.51.51,0,0,1-.24-.49l.28-4.9a.91.91,0,0,1,.34-.27,1.52,1.52,0,0,1,.73-.14,1.67,1.67,0,0,1,.8.16.94.94,0,0,1,.42.51l.19.53.2.61.2.63.17.56h0q.23-.81.46-1.56T18,12.87a1.52,1.52,0,0,1,.37-.13,2.22,2.22,0,0,1,.5-.05,1.83,1.83,0,0,1,.77.14.55.55,0,0,1,.35.4q0,.19.08.59t.09.9q0,.5.1,1.06l.09,1.07q0,.51.07.94c0,.29,0,.5,0,.66a1.26,1.26,0,0,1-.34.14,2,2,0,0,1-.46,0,1.37,1.37,0,0,1-.61-.12.53.53,0,0,1-.27-.49q-.06-1-.07-1.88t0-1.4h0q-.1.38-.28.94T17.93,17.12Z"/><path class="cls-2" d="M21.49,13.62a.83.83,0,0,1,.89-.89h3.17a1.17,1.17,0,0,1,.12.28,1.24,1.24,0,0,1,.05.36.7.7,0,0,1-.16.52.57.57,0,0,1-.42.15h-2v.89h2.16a1.17,1.17,0,0,1,.12.27,1.19,1.19,0,0,1,.05.36.72.72,0,0,1-.15.52.56.56,0,0,1-.41.15H23.13v1h2.47a1.16,1.16,0,0,1,.12.28,1.26,1.26,0,0,1,.05.36.72.72,0,0,1-.16.52.56.56,0,0,1-.42.16h-2.8a.83.83,0,0,1-.89-.89Zm2.59-3.24a1.11,1.11,0,0,1,.67.23A.58.58,0,0,1,25,11a.61.61,0,0,1-.16.44,1.43,1.43,0,0,1-.49.3L23,12.3a.85.85,0,0,1-.45-.23.54.54,0,0,1-.17-.38.51.51,0,0,1,.07-.26.52.52,0,0,1,.23-.2Z"/><path class="cls-2" d="M29,18.7h-.37l-.44,0-.45-.07a2.26,2.26,0,0,1-.42-.12.71.71,0,0,1-.53-.7V13.28a.42.42,0,0,1,.11-.31.79.79,0,0,1,.3-.18,4.06,4.06,0,0,1,.87-.18q.46,0,.83,0a4.75,4.75,0,0,1,1.36.18,2.79,2.79,0,0,1,1,.56,2.53,2.53,0,0,1,.68,1,3.53,3.53,0,0,1,.24,1.36A3.57,3.57,0,0,1,32,17a2.58,2.58,0,0,1-.66,1,2.75,2.75,0,0,1-1,.58A4.26,4.26,0,0,1,29,18.7Zm-.54-1.4.26,0H29a1.8,1.8,0,0,0,.6-.1A1.21,1.21,0,0,0,30,17a1.37,1.37,0,0,0,.31-.52,2.39,2.39,0,0,0,.11-.77,1.86,1.86,0,0,0-.4-1.3A1.4,1.4,0,0,0,29,13.92h-.27l-.28,0Z"/><path class="cls-2" d="M34.83,18.51l-.33.06-.45,0a2,2,0,0,1-.39,0,.68.68,0,0,1-.28-.12.52.52,0,0,1-.17-.24,1.17,1.17,0,0,1-.06-.4V12.73l.34-.05a3,3,0,0,1,.44,0,2,2,0,0,1,.39,0,.7.7,0,0,1,.28.12.52.52,0,0,1,.17.24,1.17,1.17,0,0,1,.06.4Z"/><path class="cls-2" d="M37.31,12.9a2,2,0,0,1,.49-.18,2.63,2.63,0,0,1,.67-.09,2.4,2.4,0,0,1,.85.14.74.74,0,0,1,.48.44q.17.5.37,1.16t.4,1.37L41,17.13l.34,1.21a.78.78,0,0,1-.35.22,1.64,1.64,0,0,1-.55.08,1.72,1.72,0,0,1-.39,0,.69.69,0,0,1-.26-.12.56.56,0,0,1-.16-.2,1.72,1.72,0,0,1-.11-.29l-.17-.66H37.58l-.15.6-.15.59-.28.08a1.69,1.69,0,0,1-.36,0,1.26,1.26,0,0,1-.73-.17.54.54,0,0,1-.24-.47,1,1,0,0,1,0-.27l.09-.32q.07-.26.19-.64l.26-.83q.14-.45.31-.92l.31-.89.26-.74Zm1.15,1.24-.3.9q-.17.49-.3,1h1.19q-.13-.52-.27-1l-.25-.89Z"/></g></g><g id="Modules"><g id="Menu_haut"><g id="Multimédia"><path class="cls-2" d="M15.81,58.87a.58.58,0,0,1-.2.1.93.93,0,0,1-.29,0A1,1,0,0,1,15,59a.29.29,0,0,1-.18-.19l-.28-.85c-.07-.22-.13-.41-.17-.57h0q0,.35,0,.65t0,.57c0,.18,0,.37,0,.56s0,.4,0,.62l-.2.05-.25,0a.83.83,0,0,1-.41-.08.32.32,0,0,1-.15-.31l.17-3.06a.56.56,0,0,1,.21-.17,1,1,0,0,1,.46-.09,1,1,0,0,1,.5.1.59.59,0,0,1,.26.32l.12.33.13.38.12.39.11.35h0q.14-.5.29-1t.26-.79a1,1,0,0,1,.23-.08,1.38,1.38,0,0,1,.31,0,1.15,1.15,0,0,1,.48.09.34.34,0,0,1,.22.25c0,.08,0,.2.05.37s0,.35.06.56,0,.43.06.66,0,.46.06.67,0,.41,0,.59,0,.31,0,.41a.79.79,0,0,1-.21.09,1.24,1.24,0,0,1-.29,0,.85.85,0,0,1-.38-.08.33.33,0,0,1-.17-.31q0-.65,0-1.18t0-.88h0c0,.16-.1.35-.17.59S15.92,58.5,15.81,58.87Z"/><path class="cls-2" d="M18,56.89l.19,0,.27,0,.24,0a.4.4,0,0,1,.18.07.34.34,0,0,1,.11.15.63.63,0,0,1,0,.24V58.6a.45.45,0,0,0,.12.35.51.51,0,0,0,.35.1l.23,0,.13,0v-2.1l.19,0,.27,0,.24,0a.41.41,0,0,1,.18.07.34.34,0,0,1,.11.15.63.63,0,0,1,0,.24v1.82a.49.49,0,0,1-.25.45,1.64,1.64,0,0,1-.5.2,2.74,2.74,0,0,1-.63.07,2.34,2.34,0,0,1-.6-.07,1.33,1.33,0,0,1-.47-.22,1,1,0,0,1-.31-.39A1.37,1.37,0,0,1,18,58.6Z"/><path class="cls-2" d="M22.51,59.75l-.19,0-.26,0-.24,0a.4.4,0,0,1-.18-.07.34.34,0,0,1-.11-.15.63.63,0,0,1,0-.24V55.85l.2,0,.26,0,.24,0a.41.41,0,0,1,.18.07.34.34,0,0,1,.11.15.63.63,0,0,1,0,.24Z"/><path class="cls-2" d="M24.18,58.76a.25.25,0,0,0,.1.22.5.5,0,0,0,.28.07l.19,0,.17,0a.8.8,0,0,1,.09.15.46.46,0,0,1,0,.2.46.46,0,0,1-.17.37,1,1,0,0,1-.6.14,1.23,1.23,0,0,1-.81-.24,1,1,0,0,1-.29-.78V56.26l.19,0,.26,0a.76.76,0,0,1,.41.09.43.43,0,0,1,.15.39v.38H25a1,1,0,0,1,.07.17.68.68,0,0,1,0,.22.41.41,0,0,1-.09.3.34.34,0,0,1-.25.09h-.55Z"/><path class="cls-2" d="M25.53,56a.53.53,0,0,1,.15-.38.6.6,0,0,1,.81,0,.56.56,0,0,1,0,.77.6.6,0,0,1-.81,0A.53.53,0,0,1,25.53,56Zm1.07,3.72-.2,0-.26,0-.24,0a.4.4,0,0,1-.18-.07.35.35,0,0,1-.11-.15.63.63,0,0,1,0-.24V56.89l.2,0,.26,0,.24,0a.41.41,0,0,1,.18.07.35.35,0,0,1,.11.15.65.65,0,0,1,0,.24Z"/><path class="cls-2" d="M28.65,56.75a1.73,1.73,0,0,1,.48.07,1.19,1.19,0,0,1,.41.21,1.8,1.8,0,0,1,.41-.2,1.82,1.82,0,0,1,1,0,1.14,1.14,0,0,1,.39.19.91.91,0,0,1,.27.34,1.2,1.2,0,0,1,.1.52v1.89l-.19,0-.27,0-.24,0a.4.4,0,0,1-.18-.07.34.34,0,0,1-.11-.15.63.63,0,0,1,0-.24V57.89a.31.31,0,0,0-.1-.26.43.43,0,0,0-.28-.08.48.48,0,0,0-.18,0l-.14.08a.19.19,0,0,1,0,0v2l-.2,0-.26,0-.24,0a.4.4,0,0,1-.18-.07.34.34,0,0,1-.11-.15.63.63,0,0,1,0-.24V57.89a.3.3,0,0,0-.11-.26.44.44,0,0,0-.27-.08.48.48,0,0,0-.19,0l-.13.06v2.11l-.19,0-.27,0-.24,0a.4.4,0,0,1-.18-.07.35.35,0,0,1-.11-.15.65.65,0,0,1,0-.24V57.52a.43.43,0,0,1,.07-.26.78.78,0,0,1,.19-.18,1.73,1.73,0,0,1,.51-.23A2.21,2.21,0,0,1,28.65,56.75Z"/><path class="cls-2" d="M33.87,59.86a2.11,2.11,0,0,1-.66-.1,1.49,1.49,0,0,1-.53-.3,1.37,1.37,0,0,1-.35-.5,1.75,1.75,0,0,1-.13-.7,1.63,1.63,0,0,1,.13-.68,1.34,1.34,0,0,1,.34-.47,1.35,1.35,0,0,1,.48-.27,1.79,1.79,0,0,1,.55-.09,1.66,1.66,0,0,1,.58.1,1.39,1.39,0,0,1,.45.26,1.17,1.17,0,0,1,.29.4,1.23,1.23,0,0,1,.11.51.41.41,0,0,1-.11.31.57.57,0,0,1-.32.14l-1.48.22a.5.5,0,0,0,.27.3,1.06,1.06,0,0,0,.47.1,1.68,1.68,0,0,0,.46-.06,1.47,1.47,0,0,0,.36-.15.5.5,0,0,1,.16.17.44.44,0,0,1-.19.63,1.33,1.33,0,0,1-.43.14A3.05,3.05,0,0,1,33.87,59.86Zm-.06-4.56a.7.7,0,0,1,.45.12.37.37,0,0,1,.14.29.4.4,0,0,1-.08.26.87.87,0,0,1-.28.21l-.77.41a.49.49,0,0,1-.31-.14.38.38,0,0,1-.13-.27.31.31,0,0,1,0-.14.36.36,0,0,1,.12-.13Zm-.11,2.2a.59.59,0,0,0-.25,0,.49.49,0,0,0-.27.29.67.67,0,0,0,0,.19l1-.17a.46.46,0,0,0-.13-.24A.44.44,0,0,0,33.7,57.5Z"/><path class="cls-2" d="M35.5,58.3a1.79,1.79,0,0,1,.12-.69,1.32,1.32,0,0,1,.33-.48,1.38,1.38,0,0,1,.5-.29,2,2,0,0,1,.62-.09l.23,0,.19.05v-1l.19,0,.27,0,.24,0a.4.4,0,0,1,.18.07.33.33,0,0,1,.11.15.7.7,0,0,1,0,.24v2.84a.51.51,0,0,1-.26.45,1.82,1.82,0,0,1-.45.2,2.33,2.33,0,0,1-1.33,0,1.41,1.41,0,0,1-.52-.31,1.34,1.34,0,0,1-.32-.49A1.76,1.76,0,0,1,35.5,58.3Zm1.7-.75a.65.65,0,0,0-.5.19.8.8,0,0,0-.17.56.85.85,0,0,0,.16.56.58.58,0,0,0,.47.19.54.54,0,0,0,.2,0,.44.44,0,0,0,.13-.07V57.62A.55.55,0,0,0,37.2,57.55Z"/><path class="cls-2" d="M39.12,56a.53.53,0,0,1,.15-.38.6.6,0,0,1,.81,0,.56.56,0,0,1,0,.77.6.6,0,0,1-.81,0A.53.53,0,0,1,39.12,56Zm1.07,3.72-.2,0-.26,0-.24,0a.4.4,0,0,1-.18-.07.35.35,0,0,1-.11-.15.63.63,0,0,1,0-.24V56.89l.2,0,.26,0,.24,0a.41.41,0,0,1,.18.07.35.35,0,0,1,.11.15.65.65,0,0,1,0,.24Z"/><path class="cls-2" d="M42,56.75a2.46,2.46,0,0,1,.59.07,1.31,1.31,0,0,1,.46.2.9.9,0,0,1,.29.34,1.09,1.09,0,0,1,.1.49V59.2a.37.37,0,0,1-.09.25.88.88,0,0,1-.21.17,2.14,2.14,0,0,1-1.1.23,2.5,2.5,0,0,1-.57-.06,1.36,1.36,0,0,1-.44-.18.83.83,0,0,1-.28-.31.91.91,0,0,1-.1-.43.81.81,0,0,1,.25-.64A1.33,1.33,0,0,1,41.7,58l.79-.08v0a.26.26,0,0,0-.15-.25,1,1,0,0,0-.44-.08,2,2,0,0,0-.44,0,2.36,2.36,0,0,0-.39.12.41.41,0,0,1-.13-.17.52.52,0,0,1-.05-.23.39.39,0,0,1,.08-.25.58.58,0,0,1,.23-.16,1.79,1.79,0,0,1,.41-.1Zm0,2.36.23,0a.55.55,0,0,0,.18-.06v-.48l-.43,0a.67.67,0,0,0-.28.07.19.19,0,0,0-.11.18.24.24,0,0,0,.09.19A.51.51,0,0,0,42.08,59.11Z"/></g></g></g></g></g></svg>