<svg width="20mm" height="25mm" xmlns="http://www.w3.org/2000/svg" viewBox="0 0 56.69 70.87"><defs><style>.cls-1{fill:#3c3e6a;}.cls-2{fill:#fff;}.cls-3{fill:#8d1281;}.cls-4{fill:#b86aab;}</style></defs><title>Fichier 20</title><g id="Calque_2"><g id="Calque_1-2"><g id="Cotés"><g id="Barre_latérale_gauche"><rect class="cls-1" x="2.5" y="2.5" width="51.69" height="65.87"/><path class="cls-2" d="M51.69,5V65.87H5V5H51.69m5-5H0V70.87H56.69V0Z"/></g></g><g id="Petites_cases"><g id="FRANCAIS"><path class="cls-3" d="M12,11.15a1.14,1.14,0,0,1,.12.28,1.3,1.3,0,0,1,.05.37.74.74,0,0,1-.16.53.58.58,0,0,1-.43.16h-2v1.08h2.1a1,1,0,0,1,.13.28,1.23,1.23,0,0,1,.05.36.72.72,0,0,1-.16.52.58.58,0,0,1-.43.16H9.57v2L9.24,17l-.45,0a1.92,1.92,0,0,1-.39,0,.68.68,0,0,1-.28-.12.52.52,0,0,1-.17-.24,1.17,1.17,0,0,1-.06-.4V12a.83.83,0,0,1,.89-.89Z"/><path class="cls-3" d="M14.66,15.08v1.84l-.33.06-.45,0a1.91,1.91,0,0,1-.39,0,.64.64,0,0,1-.28-.12.53.53,0,0,1-.17-.24,1.17,1.17,0,0,1-.06-.4V11.7a.42.42,0,0,1,.11-.31.78.78,0,0,1,.3-.18,3.66,3.66,0,0,1,.76-.17,7.78,7.78,0,0,1,.92-.05,3.07,3.07,0,0,1,2,.56A1.85,1.85,0,0,1,17.75,13a1.68,1.68,0,0,1-.31,1,2.23,2.23,0,0,1-.73.65c.23.31.46.61.68.88a5.74,5.74,0,0,1,.53.75.91.91,0,0,1-.35.51A1,1,0,0,1,17,17a1.26,1.26,0,0,1-.36,0,.9.9,0,0,1-.27-.13,1.08,1.08,0,0,1-.21-.21,2.63,2.63,0,0,1-.18-.27l-.81-1.3Zm.6-1.28a.84.84,0,0,0,.58-.19.7.7,0,0,0,.21-.55.66.66,0,0,0-.24-.55,1.19,1.19,0,0,0-.74-.19h-.23l-.19,0v1.44Z"/><path class="cls-3" d="M20.15,11.32a2,2,0,0,1,.49-.18,2.63,2.63,0,0,1,.67-.09,2.38,2.38,0,0,1,.85.14.74.74,0,0,1,.48.44q.17.5.37,1.16t.4,1.37l.39,1.39.34,1.21a.77.77,0,0,1-.35.22,1.64,1.64,0,0,1-.55.08,1.71,1.71,0,0,1-.39,0,.68.68,0,0,1-.26-.12.55.55,0,0,1-.16-.2,1.69,1.69,0,0,1-.11-.29l-.17-.66H20.42l-.15.6-.15.6-.28.08a1.69,1.69,0,0,1-.36,0,1.25,1.25,0,0,1-.73-.17.54.54,0,0,1-.24-.47,1,1,0,0,1,0-.27l.09-.32q.07-.26.19-.64l.26-.83c.1-.3.2-.6.31-.92l.31-.89.26-.74Zm1.15,1.24-.3.9q-.17.49-.3,1h1.19q-.13-.52-.27-1l-.25-.89Z"/><path class="cls-3" d="M30.2,16.76a.86.86,0,0,1-.39.21,2.24,2.24,0,0,1-.61.07,2.11,2.11,0,0,1-.67-.1.93.93,0,0,1-.52-.51l-1-1.94-.26-.56q-.12-.26-.25-.61H26.5q0,.52,0,1.06t0,1.05v1.49l-.32.06-.43,0a2.22,2.22,0,0,1-.37,0,.58.58,0,0,1-.27-.12.55.55,0,0,1-.16-.24,1.09,1.09,0,0,1-.06-.39v-4.8a.81.81,0,0,1,.41-.29,1.81,1.81,0,0,1,.6-.1,2.08,2.08,0,0,1,.68.11.92.92,0,0,1,.51.5l1,1.94.26.56c.08.18.16.38.25.61h0q0-.52,0-1c0-.35,0-.69,0-1V11.15l.32-.06.43,0a1.14,1.14,0,0,1,.64.15.7.7,0,0,1,.22.62Z"/><path class="cls-3" d="M34.42,12.32a1.42,1.42,0,0,0-1.13.45A1.88,1.88,0,0,0,32.89,14a1.78,1.78,0,0,0,.44,1.29,1.56,1.56,0,0,0,1.18.45,1.86,1.86,0,0,0,.67-.11,4.4,4.4,0,0,0,.52-.24,1,1,0,0,1,.25.32,1,1,0,0,1,.09.44.73.73,0,0,1-.27.56,1.62,1.62,0,0,1-.84.33,1.09,1.09,0,0,1,.12.35,2.14,2.14,0,0,1,0,.38A1.09,1.09,0,0,1,33.9,19a1,1,0,0,1-.65-.21.71.71,0,0,1-.24-.57A.75.75,0,0,1,33,18l0-.12c.42,0,.62-.18.62-.47a1,1,0,0,0,0-.15.64.64,0,0,0-.06-.19,3.12,3.12,0,0,1-1-.3,2.52,2.52,0,0,1-.77-.6,2.74,2.74,0,0,1-.51-.91A3.69,3.69,0,0,1,31.16,14a3.44,3.44,0,0,1,.24-1.32,2.8,2.8,0,0,1,.64-1,2.7,2.7,0,0,1,1-.6,3.36,3.36,0,0,1,1.17-.2,2.69,2.69,0,0,1,1.37.29A.85.85,0,0,1,36,12a.75.75,0,0,1-.12.43,1,1,0,0,1-.29.29,3.18,3.18,0,0,0-.53-.28A1.74,1.74,0,0,0,34.42,12.32Z"/><path class="cls-3" d="M38.31,11.32a2,2,0,0,1,.49-.18,2.63,2.63,0,0,1,.67-.09,2.38,2.38,0,0,1,.85.14.74.74,0,0,1,.48.44q.17.5.37,1.16t.4,1.37L42,15.55l.34,1.21A.77.77,0,0,1,42,17a1.64,1.64,0,0,1-.55.08A1.71,1.71,0,0,1,41,17a.68.68,0,0,1-.26-.12.55.55,0,0,1-.16-.2,1.69,1.69,0,0,1-.11-.29l-.17-.66H38.58l-.15.6-.15.6L38,17a1.69,1.69,0,0,1-.36,0,1.25,1.25,0,0,1-.73-.17.54.54,0,0,1-.24-.47,1,1,0,0,1,0-.27l.09-.32q.07-.26.19-.64l.26-.83c.1-.3.2-.6.31-.92l.31-.89.26-.74Zm1.15,1.24-.3.9q-.17.49-.3,1h1.19q-.13-.52-.27-1l-.25-.89Z"/><path class="cls-3" d="M44.77,16.93l-.33.06L44,17a1.92,1.92,0,0,1-.39,0,.68.68,0,0,1-.28-.12.52.52,0,0,1-.17-.24,1.17,1.17,0,0,1-.06-.4V11.15l.34-.05a3.13,3.13,0,0,1,.44,0,2,2,0,0,1,.39,0,.7.7,0,0,1,.28.12.52.52,0,0,1,.17.24,1.17,1.17,0,0,1,.06.4Z"/><path class="cls-3" d="M47.67,14.65c-.28-.1-.54-.19-.77-.29a2.34,2.34,0,0,1-.59-.36,1.49,1.49,0,0,1-.39-.5,1.66,1.66,0,0,1-.14-.72,1.57,1.57,0,0,1,.63-1.3A2.8,2.8,0,0,1,48.17,11a4.92,4.92,0,0,1,.77.06,2.33,2.33,0,0,1,.61.18,1.06,1.06,0,0,1,.4.31.7.7,0,0,1,.14.44.77.77,0,0,1-.12.43,1.21,1.21,0,0,1-.28.3,2.19,2.19,0,0,0-.57-.23,2.84,2.84,0,0,0-.78-.1,1.29,1.29,0,0,0-.63.12.35.35,0,0,0-.2.3.28.28,0,0,0,.13.24,1.3,1.3,0,0,0,.37.17l.51.16a3.7,3.7,0,0,1,1.39.73,1.57,1.57,0,0,1,.48,1.21,1.6,1.6,0,0,1-.64,1.32,3,3,0,0,1-1.89.5A4.36,4.36,0,0,1,47,17a2.51,2.51,0,0,1-.66-.21,1.22,1.22,0,0,1-.44-.35.76.76,0,0,1-.16-.47.72.72,0,0,1,.16-.48,1.24,1.24,0,0,1,.36-.3,2.64,2.64,0,0,0,.66.37,2.31,2.31,0,0,0,.85.15,1.15,1.15,0,0,0,.66-.14.41.41,0,0,0,.19-.34.33.33,0,0,0-.15-.29,2,2,0,0,0-.43-.2Z"/><path class="cls-4" d="M11.18,11.95a1.14,1.14,0,0,1,.12.28,1.3,1.3,0,0,1,.05.37.74.74,0,0,1-.16.53.58.58,0,0,1-.43.16h-2v1.08h2.1a1,1,0,0,1,.13.28A1.23,1.23,0,0,1,11,15a.72.72,0,0,1-.16.52.58.58,0,0,1-.43.16H8.77v2l-.33.06-.45,0a1.92,1.92,0,0,1-.39,0,.68.68,0,0,1-.28-.12.52.52,0,0,1-.17-.24,1.17,1.17,0,0,1-.06-.4V12.84A.83.83,0,0,1,8,11.95Z"/><path class="cls-4" d="M13.86,15.88v1.84l-.33.06-.45,0a1.91,1.91,0,0,1-.39,0,.64.64,0,0,1-.28-.12.53.53,0,0,1-.17-.24,1.17,1.17,0,0,1-.06-.4V12.5a.42.42,0,0,1,.11-.31.78.78,0,0,1,.3-.18,3.66,3.66,0,0,1,.76-.17,7.78,7.78,0,0,1,.92-.05,3.07,3.07,0,0,1,2,.56A1.85,1.85,0,0,1,17,13.85a1.68,1.68,0,0,1-.31,1,2.23,2.23,0,0,1-.73.65c.23.31.46.61.68.88a5.74,5.74,0,0,1,.53.75.91.91,0,0,1-.35.51,1,1,0,0,1-.57.18,1.26,1.26,0,0,1-.36,0,.9.9,0,0,1-.27-.13,1.08,1.08,0,0,1-.21-.21,2.63,2.63,0,0,1-.18-.27l-.81-1.3Zm.6-1.28a.84.84,0,0,0,.58-.19.7.7,0,0,0,.21-.55.66.66,0,0,0-.24-.55,1.19,1.19,0,0,0-.74-.19H14l-.19,0v1.44Z"/><path class="cls-4" d="M19.35,12.12a2,2,0,0,1,.49-.18,2.63,2.63,0,0,1,.67-.09,2.38,2.38,0,0,1,.85.14.74.74,0,0,1,.48.44q.17.5.37,1.16t.4,1.37L23,16.35l.34,1.21a.77.77,0,0,1-.35.22,1.64,1.64,0,0,1-.55.08,1.71,1.71,0,0,1-.39,0,.68.68,0,0,1-.26-.12.55.55,0,0,1-.16-.2,1.69,1.69,0,0,1-.11-.29l-.17-.66H19.62l-.15.6-.15.6-.28.08a1.69,1.69,0,0,1-.36,0,1.25,1.25,0,0,1-.73-.17.54.54,0,0,1-.24-.47,1,1,0,0,1,0-.27l.09-.32q.07-.26.19-.64l.26-.83c.1-.3.2-.6.31-.92l.31-.89.26-.74Zm1.15,1.24-.3.9q-.17.49-.3,1h1.19q-.13-.52-.27-1l-.25-.89Z"/><path class="cls-4" d="M29.4,17.56a.86.86,0,0,1-.39.21,2.24,2.24,0,0,1-.61.07,2.11,2.11,0,0,1-.67-.1.93.93,0,0,1-.52-.51l-1-1.94L26,14.73q-.12-.26-.25-.61H25.7q0,.52,0,1.06t0,1.05v1.49l-.32.06-.43,0a2.22,2.22,0,0,1-.37,0,.58.58,0,0,1-.27-.12.55.55,0,0,1-.16-.24,1.09,1.09,0,0,1-.06-.39v-4.8a.81.81,0,0,1,.41-.29,1.81,1.81,0,0,1,.6-.1,2.08,2.08,0,0,1,.68.11.92.92,0,0,1,.51.5l1,1.94.26.56c.08.18.16.38.25.61h0q0-.52,0-1c0-.35,0-.69,0-1V11.95l.32-.06.43,0a1.14,1.14,0,0,1,.64.15.7.7,0,0,1,.22.62Z"/><path class="cls-4" d="M33.62,13.12a1.42,1.42,0,0,0-1.13.45,1.88,1.88,0,0,0-.39,1.28,1.78,1.78,0,0,0,.44,1.29,1.56,1.56,0,0,0,1.18.45,1.86,1.86,0,0,0,.67-.11,4.4,4.4,0,0,0,.52-.24,1,1,0,0,1,.25.32,1,1,0,0,1,.09.44.73.73,0,0,1-.27.56,1.62,1.62,0,0,1-.84.33,1.09,1.09,0,0,1,.12.35,2.14,2.14,0,0,1,0,.38,1.09,1.09,0,0,1-1.18,1.15,1,1,0,0,1-.65-.21.71.71,0,0,1-.24-.57.75.75,0,0,1,0-.17l0-.12c.42,0,.62-.18.62-.47a1,1,0,0,0,0-.15.64.64,0,0,0-.06-.19,3.12,3.12,0,0,1-1-.3,2.52,2.52,0,0,1-.77-.6,2.74,2.74,0,0,1-.51-.91,3.69,3.69,0,0,1-.19-1.22,3.44,3.44,0,0,1,.24-1.32,2.8,2.8,0,0,1,.64-1,2.7,2.7,0,0,1,1-.6,3.36,3.36,0,0,1,1.17-.2,2.69,2.69,0,0,1,1.37.29.85.85,0,0,1,.48.74.75.75,0,0,1-.12.43,1,1,0,0,1-.29.29,3.18,3.18,0,0,0-.53-.28A1.74,1.74,0,0,0,33.62,13.12Z"/><path class="cls-4" d="M37.51,12.12a2,2,0,0,1,.49-.18,2.63,2.63,0,0,1,.67-.09,2.38,2.38,0,0,1,.85.14.74.74,0,0,1,.48.44q.17.5.37,1.16t.4,1.37l.39,1.39.34,1.21a.77.77,0,0,1-.35.22,1.64,1.64,0,0,1-.55.08,1.71,1.71,0,0,1-.39,0,.68.68,0,0,1-.26-.12.55.55,0,0,1-.16-.2,1.69,1.69,0,0,1-.11-.29l-.17-.66H37.78l-.15.6-.15.6-.28.08a1.69,1.69,0,0,1-.36,0,1.25,1.25,0,0,1-.73-.17.54.54,0,0,1-.24-.47,1,1,0,0,1,0-.27l.09-.32q.07-.26.19-.64l.26-.83c.1-.3.2-.6.31-.92l.31-.89.26-.74Zm1.15,1.24-.3.9q-.17.49-.3,1h1.19q-.13-.52-.27-1l-.25-.89Z"/><path class="cls-4" d="M44,17.73l-.33.06-.45,0a1.92,1.92,0,0,1-.39,0,.68.68,0,0,1-.28-.12.52.52,0,0,1-.17-.24,1.17,1.17,0,0,1-.06-.4V11.95l.34-.05a3.13,3.13,0,0,1,.44,0,2,2,0,0,1,.39,0,.7.7,0,0,1,.28.12.52.52,0,0,1,.17.24,1.17,1.17,0,0,1,.06.4Z"/><path class="cls-4" d="M46.87,15.45c-.28-.1-.54-.19-.77-.29a2.34,2.34,0,0,1-.59-.36,1.49,1.49,0,0,1-.39-.5,1.66,1.66,0,0,1-.14-.72,1.57,1.57,0,0,1,.63-1.3,2.8,2.8,0,0,1,1.76-.49,4.92,4.92,0,0,1,.77.06,2.33,2.33,0,0,1,.61.18,1.06,1.06,0,0,1,.4.31.7.7,0,0,1,.14.44.77.77,0,0,1-.12.43,1.21,1.21,0,0,1-.28.3,2.19,2.19,0,0,0-.57-.23,2.84,2.84,0,0,0-.78-.1,1.29,1.29,0,0,0-.63.12.35.35,0,0,0-.2.3.28.28,0,0,0,.13.24,1.3,1.3,0,0,0,.37.17l.51.16a3.7,3.7,0,0,1,1.39.73,1.57,1.57,0,0,1,.48,1.21A1.6,1.6,0,0,1,49,17.42a3,3,0,0,1-1.89.5,4.36,4.36,0,0,1-.82-.07,2.51,2.51,0,0,1-.66-.21,1.22,1.22,0,0,1-.44-.35.76.76,0,0,1-.16-.48.72.72,0,0,1,.16-.47,1.24,1.24,0,0,1,.36-.3,2.64,2.64,0,0,0,.66.37,2.31,2.31,0,0,0,.85.15,1.15,1.15,0,0,0,.66-.14.41.41,0,0,0,.19-.34.33.33,0,0,0-.15-.29,2,2,0,0,0-.43-.2Z"/><path class="cls-2" d="M10.38,12.75a1.14,1.14,0,0,1,.12.28,1.3,1.3,0,0,1,.05.37.74.74,0,0,1-.16.53.58.58,0,0,1-.43.16H8v1.08h2.1a1,1,0,0,1,.13.28,1.23,1.23,0,0,1,.05.36.72.72,0,0,1-.16.52.58.58,0,0,1-.43.16H8v2l-.33.06-.45,0a1.92,1.92,0,0,1-.39,0,.68.68,0,0,1-.28-.12.52.52,0,0,1-.17-.24,1.17,1.17,0,0,1-.06-.4V13.64a.83.83,0,0,1,.89-.89Z"/><path class="cls-2" d="M13.06,16.68v1.84l-.33.06-.45,0a1.91,1.91,0,0,1-.39,0,.64.64,0,0,1-.28-.12.53.53,0,0,1-.17-.24,1.17,1.17,0,0,1-.06-.4V13.3A.42.42,0,0,1,11.5,13a.78.78,0,0,1,.3-.18,3.66,3.66,0,0,1,.76-.17,7.78,7.78,0,0,1,.92-.05,3.07,3.07,0,0,1,2,.56,1.85,1.85,0,0,1,.67,1.51,1.68,1.68,0,0,1-.31,1,2.23,2.23,0,0,1-.73.65c.23.31.46.61.68.88a5.74,5.74,0,0,1,.53.75.91.91,0,0,1-.35.51,1,1,0,0,1-.57.18,1.26,1.26,0,0,1-.36,0,.9.9,0,0,1-.27-.13,1.08,1.08,0,0,1-.21-.21,2.63,2.63,0,0,1-.18-.27l-.81-1.3Zm.6-1.28a.84.84,0,0,0,.58-.19.7.7,0,0,0,.21-.55.66.66,0,0,0-.24-.55,1.19,1.19,0,0,0-.74-.19h-.23l-.19,0v1.44Z"/><path class="cls-2" d="M18.55,12.92a2,2,0,0,1,.49-.18,2.63,2.63,0,0,1,.67-.09,2.38,2.38,0,0,1,.85.14.74.74,0,0,1,.48.44q.17.5.37,1.16t.4,1.37l.39,1.39.34,1.21a.77.77,0,0,1-.35.22,1.64,1.64,0,0,1-.55.08,1.71,1.71,0,0,1-.39,0,.68.68,0,0,1-.26-.12.55.55,0,0,1-.16-.2,1.69,1.69,0,0,1-.11-.29l-.17-.66H18.82l-.15.6-.15.6-.28.08a1.69,1.69,0,0,1-.36,0,1.25,1.25,0,0,1-.72-.17.54.54,0,0,1-.24-.47,1,1,0,0,1,0-.27l.09-.32q.07-.26.19-.64l.26-.83c.1-.3.2-.6.31-.92l.31-.89.26-.74Zm1.15,1.24-.3.9q-.17.49-.3,1h1.19q-.13-.52-.27-1l-.25-.89Z"/><path class="cls-2" d="M28.6,18.36a.86.86,0,0,1-.39.21,2.24,2.24,0,0,1-.61.07,2.11,2.11,0,0,1-.67-.1.93.93,0,0,1-.52-.51l-1-1.94-.26-.56q-.12-.26-.25-.61H24.9q0,.52,0,1.06t0,1.05v1.49l-.32.06-.43,0a2.22,2.22,0,0,1-.37,0,.58.58,0,0,1-.27-.12.55.55,0,0,1-.16-.24,1.09,1.09,0,0,1-.06-.39V13a.81.81,0,0,1,.41-.29,1.81,1.81,0,0,1,.6-.1,2.08,2.08,0,0,1,.68.11.92.92,0,0,1,.51.5l1,1.94.26.56c.08.18.16.38.25.61h0q0-.52,0-1c0-.35,0-.69,0-1V12.75l.32-.06.43,0a1.14,1.14,0,0,1,.64.15.7.7,0,0,1,.22.62Z"/><path class="cls-2" d="M32.82,13.92a1.42,1.42,0,0,0-1.13.45,1.88,1.88,0,0,0-.39,1.28,1.78,1.78,0,0,0,.44,1.29,1.56,1.56,0,0,0,1.18.45,1.86,1.86,0,0,0,.67-.11,4.4,4.4,0,0,0,.52-.24,1,1,0,0,1,.25.32,1,1,0,0,1,.09.44.73.73,0,0,1-.27.56,1.62,1.62,0,0,1-.84.33,1.09,1.09,0,0,1,.12.35,2.14,2.14,0,0,1,0,.38,1.09,1.09,0,0,1-1.18,1.15,1,1,0,0,1-.65-.21.71.71,0,0,1-.24-.57.75.75,0,0,1,0-.17l0-.12c.42,0,.62-.18.62-.47a1,1,0,0,0,0-.15.64.64,0,0,0-.06-.19,3.12,3.12,0,0,1-1-.3,2.52,2.52,0,0,1-.77-.6,2.74,2.74,0,0,1-.51-.91,3.69,3.69,0,0,1-.19-1.22,3.44,3.44,0,0,1,.24-1.32,2.8,2.8,0,0,1,.64-1,2.7,2.7,0,0,1,1-.6,3.36,3.36,0,0,1,1.17-.2,2.69,2.69,0,0,1,1.37.29.85.85,0,0,1,.48.74.75.75,0,0,1-.12.43,1,1,0,0,1-.29.29,3.18,3.18,0,0,0-.53-.28A1.74,1.74,0,0,0,32.82,13.92Z"/><path class="cls-2" d="M36.71,12.92a2,2,0,0,1,.49-.18,2.63,2.63,0,0,1,.67-.09,2.38,2.38,0,0,1,.85.14.74.74,0,0,1,.48.44q.17.5.37,1.16t.4,1.37l.39,1.39.34,1.21a.77.77,0,0,1-.35.22,1.64,1.64,0,0,1-.55.08,1.71,1.71,0,0,1-.39,0,.68.68,0,0,1-.26-.12.55.55,0,0,1-.16-.2,1.69,1.69,0,0,1-.11-.29l-.17-.66H37l-.15.6-.15.6-.28.08a1.69,1.69,0,0,1-.36,0,1.25,1.25,0,0,1-.73-.17.54.54,0,0,1-.24-.47,1,1,0,0,1,0-.27l.09-.32q.07-.26.19-.64l.26-.83c.1-.3.2-.6.31-.92l.31-.89.26-.74Zm1.15,1.24-.3.9q-.17.49-.3,1h1.19q-.13-.52-.27-1l-.25-.89Z"/><path class="cls-2" d="M43.17,18.53l-.33.06-.45,0a1.92,1.92,0,0,1-.39,0,.68.68,0,0,1-.28-.12.52.52,0,0,1-.17-.24,1.17,1.17,0,0,1-.06-.4V12.75l.34-.05a3.13,3.13,0,0,1,.44,0,2,2,0,0,1,.39,0,.7.7,0,0,1,.28.12.52.52,0,0,1,.17.24,1.17,1.17,0,0,1,.06.4Z"/><path class="cls-2" d="M46.07,16.25c-.28-.1-.54-.19-.77-.29a2.34,2.34,0,0,1-.59-.36,1.49,1.49,0,0,1-.39-.5,1.66,1.66,0,0,1-.14-.72,1.57,1.57,0,0,1,.63-1.3,2.8,2.8,0,0,1,1.76-.49,4.92,4.92,0,0,1,.77.06,2.33,2.33,0,0,1,.61.18,1.06,1.06,0,0,1,.4.31.7.7,0,0,1,.14.44.77.77,0,0,1-.12.43,1.21,1.21,0,0,1-.28.3,2.19,2.19,0,0,0-.57-.23,2.84,2.84,0,0,0-.78-.1,1.29,1.29,0,0,0-.63.12.35.35,0,0,0-.2.3.28.28,0,0,0,.13.24,1.3,1.3,0,0,0,.37.17l.51.16a3.7,3.7,0,0,1,1.39.73,1.57,1.57,0,0,1,.48,1.21,1.6,1.6,0,0,1-.64,1.32,3,3,0,0,1-1.89.5,4.36,4.36,0,0,1-.82-.07,2.51,2.51,0,0,1-.66-.21,1.22,1.22,0,0,1-.44-.35.76.76,0,0,1-.16-.48.72.72,0,0,1,.16-.47,1.24,1.24,0,0,1,.36-.3,2.64,2.64,0,0,0,.66.37,2.31,2.31,0,0,0,.85.15,1.15,1.15,0,0,0,.66-.14.41.41,0,0,0,.19-.34.33.33,0,0,0-.15-.29,2,2,0,0,0-.43-.2Z"/></g></g><g id="Modules"><g id="Menu_gauche"><g id="Rédaction"><path class="cls-2" d="M15.9,58.58v1.15l-.21,0-.28,0-.24,0a.4.4,0,0,1-.17-.08.33.33,0,0,1-.1-.15.74.74,0,0,1,0-.25V56.47a.26.26,0,0,1,.07-.2.48.48,0,0,1,.19-.11,2.23,2.23,0,0,1,.47-.11,4.86,4.86,0,0,1,.58,0,1.91,1.91,0,0,1,1.25.35,1.16,1.16,0,0,1,.42.94,1.06,1.06,0,0,1-.19.64,1.37,1.37,0,0,1-.46.41l.43.55a3.5,3.5,0,0,1,.33.47.56.56,0,0,1-.22.32.61.61,0,0,1-.36.11.75.75,0,0,1-.23,0,.54.54,0,0,1-.17-.08.65.65,0,0,1-.13-.13l-.11-.17-.5-.81Zm.38-.8a.52.52,0,0,0,.36-.12.44.44,0,0,0,.13-.34.42.42,0,0,0-.15-.35.75.75,0,0,0-.47-.12H16l-.12,0v.9Z"/><path class="cls-2" d="M19.89,59.86a2.1,2.1,0,0,1-.66-.1,1.5,1.5,0,0,1-.53-.3,1.37,1.37,0,0,1-.35-.5,1.77,1.77,0,0,1-.13-.7,1.64,1.64,0,0,1,.13-.68,1.35,1.35,0,0,1,.34-.47,1.37,1.37,0,0,1,.48-.27,1.8,1.8,0,0,1,.55-.09,1.68,1.68,0,0,1,.58.1,1.41,1.41,0,0,1,.45.26,1.17,1.17,0,0,1,.29.4,1.23,1.23,0,0,1,.1.51.41.41,0,0,1-.11.31.57.57,0,0,1-.32.14l-1.48.22a.5.5,0,0,0,.27.3,1.06,1.06,0,0,0,.47.1,1.67,1.67,0,0,0,.46-.06,1.53,1.53,0,0,0,.36-.15.5.5,0,0,1,.16.17.44.44,0,0,1-.19.63,1.31,1.31,0,0,1-.43.14A3,3,0,0,1,19.89,59.86Zm-.06-4.56a.69.69,0,0,1,.45.12.37.37,0,0,1,.14.29.41.41,0,0,1-.08.26.89.89,0,0,1-.28.21l-.77.41a.49.49,0,0,1-.31-.14.38.38,0,0,1-.13-.27.32.32,0,0,1,0-.14.37.37,0,0,1,.12-.13Zm-.11,2.2a.59.59,0,0,0-.25,0,.49.49,0,0,0-.27.29.69.69,0,0,0,0,.19l1-.17a.45.45,0,0,0-.13-.24A.44.44,0,0,0,19.72,57.5Z"/><path class="cls-2" d="M21.52,58.3a1.79,1.79,0,0,1,.12-.69,1.3,1.3,0,0,1,.33-.48,1.37,1.37,0,0,1,.5-.29,2,2,0,0,1,.61-.09l.23,0,.19.05v-1l.19,0,.27,0,.24,0a.41.41,0,0,1,.18.07.32.32,0,0,1,.11.15.67.67,0,0,1,0,.24v2.84a.51.51,0,0,1-.26.45,1.81,1.81,0,0,1-.45.2,2.1,2.1,0,0,1-.64.09,2.13,2.13,0,0,1-.7-.11,1.41,1.41,0,0,1-.52-.31,1.34,1.34,0,0,1-.32-.49A1.77,1.77,0,0,1,21.52,58.3Zm1.7-.75a.65.65,0,0,0-.5.19.8.8,0,0,0-.17.56.84.84,0,0,0,.16.56.58.58,0,0,0,.47.19.54.54,0,0,0,.19,0,.43.43,0,0,0,.14-.08V57.62A.55.55,0,0,0,23.22,57.55Z"/><path class="cls-2" d="M26.36,56.75a2.47,2.47,0,0,1,.59.07,1.35,1.35,0,0,1,.46.2.91.91,0,0,1,.29.34,1.1,1.1,0,0,1,.1.49V59.2a.38.38,0,0,1-.09.26.89.89,0,0,1-.21.17,2.15,2.15,0,0,1-1.1.23,2.51,2.51,0,0,1-.57-.06,1.36,1.36,0,0,1-.44-.18.83.83,0,0,1-.28-.31.91.91,0,0,1-.1-.43.81.81,0,0,1,.25-.64A1.32,1.32,0,0,1,26,58l.79-.08v0a.26.26,0,0,0-.15-.25,1,1,0,0,0-.44-.08,2.09,2.09,0,0,0-.44,0,2.38,2.38,0,0,0-.39.12.41.41,0,0,1-.13-.17.52.52,0,0,1-.05-.23.38.38,0,0,1,.07-.25.58.58,0,0,1,.23-.16,1.78,1.78,0,0,1,.41-.1Zm0,2.36.23,0a.56.56,0,0,0,.18-.06v-.48l-.43,0a.66.66,0,0,0-.28.07.19.19,0,0,0-.11.18.24.24,0,0,0,.09.2A.51.51,0,0,0,26.41,59.11Z"/><path class="cls-2" d="M30.07,57.56a.87.87,0,0,0-.29,0,.66.66,0,0,0-.23.14.69.69,0,0,0-.16.23.81.81,0,0,0-.06.32.7.7,0,0,0,.21.56.76.76,0,0,0,.52.19,1,1,0,0,0,.31,0l.23-.09a.62.62,0,0,1,.18.18.45.45,0,0,1,.06.24.42.42,0,0,1-.23.38,1.3,1.3,0,0,1-.65.13,2,2,0,0,1-.68-.11,1.53,1.53,0,0,1-.52-.31,1.37,1.37,0,0,1-.34-.48,1.57,1.57,0,0,1-.12-.62,1.73,1.73,0,0,1,.13-.69,1.34,1.34,0,0,1,.35-.49,1.49,1.49,0,0,1,.51-.29,2,2,0,0,1,.61-.1,1.19,1.19,0,0,1,.67.16.47.47,0,0,1,.23.4.44.44,0,0,1-.05.21.74.74,0,0,1-.13.17l-.25-.09A1.07,1.07,0,0,0,30.07,57.56Z"/><path class="cls-2" d="M32.38,58.76a.25.25,0,0,0,.1.22.5.5,0,0,0,.28.07h.19l.17,0a.75.75,0,0,1,.09.15.45.45,0,0,1,0,.2.46.46,0,0,1-.17.37,1,1,0,0,1-.6.14,1.23,1.23,0,0,1-.81-.24,1,1,0,0,1-.28-.78V56.26l.19,0,.26,0a.76.76,0,0,1,.41.09.43.43,0,0,1,.15.39v.38h.79a1.09,1.09,0,0,1,.07.17.7.7,0,0,1,0,.22.42.42,0,0,1-.09.3.33.33,0,0,1-.25.09h-.55Z"/><path class="cls-2" d="M33.73,56a.53.53,0,0,1,.15-.38.61.61,0,0,1,.81,0,.56.56,0,0,1,0,.77.6.6,0,0,1-.81,0A.53.53,0,0,1,33.73,56Zm1.07,3.72-.19,0-.26,0-.24,0a.41.41,0,0,1-.18-.07.35.35,0,0,1-.11-.15.63.63,0,0,1,0-.24V56.89l.19,0,.26,0,.24,0a.4.4,0,0,1,.18.07.35.35,0,0,1,.11.15.64.64,0,0,1,0,.24Z"/><path class="cls-2" d="M38.47,58.3a1.8,1.8,0,0,1-.11.66,1.34,1.34,0,0,1-.32.49,1.37,1.37,0,0,1-.5.3,1.93,1.93,0,0,1-.64.1,1.83,1.83,0,0,1-.64-.11,1.4,1.4,0,0,1-.5-.31,1.38,1.38,0,0,1-.32-.49,1.76,1.76,0,0,1-.11-.65,1.73,1.73,0,0,1,.11-.64,1.37,1.37,0,0,1,.32-.49,1.42,1.42,0,0,1,.5-.31,1.83,1.83,0,0,1,.64-.11,1.77,1.77,0,0,1,.64.11,1.44,1.44,0,0,1,.5.31,1.37,1.37,0,0,1,.32.49A1.71,1.71,0,0,1,38.47,58.3Zm-2.1,0a.94.94,0,0,0,.14.56.46.46,0,0,0,.39.2.44.44,0,0,0,.39-.2,1,1,0,0,0,.14-.56,1,1,0,0,0-.14-.55.49.49,0,0,0-.78,0A1,1,0,0,0,36.37,58.3Z"/><path class="cls-2" d="M40.81,57.91a.34.34,0,0,0-.1-.27.44.44,0,0,0-.29-.09.92.92,0,0,0-.24,0,.59.59,0,0,0-.2.09v2.08l-.19,0-.27,0-.24,0a.41.41,0,0,1-.18-.07.35.35,0,0,1-.11-.15.62.62,0,0,1,0-.24v-1.8a.46.46,0,0,1,.07-.26.71.71,0,0,1,.19-.19,1.7,1.7,0,0,1,.51-.23,2.47,2.47,0,0,1,.69-.09,1.62,1.62,0,0,1,1,.3,1,1,0,0,1,.37.83v1.88l-.19,0-.27,0-.24,0a.41.41,0,0,1-.18-.07.35.35,0,0,1-.11-.15.62.62,0,0,1,0-.24Z"/></g></g></g></g></g></svg>