<svg width="20mm" height="25mm" xmlns="http://www.w3.org/2000/svg" viewBox="0 0 56.69 70.87"><defs><style>.cls-1{fill:#3c3e6a;}.cls-2{fill:#fff;}.cls-3{fill:#f1b92e;}.cls-4{fill:#f3d37c;}</style></defs><title>Fichier 23</title><g id="Calque_2"><g id="Calque_1-2"><g id="Cotés"><g id="Barre_latérale_gauche"><rect class="cls-1" x="2.5" y="2.5" width="51.69" height="65.87"/><path class="cls-2" d="M51.69,5V65.87H5V5H51.69m5-5H0V70.87H56.69V0Z"/></g></g><g id="Petites_cases"><g id="MECA"><path class="cls-3" d="M21.41,15.5a.92.92,0,0,1-.32.17,1.49,1.49,0,0,1-.46.06,1.61,1.61,0,0,1-.57-.09.46.46,0,0,1-.29-.3L19.33,14q-.17-.52-.27-.92h0q0,.57,0,1t0,.91q0,.44,0,.89t0,1a1.74,1.74,0,0,1-.33.08,2.42,2.42,0,0,1-.4,0,1.33,1.33,0,0,1-.66-.13.51.51,0,0,1-.24-.49l.28-4.9a.91.91,0,0,1,.34-.27,1.52,1.52,0,0,1,.73-.14,1.67,1.67,0,0,1,.8.16.94.94,0,0,1,.42.51l.19.53.2.61.2.63.17.56h0q.23-.81.46-1.56t.42-1.26a1.52,1.52,0,0,1,.37-.13,2.22,2.22,0,0,1,.5-.05,1.83,1.83,0,0,1,.77.14.55.55,0,0,1,.35.4q0,.19.08.59t.09.9q0,.5.1,1.06l.09,1.07q0,.51.07.94c0,.29,0,.5,0,.66a1.26,1.26,0,0,1-.34.14,2,2,0,0,1-.46,0,1.37,1.37,0,0,1-.61-.12.53.53,0,0,1-.27-.49q-.06-1-.07-1.88t0-1.4h0q-.1.38-.28.94T21.41,15.5Z"/><path class="cls-3" d="M25,12a.83.83,0,0,1,.89-.89H29a1.17,1.17,0,0,1,.12.28,1.24,1.24,0,0,1,.05.36.7.7,0,0,1-.16.52.57.57,0,0,1-.42.15h-2v.89h2.16a1.17,1.17,0,0,1,.12.27,1.19,1.19,0,0,1,.05.36.72.72,0,0,1-.15.52.56.56,0,0,1-.41.15H26.6v1h2.47a1.16,1.16,0,0,1,.12.28,1.26,1.26,0,0,1,.05.36.72.72,0,0,1-.16.52.56.56,0,0,1-.42.16h-2.8a.83.83,0,0,1-.89-.89Zm2.59-3.24a1.11,1.11,0,0,1,.67.23.58.58,0,0,1,.2.44.61.61,0,0,1-.16.44,1.43,1.43,0,0,1-.49.3l-1.32.52a.85.85,0,0,1-.45-.23.54.54,0,0,1-.17-.38.51.51,0,0,1,.07-.26.52.52,0,0,1,.23-.2Z"/><path class="cls-3" d="M33.14,12.28a1.42,1.42,0,0,0-1.13.45A1.88,1.88,0,0,0,31.61,14a1.77,1.77,0,0,0,.44,1.29,1.56,1.56,0,0,0,1.18.45,1.84,1.84,0,0,0,.67-.11,4.52,4.52,0,0,0,.52-.24,1,1,0,0,1,.25.32,1,1,0,0,1,.09.44.79.79,0,0,1-.44.67A2.56,2.56,0,0,1,33,17.1a3.94,3.94,0,0,1-1.21-.18,2.7,2.7,0,0,1-1-.56,2.65,2.65,0,0,1-.67-1A3.56,3.56,0,0,1,29.89,14a3.45,3.45,0,0,1,.24-1.32,2.81,2.81,0,0,1,.64-1,2.7,2.7,0,0,1,1-.6,3.36,3.36,0,0,1,1.17-.2,2.69,2.69,0,0,1,1.37.29.85.85,0,0,1,.48.74.75.75,0,0,1-.12.43,1,1,0,0,1-.29.29,3.12,3.12,0,0,0-.53-.28A1.74,1.74,0,0,0,33.14,12.28Z"/><path class="cls-3" d="M37,11.28a2,2,0,0,1,.49-.18A2.63,2.63,0,0,1,38.2,11a2.4,2.4,0,0,1,.85.14.74.74,0,0,1,.48.44q.17.5.37,1.16t.4,1.37l.39,1.39L41,16.73a.78.78,0,0,1-.35.22,1.64,1.64,0,0,1-.55.08,1.72,1.72,0,0,1-.39,0,.69.69,0,0,1-.26-.12.56.56,0,0,1-.16-.2,1.72,1.72,0,0,1-.11-.29L39,15.72H37.31l-.15.6-.15.59-.28.08a1.69,1.69,0,0,1-.36,0,1.26,1.26,0,0,1-.73-.17.54.54,0,0,1-.24-.47,1,1,0,0,1,0-.27l.09-.32q.07-.26.19-.64l.26-.83q.14-.45.31-.92l.31-.89.26-.74Zm1.15,1.24-.3.9q-.17.49-.3,1h1.19q-.13-.52-.27-1l-.25-.89Z"/><path class="cls-4" d="M20.61,16.3a.92.92,0,0,1-.32.17,1.49,1.49,0,0,1-.46.06,1.61,1.61,0,0,1-.57-.09.46.46,0,0,1-.29-.3l-.44-1.37q-.17-.52-.27-.92h0q0,.57,0,1t0,.91q0,.44,0,.89t0,1a1.74,1.74,0,0,1-.33.08,2.42,2.42,0,0,1-.4,0,1.33,1.33,0,0,1-.66-.13.51.51,0,0,1-.24-.49l.28-4.9a.91.91,0,0,1,.34-.27,1.52,1.52,0,0,1,.73-.14,1.67,1.67,0,0,1,.8.16.94.94,0,0,1,.42.51l.19.53.2.61.2.63.17.56h0q.23-.81.46-1.56t.42-1.26a1.52,1.52,0,0,1,.37-.13,2.22,2.22,0,0,1,.5-.05,1.83,1.83,0,0,1,.77.14.55.55,0,0,1,.35.4q0,.19.08.59t.09.9q0,.5.1,1.06L23.06,16q0,.51.07.94c0,.29,0,.5,0,.66a1.26,1.26,0,0,1-.34.14,2,2,0,0,1-.46,0,1.37,1.37,0,0,1-.61-.12.53.53,0,0,1-.27-.49q-.06-1-.07-1.88t0-1.4h0q-.1.38-.28.94T20.61,16.3Z"/><path class="cls-4" d="M24.17,12.8a.83.83,0,0,1,.89-.89h3.17a1.17,1.17,0,0,1,.12.28,1.24,1.24,0,0,1,.05.36.7.7,0,0,1-.16.52.57.57,0,0,1-.42.15h-2v.89H28a1.17,1.17,0,0,1,.12.27,1.19,1.19,0,0,1,.05.36.72.72,0,0,1-.15.52.56.56,0,0,1-.41.15H25.8v1h2.47a1.16,1.16,0,0,1,.12.28,1.26,1.26,0,0,1,.05.36.72.72,0,0,1-.16.52.56.56,0,0,1-.42.16h-2.8a.83.83,0,0,1-.89-.89Zm2.59-3.24a1.11,1.11,0,0,1,.67.23.58.58,0,0,1,.2.44.61.61,0,0,1-.16.44A1.43,1.43,0,0,1,27,11l-1.32.52a.85.85,0,0,1-.45-.23.54.54,0,0,1-.17-.38.51.51,0,0,1,.07-.26.52.52,0,0,1,.23-.2Z"/><path class="cls-4" d="M32.34,13.08a1.42,1.42,0,0,0-1.13.45,1.88,1.88,0,0,0-.39,1.28,1.77,1.77,0,0,0,.44,1.29,1.56,1.56,0,0,0,1.18.45,1.84,1.84,0,0,0,.67-.11,4.52,4.52,0,0,0,.52-.24,1,1,0,0,1,.25.32A1,1,0,0,1,34,17a.79.79,0,0,1-.44.67,2.56,2.56,0,0,1-1.33.27A3.94,3.94,0,0,1,31,17.72a2.7,2.7,0,0,1-1-.56,2.65,2.65,0,0,1-.67-1,3.56,3.56,0,0,1-.24-1.39,3.45,3.45,0,0,1,.24-1.32,2.81,2.81,0,0,1,.64-1,2.7,2.7,0,0,1,1-.6,3.36,3.36,0,0,1,1.17-.2,2.69,2.69,0,0,1,1.37.29.85.85,0,0,1,.48.74.75.75,0,0,1-.12.43,1,1,0,0,1-.29.29A3.12,3.12,0,0,0,33,13.2,1.74,1.74,0,0,0,32.34,13.08Z"/><path class="cls-4" d="M36.24,12.08a2,2,0,0,1,.49-.18,2.63,2.63,0,0,1,.67-.09,2.4,2.4,0,0,1,.85.14.74.74,0,0,1,.48.44q.17.5.37,1.16t.4,1.37l.39,1.39.34,1.21a.78.78,0,0,1-.35.22,1.64,1.64,0,0,1-.55.08,1.72,1.72,0,0,1-.39,0,.69.69,0,0,1-.26-.12.56.56,0,0,1-.16-.2,1.72,1.72,0,0,1-.11-.29l-.17-.66H36.51l-.15.6-.15.59-.28.08a1.69,1.69,0,0,1-.36,0,1.26,1.26,0,0,1-.73-.17.54.54,0,0,1-.24-.47,1,1,0,0,1,0-.27l.09-.32q.07-.26.19-.64l.26-.83q.14-.45.31-.92l.31-.89.26-.74Zm1.15,1.24-.3.9q-.17.49-.3,1H38q-.13-.52-.27-1l-.25-.89Z"/><path class="cls-2" d="M19.81,17.1a.92.92,0,0,1-.32.17,1.49,1.49,0,0,1-.46.06,1.61,1.61,0,0,1-.57-.09.46.46,0,0,1-.29-.3l-.44-1.37q-.17-.52-.27-.92h0q0,.57,0,1t0,.91q0,.44,0,.89t0,1a1.74,1.74,0,0,1-.33.08,2.42,2.42,0,0,1-.4,0,1.33,1.33,0,0,1-.66-.13.51.51,0,0,1-.24-.49l.28-4.9a.91.91,0,0,1,.34-.27,1.52,1.52,0,0,1,.73-.14,1.67,1.67,0,0,1,.8.16.94.94,0,0,1,.42.51l.19.53.2.61.2.63.17.56h0q.23-.81.46-1.56t.42-1.26a1.52,1.52,0,0,1,.37-.13,2.22,2.22,0,0,1,.5-.05,1.83,1.83,0,0,1,.77.14.55.55,0,0,1,.35.4q0,.19.08.59t.09.9q0,.5.1,1.06l.09,1.07q0,.51.07.94c0,.29,0,.5,0,.66a1.26,1.26,0,0,1-.34.14,2,2,0,0,1-.46,0,1.37,1.37,0,0,1-.61-.12.53.53,0,0,1-.27-.49q-.06-1-.07-1.88t0-1.4h0q-.1.38-.28.94T19.81,17.1Z"/><path class="cls-2" d="M23.37,13.6a.83.83,0,0,1,.89-.89h3.17a1.17,1.17,0,0,1,.12.28,1.24,1.24,0,0,1,.05.36.7.7,0,0,1-.16.52A.57.57,0,0,1,27,14H25v.89h2.16a1.17,1.17,0,0,1,.12.27,1.19,1.19,0,0,1,.05.36.72.72,0,0,1-.15.52.56.56,0,0,1-.41.15H25v1h2.47a1.16,1.16,0,0,1,.12.28,1.26,1.26,0,0,1,.05.36.72.72,0,0,1-.16.52.56.56,0,0,1-.42.16h-2.8a.83.83,0,0,1-.89-.89ZM26,10.36a1.11,1.11,0,0,1,.67.23.58.58,0,0,1,.2.44.61.61,0,0,1-.16.44,1.43,1.43,0,0,1-.49.3l-1.32.52a.85.85,0,0,1-.45-.23.54.54,0,0,1-.17-.38.51.51,0,0,1,.07-.26.52.52,0,0,1,.23-.2Z"/><path class="cls-2" d="M31.54,13.88a1.42,1.42,0,0,0-1.13.45A1.88,1.88,0,0,0,30,15.61a1.77,1.77,0,0,0,.44,1.29,1.56,1.56,0,0,0,1.18.45,1.84,1.84,0,0,0,.67-.11,4.52,4.52,0,0,0,.52-.24,1,1,0,0,1,.25.32,1,1,0,0,1,.09.44.79.79,0,0,1-.44.67,2.56,2.56,0,0,1-1.33.27,3.94,3.94,0,0,1-1.21-.18,2.7,2.7,0,0,1-1-.56,2.65,2.65,0,0,1-.67-1,3.56,3.56,0,0,1-.24-1.39,3.45,3.45,0,0,1,.24-1.32,2.81,2.81,0,0,1,.64-1,2.7,2.7,0,0,1,1-.6,3.36,3.36,0,0,1,1.17-.2,2.69,2.69,0,0,1,1.37.29.85.85,0,0,1,.48.74A.75.75,0,0,1,33,14a1,1,0,0,1-.29.29A3.12,3.12,0,0,0,32.2,14,1.74,1.74,0,0,0,31.54,13.88Z"/><path class="cls-2" d="M35.44,12.88a2,2,0,0,1,.49-.18,2.63,2.63,0,0,1,.67-.09,2.4,2.4,0,0,1,.85.14.74.74,0,0,1,.48.44q.17.5.37,1.16t.4,1.37l.39,1.39.34,1.21a.78.78,0,0,1-.35.22,1.64,1.64,0,0,1-.55.08,1.72,1.72,0,0,1-.39,0,.69.69,0,0,1-.26-.12.56.56,0,0,1-.16-.2,1.72,1.72,0,0,1-.11-.29l-.17-.66H35.71l-.15.6-.15.59-.28.08a1.69,1.69,0,0,1-.36,0,1.26,1.26,0,0,1-.73-.17A.54.54,0,0,1,33.8,18a1,1,0,0,1,0-.27l.09-.32q.07-.26.19-.64l.26-.83q.14-.45.31-.92l.31-.89.26-.74Zm1.15,1.24-.3.9q-.17.49-.3,1h1.19q-.13-.52-.27-1l-.25-.89Z"/></g></g><g id="Modules"><g id="Menu_gauche"><g id="Usinage"><path class="cls-2" d="M20.82,58.44a1.52,1.52,0,0,1-.11.59,1.26,1.26,0,0,1-.32.46,1.45,1.45,0,0,1-.51.29,2.3,2.3,0,0,1-1.36,0,1.44,1.44,0,0,1-.51-.29,1.26,1.26,0,0,1-.32-.46,1.53,1.53,0,0,1-.11-.59V56.14l.21,0,.28,0,.24,0a.44.44,0,0,1,.18.07.33.33,0,0,1,.11.15.73.73,0,0,1,0,.25v1.83a.61.61,0,0,0,.16.45.61.61,0,0,0,.82,0,.62.62,0,0,0,.16-.45V56.14l.21,0,.28,0,.24,0a.44.44,0,0,1,.18.07.33.33,0,0,1,.11.15.73.73,0,0,1,0,.25Z"/><path class="cls-2" d="M24,58.91a.85.85,0,0,1-.34.71,1.66,1.66,0,0,1-1,.26,2.86,2.86,0,0,1-.47,0,1.34,1.34,0,0,1-.37-.11.66.66,0,0,1-.24-.19.43.43,0,0,1-.09-.27.46.46,0,0,1,.06-.24.61.61,0,0,1,.14-.17,2.39,2.39,0,0,0,.4.17,1.63,1.63,0,0,0,.52.08.6.6,0,0,0,.29-.05.16.16,0,0,0,.1-.14.15.15,0,0,0-.07-.13.68.68,0,0,0-.24-.08l-.18,0a1.68,1.68,0,0,1-.78-.32.78.78,0,0,1-.25-.63.83.83,0,0,1,.37-.7,1.35,1.35,0,0,1,.42-.19,2,2,0,0,1,.54-.07,2.5,2.5,0,0,1,.42,0,1.36,1.36,0,0,1,.34.1.61.61,0,0,1,.23.17.38.38,0,0,1,.08.25.52.52,0,0,1-.05.24.54.54,0,0,1-.13.17l-.14-.06-.21-.06-.23,0-.21,0a.83.83,0,0,0-.31,0,.15.15,0,0,0-.11.14.13.13,0,0,0,.06.11.68.68,0,0,0,.23.08l.19,0a1.76,1.76,0,0,1,.82.36A.79.79,0,0,1,24,58.91Z"/><path class="cls-2" d="M24.43,56.05a.53.53,0,0,1,.15-.38.6.6,0,0,1,.81,0,.56.56,0,0,1,0,.77.6.6,0,0,1-.81,0A.53.53,0,0,1,24.43,56.05Zm1.07,3.72-.19,0-.26,0-.24,0a.4.4,0,0,1-.18-.07.35.35,0,0,1-.11-.15.64.64,0,0,1,0-.24V56.91l.19,0,.26,0,.24,0a.4.4,0,0,1,.18.07.35.35,0,0,1,.11.15.64.64,0,0,1,0,.24Z"/><path class="cls-2" d="M28,57.93a.34.34,0,0,0-.1-.27.44.44,0,0,0-.29-.09,1,1,0,0,0-.24,0,.61.61,0,0,0-.2.09v2.08l-.19,0-.27,0-.24,0a.4.4,0,0,1-.18-.07.35.35,0,0,1-.11-.15.63.63,0,0,1,0-.24v-1.8a.46.46,0,0,1,.07-.26.73.73,0,0,1,.19-.19,1.73,1.73,0,0,1,.51-.23,2.45,2.45,0,0,1,.69-.09,1.62,1.62,0,0,1,1,.3,1,1,0,0,1,.37.83v1.88l-.19,0-.27,0-.24,0a.4.4,0,0,1-.18-.07.35.35,0,0,1-.11-.15.63.63,0,0,1,0-.24Z"/><path class="cls-2" d="M30.85,56.77a2.47,2.47,0,0,1,.59.07,1.32,1.32,0,0,1,.46.2.91.91,0,0,1,.29.34,1.1,1.1,0,0,1,.1.49v1.34a.37.37,0,0,1-.09.25.88.88,0,0,1-.21.17,2.14,2.14,0,0,1-1.1.23,2.51,2.51,0,0,1-.57-.06,1.36,1.36,0,0,1-.44-.18.83.83,0,0,1-.28-.31.9.9,0,0,1-.1-.43.81.81,0,0,1,.25-.64,1.33,1.33,0,0,1,.76-.28l.79-.08v0a.26.26,0,0,0-.15-.25,1,1,0,0,0-.44-.08,2,2,0,0,0-.44,0,2.34,2.34,0,0,0-.39.12.41.41,0,0,1-.13-.17.53.53,0,0,1-.05-.23.39.39,0,0,1,.07-.25A.58.58,0,0,1,30,56.9a1.81,1.81,0,0,1,.41-.1Zm0,2.36.23,0a.55.55,0,0,0,.18-.06v-.48l-.43,0a.67.67,0,0,0-.28.07.19.19,0,0,0-.11.18.24.24,0,0,0,.09.19A.51.51,0,0,0,30.89,59.13Z"/><path class="cls-2" d="M34.33,56.77a2.08,2.08,0,0,1,.62.09,1.64,1.64,0,0,1,.47.23.74.74,0,0,1,.19.19.46.46,0,0,1,.07.26v2.1a1.17,1.17,0,0,1-.12.55,1.11,1.11,0,0,1-.33.38,1.4,1.4,0,0,1-.49.23,2.39,2.39,0,0,1-.6.07,2,2,0,0,1-.86-.15A.53.53,0,0,1,33,60a.48.48,0,0,1,.13-.16,2.05,2.05,0,0,0,.39.16,1.56,1.56,0,0,0,.45.07,1.06,1.06,0,0,0,.52-.11.37.37,0,0,0,.19-.35v-.1a1.49,1.49,0,0,1-.6.11,1.62,1.62,0,0,1-.51-.08,1.15,1.15,0,0,1-.43-.25,1.23,1.23,0,0,1-.29-.44,1.68,1.68,0,0,1-.11-.64,1.6,1.6,0,0,1,.12-.64,1.21,1.21,0,0,1,.32-.45,1.35,1.35,0,0,1,.49-.26A2.11,2.11,0,0,1,34.33,56.77Zm.37.87-.12,0-.2,0a.56.56,0,0,0-.44.17.69.69,0,0,0-.15.47.71.71,0,0,0,.15.5.5.5,0,0,0,.38.15.61.61,0,0,0,.39-.11Z"/><path class="cls-2" d="M37.85,59.88a2.11,2.11,0,0,1-.66-.1,1.49,1.49,0,0,1-.53-.3,1.38,1.38,0,0,1-.35-.5,1.77,1.77,0,0,1-.13-.7,1.64,1.64,0,0,1,.13-.68,1.32,1.32,0,0,1,.82-.74,1.79,1.79,0,0,1,.55-.09,1.67,1.67,0,0,1,.58.1,1.4,1.4,0,0,1,.45.26,1.17,1.17,0,0,1,.29.4,1.23,1.23,0,0,1,.1.51.41.41,0,0,1-.11.31.57.57,0,0,1-.32.14l-1.48.22a.5.5,0,0,0,.27.3,1.06,1.06,0,0,0,.47.1,1.67,1.67,0,0,0,.46-.06,1.47,1.47,0,0,0,.36-.15.5.5,0,0,1,.16.17.44.44,0,0,1-.19.63,1.33,1.33,0,0,1-.43.14A3.06,3.06,0,0,1,37.85,59.88Zm-.17-2.36a.59.59,0,0,0-.25,0,.49.49,0,0,0-.17.12.51.51,0,0,0-.1.17.69.69,0,0,0,0,.19l1-.17a.45.45,0,0,0-.13-.24A.44.44,0,0,0,37.69,57.52Z"/></g></g></g></g></g></svg>