<svg width="20mm" height="25mm" xmlns="http://www.w3.org/2000/svg" viewBox="0 0 56.69 70.87"><defs><style>.cls-1{fill:#3c3e6a;}.cls-2{fill:#fff;}.cls-3{fill:#ef2d6d;}.cls-4{fill:#f17da3;}</style></defs><title>Fichier 8</title><g id="Calque_2" data-name="Calque 2"><g id="Calque_1-2" data-name="Calque 1"><g id="Cotés"><g id="Barre_latérale_haut"><rect class="cls-1" x="2.5" y="2.5" width="51.69" height="65.87"/><path class="cls-2" d="M51.69,5V65.87H5V5H51.69m5-5H0V70.87H56.69V0Z"/></g></g><g id="Petites_cases"><g id="MEDIA"><path class="cls-3" d="M19.53,15.52a.92.92,0,0,1-.32.17,1.49,1.49,0,0,1-.46.06,1.61,1.61,0,0,1-.57-.09.46.46,0,0,1-.29-.3L17.45,14q-.17-.52-.27-.92h0q0,.57,0,1t0,.91q0,.44,0,.89t0,1a1.74,1.74,0,0,1-.33.08,2.42,2.42,0,0,1-.4,0,1.33,1.33,0,0,1-.66-.13.51.51,0,0,1-.24-.49l.28-4.9a.91.91,0,0,1,.34-.27,1.52,1.52,0,0,1,.73-.14,1.67,1.67,0,0,1,.8.16.94.94,0,0,1,.42.51l.19.53.2.61.2.63.17.56h0q.23-.81.46-1.56t.42-1.26a1.52,1.52,0,0,1,.37-.13,2.22,2.22,0,0,1,.5-.05,1.83,1.83,0,0,1,.77.14.55.55,0,0,1,.35.4q0,.19.08.59t.09.9q0,.5.1,1.06L22,15.24q0,.51.07.94c0,.29,0,.5,0,.66a1.26,1.26,0,0,1-.34.14,2,2,0,0,1-.46,0,1.37,1.37,0,0,1-.61-.12.53.53,0,0,1-.27-.49q-.06-1-.07-1.88t0-1.4h0q-.1.38-.28.94T19.53,15.52Z"/><path class="cls-3" d="M23.09,12a.83.83,0,0,1,.89-.89h3.17a1.17,1.17,0,0,1,.12.28,1.24,1.24,0,0,1,.05.36.7.7,0,0,1-.16.52.57.57,0,0,1-.42.15h-2v.89h2.16a1.17,1.17,0,0,1,.12.27,1.19,1.19,0,0,1,.05.36.72.72,0,0,1-.15.52.56.56,0,0,1-.41.15H24.73v1h2.47a1.16,1.16,0,0,1,.12.28,1.26,1.26,0,0,1,.05.36.72.72,0,0,1-.16.52.56.56,0,0,1-.42.16H24a.83.83,0,0,1-.89-.89Zm2.59-3.24a1.11,1.11,0,0,1,.67.23.58.58,0,0,1,.2.44.61.61,0,0,1-.16.44,1.43,1.43,0,0,1-.49.3l-1.32.52a.85.85,0,0,1-.45-.23.54.54,0,0,1-.17-.38A.51.51,0,0,1,24,9.82a.52.52,0,0,1,.23-.2Z"/><path class="cls-3" d="M30.56,17.1h-.37l-.44,0L29.3,17a2.26,2.26,0,0,1-.42-.12.71.71,0,0,1-.53-.7V11.68a.42.42,0,0,1,.11-.31.79.79,0,0,1,.3-.18,4.06,4.06,0,0,1,.87-.18q.46,0,.83,0a4.75,4.75,0,0,1,1.36.18,2.79,2.79,0,0,1,1,.56,2.53,2.53,0,0,1,.68,1A3.53,3.53,0,0,1,33.79,14a3.57,3.57,0,0,1-.23,1.34,2.58,2.58,0,0,1-.66,1,2.75,2.75,0,0,1-1,.58A4.26,4.26,0,0,1,30.56,17.1ZM30,15.7l.26,0h.29a1.8,1.8,0,0,0,.6-.1,1.21,1.21,0,0,0,.47-.3,1.37,1.37,0,0,0,.31-.52,2.39,2.39,0,0,0,.11-.77,1.86,1.86,0,0,0-.4-1.3,1.4,1.4,0,0,0-1.08-.44h-.27l-.28,0Z"/><path class="cls-3" d="M36.43,16.91,36.1,17l-.45,0a2,2,0,0,1-.39,0,.68.68,0,0,1-.28-.12.52.52,0,0,1-.17-.24,1.17,1.17,0,0,1-.06-.4V11.13l.34-.05a3,3,0,0,1,.44,0,2,2,0,0,1,.39,0,.7.7,0,0,1,.28.12.52.52,0,0,1,.17.24,1.17,1.17,0,0,1,.06.4Z"/><path class="cls-3" d="M38.91,11.3a2,2,0,0,1,.49-.18,2.63,2.63,0,0,1,.67-.09,2.4,2.4,0,0,1,.85.14.74.74,0,0,1,.48.44q.17.5.37,1.16t.4,1.37l.39,1.39.34,1.21a.78.78,0,0,1-.35.22A1.64,1.64,0,0,1,42,17a1.72,1.72,0,0,1-.39,0,.69.69,0,0,1-.26-.12.56.56,0,0,1-.16-.2,1.72,1.72,0,0,1-.11-.29l-.17-.66H39.18l-.15.6-.15.59-.28.08a1.69,1.69,0,0,1-.36,0,1.26,1.26,0,0,1-.73-.17.54.54,0,0,1-.24-.47,1,1,0,0,1,0-.27l.09-.32q.07-.26.19-.64l.26-.83q.14-.45.31-.92l.31-.89.26-.74Zm1.15,1.24-.3.9q-.17.49-.3,1h1.19q-.13-.52-.27-1l-.25-.89Z"/><path class="cls-4" d="M18.73,16.32a.92.92,0,0,1-.32.17,1.49,1.49,0,0,1-.46.06,1.61,1.61,0,0,1-.57-.09.46.46,0,0,1-.29-.3l-.44-1.37q-.17-.52-.27-.92h0q0,.57,0,1t0,.91q0,.44,0,.89t0,1a1.74,1.74,0,0,1-.33.08,2.42,2.42,0,0,1-.4,0,1.33,1.33,0,0,1-.66-.13.51.51,0,0,1-.24-.49l.28-4.9A.91.91,0,0,1,15.2,12a1.52,1.52,0,0,1,.73-.14,1.67,1.67,0,0,1,.8.16.94.94,0,0,1,.42.51l.19.53.2.61.2.63.17.56h0q.23-.81.46-1.56t.42-1.26a1.52,1.52,0,0,1,.37-.13,2.22,2.22,0,0,1,.5-.05,1.83,1.83,0,0,1,.77.14.55.55,0,0,1,.35.4q0,.19.08.59t.09.9q0,.5.1,1.06L21.19,16q0,.51.07.94c0,.29,0,.5,0,.66a1.26,1.26,0,0,1-.34.14,2,2,0,0,1-.46,0,1.37,1.37,0,0,1-.61-.12.53.53,0,0,1-.27-.49q-.06-1-.07-1.88t0-1.4h0q-.1.38-.28.94T18.73,16.32Z"/><path class="cls-4" d="M22.29,12.82a.83.83,0,0,1,.89-.89h3.17a1.17,1.17,0,0,1,.12.28,1.24,1.24,0,0,1,.05.36.7.7,0,0,1-.16.52.57.57,0,0,1-.42.15h-2v.89h2.16a1.17,1.17,0,0,1,.12.27,1.19,1.19,0,0,1,.05.36.72.72,0,0,1-.15.52.56.56,0,0,1-.41.15H23.93v1h2.47a1.16,1.16,0,0,1,.12.28,1.26,1.26,0,0,1,.05.36.72.72,0,0,1-.16.52.56.56,0,0,1-.42.16h-2.8a.83.83,0,0,1-.89-.89Zm2.59-3.24a1.11,1.11,0,0,1,.67.23.58.58,0,0,1,.2.44.61.61,0,0,1-.16.44,1.43,1.43,0,0,1-.49.3l-1.32.52a.85.85,0,0,1-.45-.23.54.54,0,0,1-.17-.38.51.51,0,0,1,.07-.26.52.52,0,0,1,.23-.2Z"/><path class="cls-4" d="M29.76,17.9h-.37l-.44,0-.45-.07a2.26,2.26,0,0,1-.42-.12.71.71,0,0,1-.53-.7V12.48a.42.42,0,0,1,.11-.31A.79.79,0,0,1,28,12a4.06,4.06,0,0,1,.87-.18q.46,0,.83,0a4.75,4.75,0,0,1,1.36.18,2.79,2.79,0,0,1,1,.56,2.53,2.53,0,0,1,.68,1A3.53,3.53,0,0,1,33,14.83a3.57,3.57,0,0,1-.23,1.34,2.58,2.58,0,0,1-.66,1,2.75,2.75,0,0,1-1,.58A4.26,4.26,0,0,1,29.76,17.9Zm-.54-1.4.26,0h.29a1.8,1.8,0,0,0,.6-.1,1.21,1.21,0,0,0,.47-.3,1.37,1.37,0,0,0,.31-.52,2.39,2.39,0,0,0,.11-.77,1.86,1.86,0,0,0-.4-1.3,1.4,1.4,0,0,0-1.08-.44h-.27l-.28,0Z"/><path class="cls-4" d="M35.63,17.71l-.33.06-.45,0a2,2,0,0,1-.39,0,.68.68,0,0,1-.28-.12A.52.52,0,0,1,34,17.4a1.17,1.17,0,0,1-.06-.4V11.93l.34-.05a3,3,0,0,1,.44,0,2,2,0,0,1,.39,0,.7.7,0,0,1,.28.12.52.52,0,0,1,.17.24,1.17,1.17,0,0,1,.06.4Z"/><path class="cls-4" d="M38.11,12.1a2,2,0,0,1,.49-.18,2.63,2.63,0,0,1,.67-.09,2.4,2.4,0,0,1,.85.14.74.74,0,0,1,.48.44q.17.5.37,1.16t.4,1.37l.39,1.39.34,1.21a.78.78,0,0,1-.35.22,1.64,1.64,0,0,1-.55.08,1.72,1.72,0,0,1-.39,0,.69.69,0,0,1-.26-.12.56.56,0,0,1-.16-.2,1.72,1.72,0,0,1-.11-.29l-.17-.66H38.38l-.15.6-.15.59-.28.08a1.69,1.69,0,0,1-.36,0,1.26,1.26,0,0,1-.73-.17.54.54,0,0,1-.24-.47,1,1,0,0,1,0-.27l.09-.32q.07-.26.19-.64l.26-.83q.14-.45.31-.92l.31-.89.26-.74Zm1.15,1.24-.3.9q-.17.49-.3,1h1.19q-.13-.52-.27-1l-.25-.89Z"/><path class="cls-2" d="M17.93,17.12a.92.92,0,0,1-.32.17,1.49,1.49,0,0,1-.46.06,1.61,1.61,0,0,1-.57-.09.46.46,0,0,1-.29-.3l-.44-1.37q-.17-.52-.27-.92h0q0,.57,0,1t0,.91q0,.44,0,.89t0,1a1.74,1.74,0,0,1-.33.08,2.42,2.42,0,0,1-.4,0,1.33,1.33,0,0,1-.66-.13.51.51,0,0,1-.24-.49l.28-4.9a.91.91,0,0,1,.34-.27,1.52,1.52,0,0,1,.73-.14,1.67,1.67,0,0,1,.8.16.94.94,0,0,1,.42.51l.19.53.2.61.2.63.17.56h0q.23-.81.46-1.56T18,12.87a1.52,1.52,0,0,1,.37-.13,2.22,2.22,0,0,1,.5-.05,1.83,1.83,0,0,1,.77.14.55.55,0,0,1,.35.4q0,.19.08.59t.09.9q0,.5.1,1.06l.09,1.07q0,.51.07.94c0,.29,0,.5,0,.66a1.26,1.26,0,0,1-.34.14,2,2,0,0,1-.46,0,1.37,1.37,0,0,1-.61-.12.53.53,0,0,1-.27-.49q-.06-1-.07-1.88t0-1.4h0q-.1.38-.28.94T17.93,17.12Z"/><path class="cls-2" d="M21.49,13.62a.83.83,0,0,1,.89-.89h3.17a1.17,1.17,0,0,1,.12.28,1.24,1.24,0,0,1,.05.36.7.7,0,0,1-.16.52.57.57,0,0,1-.42.15h-2v.89h2.16a1.17,1.17,0,0,1,.12.27,1.19,1.19,0,0,1,.05.36.72.72,0,0,1-.15.52.56.56,0,0,1-.41.15H23.13v1h2.47a1.16,1.16,0,0,1,.12.28,1.26,1.26,0,0,1,.05.36.72.72,0,0,1-.16.52.56.56,0,0,1-.42.16h-2.8a.83.83,0,0,1-.89-.89Zm2.59-3.24a1.11,1.11,0,0,1,.67.23A.58.58,0,0,1,25,11a.61.61,0,0,1-.16.44,1.43,1.43,0,0,1-.49.3L23,12.3a.85.85,0,0,1-.45-.23.54.54,0,0,1-.17-.38.51.51,0,0,1,.07-.26.52.52,0,0,1,.23-.2Z"/><path class="cls-2" d="M29,18.7h-.37l-.44,0-.45-.07a2.26,2.26,0,0,1-.42-.12.71.71,0,0,1-.53-.7V13.28a.42.42,0,0,1,.11-.31.79.79,0,0,1,.3-.18,4.06,4.06,0,0,1,.87-.18q.46,0,.83,0a4.75,4.75,0,0,1,1.36.18,2.79,2.79,0,0,1,1,.56,2.53,2.53,0,0,1,.68,1,3.53,3.53,0,0,1,.24,1.36A3.57,3.57,0,0,1,32,17a2.58,2.58,0,0,1-.66,1,2.75,2.75,0,0,1-1,.58A4.26,4.26,0,0,1,29,18.7Zm-.54-1.4.26,0H29a1.8,1.8,0,0,0,.6-.1A1.21,1.21,0,0,0,30,17a1.37,1.37,0,0,0,.31-.52,2.39,2.39,0,0,0,.11-.77,1.86,1.86,0,0,0-.4-1.3A1.4,1.4,0,0,0,29,13.92h-.27l-.28,0Z"/><path class="cls-2" d="M34.83,18.51l-.33.06-.45,0a2,2,0,0,1-.39,0,.68.68,0,0,1-.28-.12.52.52,0,0,1-.17-.24,1.17,1.17,0,0,1-.06-.4V12.73l.34-.05a3,3,0,0,1,.44,0,2,2,0,0,1,.39,0,.7.7,0,0,1,.28.12.52.52,0,0,1,.17.24,1.17,1.17,0,0,1,.06.4Z"/><path class="cls-2" d="M37.31,12.9a2,2,0,0,1,.49-.18,2.63,2.63,0,0,1,.67-.09,2.4,2.4,0,0,1,.85.14.74.74,0,0,1,.48.44q.17.5.37,1.16t.4,1.37L41,17.13l.34,1.21a.78.78,0,0,1-.35.22,1.64,1.64,0,0,1-.55.08,1.72,1.72,0,0,1-.39,0,.69.69,0,0,1-.26-.12.56.56,0,0,1-.16-.2,1.72,1.72,0,0,1-.11-.29l-.17-.66H37.58l-.15.6-.15.59-.28.08a1.69,1.69,0,0,1-.36,0,1.26,1.26,0,0,1-.73-.17.54.54,0,0,1-.24-.47,1,1,0,0,1,0-.27l.09-.32q.07-.26.19-.64l.26-.83q.14-.45.31-.92l.31-.89.26-.74Zm1.15,1.24-.3.9q-.17.49-.3,1h1.19q-.13-.52-.27-1l-.25-.89Z"/></g></g><g id="Modules"><g id="Menu_haut"><g id="Web"><path class="cls-2" d="M24.46,57l.21-.07a1.06,1.06,0,0,1,.28,0,1,1,0,0,1,.42.08.33.33,0,0,1,.2.22l.12.46.11.41.11.39.1.4h0c0-.24.07-.48.1-.7s.05-.44.08-.65l.07-.64.07-.64a1,1,0,0,1,.47-.13.74.74,0,0,1,.38.1.35.35,0,0,1,.16.32,3.5,3.5,0,0,1,0,.38q0,.24-.07.54t-.1.63q-.06.33-.13.63t-.13.54a2.92,2.92,0,0,1-.13.38.7.7,0,0,1-.29.14,1.64,1.64,0,0,1-.42.05,1.34,1.34,0,0,1-.48-.07.36.36,0,0,1-.24-.21q-.08-.24-.17-.57L25,58.22c-.06.26-.11.51-.17.76s-.11.46-.16.63a.69.69,0,0,1-.27.14,1.39,1.39,0,0,1-.4.05,1.5,1.5,0,0,1-.49-.07.46.46,0,0,1-.29-.21,2,2,0,0,1-.12-.32Q23,59,23,58.71t-.13-.59q-.07-.32-.13-.64t-.11-.62q0-.3-.07-.56a.85.85,0,0,1,.23-.14.8.8,0,0,1,.32-.07.66.66,0,0,1,.38.1.46.46,0,0,1,.18.33l.16,1,.1.67c0,.17,0,.31.06.41s0,.17,0,.23h0l.1-.44.1-.41.11-.44Q24.4,57.32,24.46,57Z"/><path class="cls-2" d="M29.36,59.86a2.11,2.11,0,0,1-.66-.1,1.49,1.49,0,0,1-.53-.3,1.37,1.37,0,0,1-.35-.5,1.75,1.75,0,0,1-.13-.7,1.63,1.63,0,0,1,.13-.68,1.34,1.34,0,0,1,.34-.47,1.35,1.35,0,0,1,.48-.27,1.79,1.79,0,0,1,.55-.09,1.66,1.66,0,0,1,.58.1,1.39,1.39,0,0,1,.45.26,1.17,1.17,0,0,1,.29.4,1.23,1.23,0,0,1,.11.51.41.41,0,0,1-.11.31.57.57,0,0,1-.32.14l-1.48.22A.5.5,0,0,0,29,59a1.06,1.06,0,0,0,.47.1,1.68,1.68,0,0,0,.46-.06,1.47,1.47,0,0,0,.36-.15.5.5,0,0,1,.16.17.44.44,0,0,1-.19.63,1.33,1.33,0,0,1-.43.14A3.05,3.05,0,0,1,29.36,59.86Zm-.17-2.36a.59.59,0,0,0-.25,0,.49.49,0,0,0-.27.29.67.67,0,0,0,0,.19l1-.17a.46.46,0,0,0-.13-.24A.44.44,0,0,0,29.19,57.5Z"/><path class="cls-2" d="M31.12,55.85l.19,0,.27,0,.24,0a.41.41,0,0,1,.18.07.32.32,0,0,1,.11.15.68.68,0,0,1,0,.24v.59a1.48,1.48,0,0,1,.29-.08l.3,0a1.46,1.46,0,0,1,.55.1,1.35,1.35,0,0,1,.46.3,1.39,1.39,0,0,1,.31.48,1.8,1.8,0,0,1,.11.67A1.82,1.82,0,0,1,34,59a1.31,1.31,0,0,1-.33.48,1.4,1.4,0,0,1-.51.29,2.15,2.15,0,0,1-.67.1,2.12,2.12,0,0,1-.67-.09,1.76,1.76,0,0,1-.47-.23.56.56,0,0,1-.26-.48Zm1.4,3.2a.52.52,0,0,0,.43-.19.88.88,0,0,0,.15-.56.87.87,0,0,0-.16-.56.52.52,0,0,0-.42-.19l-.21,0-.19.07V59l.16.07A.83.83,0,0,0,32.53,59.05Z"/></g></g></g></g></g></svg>