<svg xmlns="http://www.w3.org/2000/svg" viewBox="0 0 141.73 141.73"><defs><style>.cls-1{fill:#330968;}.cls-2{fill:#3c3e6a;}.cls-3{fill:#38196a;}.cls-4{fill:#41a46b;}.cls-5{fill:#73c69c;}.cls-6{fill:#fff;}</style></defs><title>Fichier 4</title><g id="Calque_2" data-name="Calque 2"><g id="Calque_1-2" data-name="Calque 1"><g id="Coins"><g id="Coin"><path class="cls-1" d="M42.52,141.73h99.21V0H0V99.21A42.52,42.52,0,0,1,42.52,141.73Z"/><path class="cls-2" d="M58.65,122.56A61.64,61.64,0,0,0,19.17,83.08V19.17H122.56V122.56Z"/><path class="cls-3" d="M117.56,24.17v93.39H62.18a66.66,66.66,0,0,0-38-38V24.17h93.38m10-10H14.17V86.82a56.79,56.79,0,0,1,40.73,40.73h72.65V14.17Z"/></g></g><g id="Grandes_cases"><g id="Test"><path class="cls-4" d="M46.75,34.18A5.16,5.16,0,0,1,47.23,33a5.28,5.28,0,0,1,1-1.3,3,3,0,0,1,2.08-1.09,2.5,2.5,0,0,1,1.77.81L64.37,43.71a5.23,5.23,0,0,1-.48,1.22,5.29,5.29,0,0,1-1,1.3,3,3,0,0,1-2.08,1.09,2.5,2.5,0,0,1-1.77-.81l-3.14-3.14L42.87,56.44a11.14,11.14,0,0,1-1.15-.81,14.67,14.67,0,0,1-1.4-1.23,8.33,8.33,0,0,1-1-1.24A2.88,2.88,0,0,1,38.8,52a2.16,2.16,0,0,1,.2-1.22,4.87,4.87,0,0,1,1-1.36l11-11Z"/><path class="cls-4" d="M64.59,49.37a3.45,3.45,0,0,1,5.26,0l9.33,9.33a4.84,4.84,0,0,1-.47,1.17,5.2,5.2,0,0,1-.92,1.23,2.93,2.93,0,0,1-2,1.06,2.39,2.39,0,0,1-1.68-.78l-6-6-2.63,2.63,6.36,6.36a4.88,4.88,0,0,1-.45,1.16,5,5,0,0,1-.9,1.22,3,3,0,0,1-2,1.07,2.32,2.32,0,0,1-1.67-.76l-5.2-5.2-3,3L66,72.14a4.82,4.82,0,0,1-.47,1.17,5.2,5.2,0,0,1-.92,1.23,3,3,0,0,1-2,1.08,2.35,2.35,0,0,1-1.7-.76l-8.26-8.26a3.45,3.45,0,0,1,0-5.26Z"/><path class="cls-4" d="M77.41,77.57q-.82-1.67-1.4-3.13a9.81,9.81,0,0,1-.69-2.81A6.21,6.21,0,0,1,75.65,69a6.89,6.89,0,0,1,1.7-2.52,6.55,6.55,0,0,1,5.7-2q3.29.41,6.63,3.75a20.06,20.06,0,0,1,2.09,2.43A9.56,9.56,0,0,1,93,73a4.43,4.43,0,0,1,.27,2.08,2.9,2.9,0,0,1-.86,1.71,3.2,3.2,0,0,1-1.6.92,5,5,0,0,1-1.71.07,9,9,0,0,0-1-2.36,11.83,11.83,0,0,0-2-2.59A5.34,5.34,0,0,0,84,71.3a1.46,1.46,0,0,0-1.49.3,1.16,1.16,0,0,0-.33,1.06,5.38,5.38,0,0,0,.61,1.6l1,2a15.36,15.36,0,0,1,1.92,6.25,6.54,6.54,0,0,1-2.15,5,6.66,6.66,0,0,1-5.78,2q-3.38-.41-7.06-4.09a18.33,18.33,0,0,1-2.21-2.63,10.8,10.8,0,0,1-1.33-2.57,5.09,5.09,0,0,1-.28-2.32A3.16,3.16,0,0,1,67.82,76a3,3,0,0,1,1.88-.92,5.19,5.19,0,0,1,1.94.16,10.86,10.86,0,0,0,.86,3,9.54,9.54,0,0,0,2.05,3,4.75,4.75,0,0,0,2.38,1.53,1.73,1.73,0,0,0,1.56-.42A1.37,1.37,0,0,0,78.89,81a8.3,8.3,0,0,0-.69-1.85Z"/><path class="cls-4" d="M93.33,80.76a5.16,5.16,0,0,1,.48-1.22,5.28,5.28,0,0,1,1-1.3,3,3,0,0,1,2.08-1.09,2.5,2.5,0,0,1,1.77.81L111,90.3a5.23,5.23,0,0,1-.48,1.22,5.29,5.29,0,0,1-1,1.3,3,3,0,0,1-2.08,1.09,2.5,2.5,0,0,1-1.77-.81L102.52,90,89.46,103a11.14,11.14,0,0,1-1.15-.81,14.67,14.67,0,0,1-1.4-1.23,8.33,8.33,0,0,1-1-1.24,2.88,2.88,0,0,1-.48-1.19,2.16,2.16,0,0,1,.2-1.22,4.87,4.87,0,0,1,1-1.36l11-11Z"/></g><g id="Test-2" data-name="Test"><path class="cls-5" d="M42.75,34.18A5.16,5.16,0,0,1,43.23,33a5.28,5.28,0,0,1,1-1.3,3,3,0,0,1,2.08-1.09,2.5,2.5,0,0,1,1.77.81L60.37,43.71a5.23,5.23,0,0,1-.48,1.22,5.29,5.29,0,0,1-1,1.3,3,3,0,0,1-2.08,1.09,2.5,2.5,0,0,1-1.77-.81l-3.14-3.14L38.87,56.44a11.14,11.14,0,0,1-1.15-.81,14.67,14.67,0,0,1-1.4-1.23,8.33,8.33,0,0,1-1-1.24A2.88,2.88,0,0,1,34.8,52a2.16,2.16,0,0,1,.2-1.22,4.87,4.87,0,0,1,1-1.36l11-11Z"/><path class="cls-5" d="M60.59,49.37a3.45,3.45,0,0,1,5.26,0l9.33,9.33a4.84,4.84,0,0,1-.47,1.17,5.2,5.2,0,0,1-.92,1.23,2.93,2.93,0,0,1-2,1.06,2.39,2.39,0,0,1-1.68-.78l-6-6-2.63,2.63,6.36,6.36a4.88,4.88,0,0,1-.45,1.16,5,5,0,0,1-.9,1.22,3,3,0,0,1-2,1.07,2.32,2.32,0,0,1-1.67-.76l-5.2-5.2-3,3L62,72.14a4.82,4.82,0,0,1-.47,1.17,5.2,5.2,0,0,1-.92,1.23,3,3,0,0,1-2,1.08,2.35,2.35,0,0,1-1.7-.76l-8.26-8.26a3.45,3.45,0,0,1,0-5.26Z"/><path class="cls-5" d="M73.41,77.57q-.82-1.67-1.4-3.13a9.81,9.81,0,0,1-.69-2.81A6.21,6.21,0,0,1,71.65,69a6.89,6.89,0,0,1,1.7-2.52,6.55,6.55,0,0,1,5.7-2q3.29.41,6.63,3.75a20.06,20.06,0,0,1,2.09,2.43A9.56,9.56,0,0,1,89,73a4.43,4.43,0,0,1,.27,2.08,2.9,2.9,0,0,1-.86,1.71,3.2,3.2,0,0,1-1.6.92,5,5,0,0,1-1.71.07,9,9,0,0,0-1-2.36,11.83,11.83,0,0,0-2-2.59A5.34,5.34,0,0,0,80,71.3a1.46,1.46,0,0,0-1.49.3,1.16,1.16,0,0,0-.33,1.06,5.38,5.38,0,0,0,.61,1.6l1,2a15.36,15.36,0,0,1,1.92,6.25,6.54,6.54,0,0,1-2.15,5,6.66,6.66,0,0,1-5.78,2q-3.38-.41-7.06-4.09a18.33,18.33,0,0,1-2.21-2.63,10.8,10.8,0,0,1-1.33-2.57,5.09,5.09,0,0,1-.28-2.32A3.16,3.16,0,0,1,63.82,76a3,3,0,0,1,1.88-.92,5.19,5.19,0,0,1,1.94.16,10.86,10.86,0,0,0,.86,3,9.54,9.54,0,0,0,2.05,3,4.75,4.75,0,0,0,2.38,1.53,1.73,1.73,0,0,0,1.56-.42A1.37,1.37,0,0,0,74.89,81a8.3,8.3,0,0,0-.69-1.85Z"/><path class="cls-5" d="M89.33,80.76a5.16,5.16,0,0,1,.48-1.22,5.28,5.28,0,0,1,1-1.3,3,3,0,0,1,2.08-1.09,2.5,2.5,0,0,1,1.77.81L107,90.3a5.23,5.23,0,0,1-.48,1.22,5.29,5.29,0,0,1-1,1.3,3,3,0,0,1-2.08,1.09,2.5,2.5,0,0,1-1.77-.81L98.52,90,85.46,103a11.14,11.14,0,0,1-1.15-.81,14.67,14.67,0,0,1-1.4-1.23,8.33,8.33,0,0,1-1-1.24,2.88,2.88,0,0,1-.48-1.19,2.16,2.16,0,0,1,.2-1.22,4.87,4.87,0,0,1,1-1.36l11-11Z"/></g><g id="Test-3" data-name="Test"><path class="cls-6" d="M38.75,34.18A5.16,5.16,0,0,1,39.23,33a5.28,5.28,0,0,1,1-1.3,3,3,0,0,1,2.08-1.09,2.5,2.5,0,0,1,1.77.81L56.37,43.71a5.23,5.23,0,0,1-.48,1.22,5.29,5.29,0,0,1-1,1.3,3,3,0,0,1-2.08,1.09,2.5,2.5,0,0,1-1.77-.81l-3.14-3.14L34.87,56.44a11.14,11.14,0,0,1-1.15-.81,14.67,14.67,0,0,1-1.4-1.23,8.33,8.33,0,0,1-1-1.24A2.88,2.88,0,0,1,30.8,52a2.16,2.16,0,0,1,.2-1.22,4.87,4.87,0,0,1,1-1.36l11-11Z"/><path class="cls-6" d="M56.59,49.37a3.45,3.45,0,0,1,5.26,0l9.33,9.33a4.84,4.84,0,0,1-.47,1.17,5.2,5.2,0,0,1-.92,1.23,2.93,2.93,0,0,1-2,1.06,2.39,2.39,0,0,1-1.68-.78l-6-6-2.63,2.63,6.36,6.36a4.88,4.88,0,0,1-.45,1.16,5,5,0,0,1-.9,1.22,3,3,0,0,1-2,1.07,2.32,2.32,0,0,1-1.67-.76l-5.2-5.2-3,3L58,72.14a4.82,4.82,0,0,1-.47,1.17,5.2,5.2,0,0,1-.92,1.23,3,3,0,0,1-2,1.08,2.35,2.35,0,0,1-1.7-.76l-8.26-8.26a3.45,3.45,0,0,1,0-5.26Z"/><path class="cls-6" d="M69.41,77.57q-.82-1.67-1.4-3.13a9.81,9.81,0,0,1-.69-2.81A6.21,6.21,0,0,1,67.65,69a6.89,6.89,0,0,1,1.7-2.52,6.55,6.55,0,0,1,5.7-2q3.29.41,6.63,3.75a20.06,20.06,0,0,1,2.09,2.43A9.56,9.56,0,0,1,85,73a4.43,4.43,0,0,1,.27,2.08,2.9,2.9,0,0,1-.86,1.71,3.2,3.2,0,0,1-1.6.92,5,5,0,0,1-1.71.07,9,9,0,0,0-1-2.36,11.83,11.83,0,0,0-2-2.59A5.34,5.34,0,0,0,76,71.3a1.46,1.46,0,0,0-1.49.3,1.16,1.16,0,0,0-.33,1.06,5.38,5.38,0,0,0,.61,1.6l1,2a15.36,15.36,0,0,1,1.92,6.25,6.54,6.54,0,0,1-2.15,5,6.66,6.66,0,0,1-5.78,2q-3.38-.41-7.06-4.09a18.33,18.33,0,0,1-2.21-2.63,10.8,10.8,0,0,1-1.33-2.57,5.09,5.09,0,0,1-.28-2.32A3.16,3.16,0,0,1,59.82,76a3,3,0,0,1,1.88-.92,5.19,5.19,0,0,1,1.94.16,10.86,10.86,0,0,0,.86,3,9.54,9.54,0,0,0,2.05,3,4.75,4.75,0,0,0,2.38,1.53,1.73,1.73,0,0,0,1.56-.42A1.37,1.37,0,0,0,70.89,81a8.3,8.3,0,0,0-.69-1.85Z"/><path class="cls-6" d="M85.33,80.76a5.16,5.16,0,0,1,.48-1.22,5.28,5.28,0,0,1,1-1.3,3,3,0,0,1,2.08-1.09,2.5,2.5,0,0,1,1.77.81L103,90.3a5.23,5.23,0,0,1-.48,1.22,5.29,5.29,0,0,1-1,1.3,3,3,0,0,1-2.08,1.09,2.5,2.5,0,0,1-1.77-.81L94.52,90,81.46,103a11.14,11.14,0,0,1-1.15-.81,14.67,14.67,0,0,1-1.4-1.23,8.33,8.33,0,0,1-1-1.24,2.88,2.88,0,0,1-.48-1.19,2.16,2.16,0,0,1,.2-1.22,4.87,4.87,0,0,1,1-1.36l11-11Z"/></g></g></g></g></svg>