<svg xmlns="http://www.w3.org/2000/svg" viewBox="0 0 141.73 141.73"><defs><style>.cls-1{fill:#330968;}.cls-2{fill:#f13210;}.cls-3{fill:#3c3e6a;}.cls-4{fill:#38196a;}.cls-5{fill:#ee594d;}.cls-6{fill:#f75810;}.cls-7{fill:#41a46b;}.cls-8{fill:#73c69c;}.cls-9{fill:#fff;}</style></defs><title>Fichier 2</title><g id="Calque_2" ><g id="Calque_1-2" ><g id="Coins"><path class="cls-1" d="M141.73,141.73V42.52a42.39,42.39,0,0,1-30.07-12.45L0,141.73Z"/><path class="cls-2" d="M0,0V141.73L111.67,30.07A42.39,42.39,0,0,1,99.21,0Z"/><path class="cls-3" d="M26.25,122.56,101.79,47a61.67,61.67,0,0,0,20.77,11.64v63.9Z"/><path class="cls-4" d="M102.18,53.7a66.68,66.68,0,0,0,15.38,8.47v55.39H38.32L102.18,53.7m-.53-13.61L14.17,127.56H127.56V54.91a56.62,56.62,0,0,1-25.91-14.82Z"/><path class="cls-5" d="M19.17,19.17h63.9A61.68,61.68,0,0,0,94.72,39.95L19.17,115.49Z"/><path class="cls-6" d="M79.56,24.17A66.69,66.69,0,0,0,88,39.56L24.17,103.42V24.17H79.56m7.27-10H14.17V127.56l87.47-87.47A56.62,56.62,0,0,1,86.82,14.17Z"/></g><g id="Grandes_cases"><g id="GO"><path class="cls-7" d="M55.4,60.09a2.34,2.34,0,0,1,.74,1.21A3.42,3.42,0,0,1,56,62.66a6.62,6.62,0,0,1-.41,1.07A11.5,11.5,0,0,1,54.9,65a15.35,15.35,0,0,1-2,2.51,13.63,13.63,0,0,1-3.28,2.45A9.21,9.21,0,0,1,46,71a8.39,8.39,0,0,1-3.65-.53,10.84,10.84,0,0,1-5.89-6,9,9,0,0,1-.5-3.81A9.8,9.8,0,0,1,37.06,57a12.58,12.58,0,0,1,2.3-3.15,9.41,9.41,0,0,1,3.84-2.55,2.71,2.71,0,0,1,2.86.51,2.33,2.33,0,0,1,.68,1.23,3.2,3.2,0,0,1,0,1.27,12.38,12.38,0,0,0-2,.7,7,7,0,0,0-2.1,1.49,5.51,5.51,0,0,0-1.81,3.85,5.3,5.3,0,0,0,1.77,3.87,6.37,6.37,0,0,0,2,1.4,4.54,4.54,0,0,0,1.94.39,4.46,4.46,0,0,0,1.8-.45,5.77,5.77,0,0,0,1.58-1.14,5.12,5.12,0,0,0,.74-.91,3.12,3.12,0,0,0,.36-.74l-2-2L46.79,63.1a4.78,4.78,0,0,1-.86-.37A3.88,3.88,0,0,1,45,62a2.1,2.1,0,0,1-.75-1.45,1.75,1.75,0,0,1,.56-1.24l3.58-3.58a1.72,1.72,0,0,1,2.67,0Z"/><path class="cls-7" d="M52.86,53.94a10.88,10.88,0,0,1-2.41-3.45,8.34,8.34,0,0,1,.11-7,11.39,11.39,0,0,1,5.28-5.28,8.7,8.7,0,0,1,3.44-.83,8.49,8.49,0,0,1,3.56.7,10.88,10.88,0,0,1,3.45,2.41A11.19,11.19,0,0,1,68.71,44a8.38,8.38,0,0,1,.73,3.55,8.52,8.52,0,0,1-.83,3.44,11,11,0,0,1-2.23,3.12,10.79,10.79,0,0,1-3.13,2.22,8.42,8.42,0,0,1-3.45.8,8.66,8.66,0,0,1-3.54-.74A11,11,0,0,1,52.86,53.94Zm3.82-3.82a6.32,6.32,0,0,0,3.67,2.1A4,4,0,0,0,64.57,48a6.33,6.33,0,0,0-2.1-3.67,6.33,6.33,0,0,0-3.64-2.09,3.64,3.64,0,0,0-3.06,1.16,3.71,3.71,0,0,0-1.17,3.05A6.2,6.2,0,0,0,56.67,50.12Z"/><path class="cls-8" d="M53.9,62.59a2.34,2.34,0,0,1,.74,1.21,3.42,3.42,0,0,1-.13,1.36,6.62,6.62,0,0,1-.41,1.07,11.5,11.5,0,0,1-.7,1.25,15.35,15.35,0,0,1-2,2.51,13.63,13.63,0,0,1-3.28,2.45,9.21,9.21,0,0,1-3.57,1.07A8.39,8.39,0,0,1,40.88,73,10.84,10.84,0,0,1,35,67a9,9,0,0,1-.5-3.81,9.8,9.8,0,0,1,1.07-3.64,12.58,12.58,0,0,1,2.3-3.15,9.41,9.41,0,0,1,3.84-2.55,2.71,2.71,0,0,1,2.86.51,2.33,2.33,0,0,1,.68,1.23,3.2,3.2,0,0,1,0,1.27,12.38,12.38,0,0,0-2,.7A7,7,0,0,0,41.19,59a5.51,5.51,0,0,0-1.81,3.85,5.3,5.3,0,0,0,1.77,3.87,6.37,6.37,0,0,0,2,1.4,4.54,4.54,0,0,0,1.94.39,4.46,4.46,0,0,0,1.8-.45A5.77,5.77,0,0,0,48.45,67a5.12,5.12,0,0,0,.74-.91,3.12,3.12,0,0,0,.36-.74l-2-2L45.29,65.6a4.78,4.78,0,0,1-.86-.37,3.88,3.88,0,0,1-.92-.69,2.1,2.1,0,0,1-.75-1.45,1.75,1.75,0,0,1,.56-1.24l3.58-3.58a1.72,1.72,0,0,1,2.67,0Z"/><path class="cls-8" d="M51.36,56.44A10.88,10.88,0,0,1,48.95,53a8.34,8.34,0,0,1,.11-7,11.39,11.39,0,0,1,5.28-5.28,8.7,8.7,0,0,1,3.44-.83,8.49,8.49,0,0,1,3.56.7A10.88,10.88,0,0,1,64.78,43a11.19,11.19,0,0,1,2.43,3.45A8.38,8.38,0,0,1,67.94,50a8.52,8.52,0,0,1-.83,3.44,11,11,0,0,1-2.23,3.12,10.79,10.79,0,0,1-3.13,2.22,8.42,8.42,0,0,1-3.45.8,8.66,8.66,0,0,1-3.54-.74A11,11,0,0,1,51.36,56.44Zm3.82-3.82a6.32,6.32,0,0,0,3.67,2.1,4,4,0,0,0,4.22-4.22A6.33,6.33,0,0,0,61,46.83a6.33,6.33,0,0,0-3.64-2.09,3.64,3.64,0,0,0-3.06,1.16,3.71,3.71,0,0,0-1.17,3.05A6.2,6.2,0,0,0,55.17,52.62Z"/><path class="cls-9" d="M52.4,65.09a2.34,2.34,0,0,1,.74,1.21A3.42,3.42,0,0,1,53,67.66a6.62,6.62,0,0,1-.41,1.07A11.5,11.5,0,0,1,51.9,70a15.35,15.35,0,0,1-2,2.51,13.63,13.63,0,0,1-3.28,2.45A9.21,9.21,0,0,1,43,76a8.39,8.39,0,0,1-3.65-.53,10.84,10.84,0,0,1-5.89-6,9,9,0,0,1-.5-3.81A9.8,9.8,0,0,1,34.06,62a12.58,12.58,0,0,1,2.3-3.15,9.41,9.41,0,0,1,3.84-2.55,2.71,2.71,0,0,1,2.86.51,2.33,2.33,0,0,1,.68,1.23,3.2,3.2,0,0,1,0,1.27,12.38,12.38,0,0,0-2,.7,7,7,0,0,0-2.1,1.49,5.51,5.51,0,0,0-1.81,3.85,5.3,5.3,0,0,0,1.77,3.87,6.37,6.37,0,0,0,2,1.4,4.54,4.54,0,0,0,1.94.39,4.46,4.46,0,0,0,1.8-.45,5.77,5.77,0,0,0,1.58-1.14,5.12,5.12,0,0,0,.74-.91,3.12,3.12,0,0,0,.36-.74l-2-2L43.79,68.1a4.78,4.78,0,0,1-.86-.37A3.88,3.88,0,0,1,42,67a2.1,2.1,0,0,1-.75-1.45,1.75,1.75,0,0,1,.56-1.24l3.58-3.58a1.72,1.72,0,0,1,2.67,0Z"/><path class="cls-9" d="M49.86,58.94a10.88,10.88,0,0,1-2.41-3.45,8.34,8.34,0,0,1,.11-7,11.39,11.39,0,0,1,5.28-5.28,8.7,8.7,0,0,1,3.44-.83,8.49,8.49,0,0,1,3.56.7,10.88,10.88,0,0,1,3.45,2.41A11.19,11.19,0,0,1,65.71,49a8.38,8.38,0,0,1,.73,3.55,8.52,8.52,0,0,1-.83,3.44,11,11,0,0,1-2.23,3.12,10.79,10.79,0,0,1-3.13,2.22,8.42,8.42,0,0,1-3.45.8,8.66,8.66,0,0,1-3.54-.74A11,11,0,0,1,49.86,58.94Zm3.82-3.82a6.32,6.32,0,0,0,3.67,2.1A4,4,0,0,0,61.57,53a6.33,6.33,0,0,0-2.1-3.67,6.33,6.33,0,0,0-3.64-2.09,3.64,3.64,0,0,0-3.06,1.16,3.71,3.71,0,0,0-1.17,3.05A6.2,6.2,0,0,0,53.67,55.12Z"/></g><g id="Test"><path class="cls-7" d="M114.14,71.76a3.87,3.87,0,0,1,.91.36,4,4,0,0,1,1,.72,2.27,2.27,0,0,1,.82,1.56,1.88,1.88,0,0,1-.6,1.33L107,85a3.92,3.92,0,0,1-.91-.36,4,4,0,0,1-1-.72,2.27,2.27,0,0,1-.82-1.56,1.88,1.88,0,0,1,.6-1.33l2.35-2.35-9.8-9.8A8.36,8.36,0,0,1,98,68,11,11,0,0,1,99,66.95a6.25,6.25,0,0,1,.93-.78,2.16,2.16,0,0,1,.89-.36,1.62,1.62,0,0,1,.91.15,3.65,3.65,0,0,1,1,.76L111,74.94Z"/><path class="cls-7" d="M102.75,85.15a2.59,2.59,0,0,1,0,3.95l-7,7a3.63,3.63,0,0,1-.88-.35,3.9,3.9,0,0,1-.92-.69,2.2,2.2,0,0,1-.8-1.5,1.79,1.79,0,0,1,.58-1.26l4.48-4.48-2-2-4.77,4.77a3.66,3.66,0,0,1-.87-.34,3.74,3.74,0,0,1-.91-.68,2.24,2.24,0,0,1-.81-1.48,1.74,1.74,0,0,1,.57-1.25l3.9-3.9-2.23-2.23-5.45,5.45a3.62,3.62,0,0,1-.88-.35,3.9,3.9,0,0,1-.92-.69,2.25,2.25,0,0,1-.81-1.51,1.77,1.77,0,0,1,.57-1.27l6.19-6.19a2.59,2.59,0,0,1,3.95,0Z"/><path class="cls-7" d="M81.6,94.76q1.25-.62,2.34-1.05a7.36,7.36,0,0,1,2.11-.52,4.66,4.66,0,0,1,2,.25,5.17,5.17,0,0,1,1.89,1.27A4.91,4.91,0,0,1,91.41,99a8.77,8.77,0,0,1-2.81,5,15,15,0,0,1-1.82,1.57,7.17,7.17,0,0,1-1.74,1,3.32,3.32,0,0,1-1.56.2,2.18,2.18,0,0,1-1.28-.65,2.4,2.4,0,0,1-.69-1.2,3.75,3.75,0,0,1-.05-1.28,6.78,6.78,0,0,0,1.77-.73,8.87,8.87,0,0,0,1.94-1.5,4,4,0,0,0,1.13-1.67,1.09,1.09,0,0,0-.22-1.11.87.87,0,0,0-.8-.24,4,4,0,0,0-1.2.46l-1.48.76A11.52,11.52,0,0,1,77.91,101a4.91,4.91,0,0,1-3.75-1.61A5,5,0,0,1,72.66,95a9.45,9.45,0,0,1,3.07-5.29,13.75,13.75,0,0,1,2-1.65,8.1,8.1,0,0,1,1.93-1,3.82,3.82,0,0,1,1.74-.21,2.37,2.37,0,0,1,1.4.7A2.25,2.25,0,0,1,83.45,89a3.89,3.89,0,0,1-.12,1.45,8.14,8.14,0,0,0-2.26.65,7.15,7.15,0,0,0-2.22,1.54,3.56,3.56,0,0,0-1.15,1.78A1.3,1.3,0,0,0,78,95.56a1,1,0,0,0,1,.31,6.22,6.22,0,0,0,1.39-.52Z"/><path class="cls-7" d="M79.2,106.7a3.87,3.87,0,0,1,.91.36,4,4,0,0,1,1,.72,2.27,2.27,0,0,1,.82,1.56,1.88,1.88,0,0,1-.6,1.33l-9.25,9.25a3.92,3.92,0,0,1-.91-.36,4,4,0,0,1-1-.72,2.27,2.27,0,0,1-.82-1.56,1.88,1.88,0,0,1,.6-1.33l2.35-2.35-9.8-9.8a8.36,8.36,0,0,1,.6-.86,11,11,0,0,1,.92-1.05,6.25,6.25,0,0,1,.93-.78,2.16,2.16,0,0,1,.89-.36,1.62,1.62,0,0,1,.91.15,3.65,3.65,0,0,1,1,.76L76,109.88Z"/></g><g id="Test-2"><path class="cls-8" d="M114.14,68.76a3.87,3.87,0,0,1,.91.36,4,4,0,0,1,1,.72,2.27,2.27,0,0,1,.82,1.56,1.88,1.88,0,0,1-.6,1.33L107,82a3.92,3.92,0,0,1-.91-.36,4,4,0,0,1-1-.72,2.27,2.27,0,0,1-.82-1.56,1.88,1.88,0,0,1,.6-1.33l2.35-2.35-9.8-9.8A8.36,8.36,0,0,1,98,65,11,11,0,0,1,99,63.95a6.25,6.25,0,0,1,.93-.78,2.16,2.16,0,0,1,.89-.36,1.62,1.62,0,0,1,.91.15,3.65,3.65,0,0,1,1,.76L111,71.94Z"/><path class="cls-8" d="M102.75,82.15a2.59,2.59,0,0,1,0,3.95l-7,7a3.63,3.63,0,0,1-.88-.35,3.9,3.9,0,0,1-.92-.69,2.2,2.2,0,0,1-.8-1.5,1.79,1.79,0,0,1,.58-1.26l4.48-4.48-2-2-4.77,4.77a3.66,3.66,0,0,1-.87-.34,3.74,3.74,0,0,1-.91-.68,2.24,2.24,0,0,1-.81-1.48,1.74,1.74,0,0,1,.57-1.25l3.9-3.9-2.23-2.23-5.45,5.45a3.62,3.62,0,0,1-.88-.35,3.9,3.9,0,0,1-.92-.69,2.25,2.25,0,0,1-.81-1.51,1.77,1.77,0,0,1,.57-1.27l6.19-6.19a2.59,2.59,0,0,1,3.95,0Z"/><path class="cls-8" d="M81.6,91.76q1.25-.62,2.34-1.05a7.36,7.36,0,0,1,2.11-.52,4.66,4.66,0,0,1,2,.25,5.17,5.17,0,0,1,1.89,1.27A4.91,4.91,0,0,1,91.41,96a8.77,8.77,0,0,1-2.81,5,15,15,0,0,1-1.82,1.57,7.17,7.17,0,0,1-1.74,1,3.32,3.32,0,0,1-1.56.2,2.18,2.18,0,0,1-1.28-.65,2.4,2.4,0,0,1-.69-1.2,3.75,3.75,0,0,1-.05-1.28,6.78,6.78,0,0,0,1.77-.73,8.87,8.87,0,0,0,1.94-1.5,4,4,0,0,0,1.13-1.67,1.09,1.09,0,0,0-.22-1.11.87.87,0,0,0-.8-.24,4,4,0,0,0-1.2.46l-1.48.76A11.52,11.52,0,0,1,77.91,98a4.91,4.91,0,0,1-3.75-1.61A5,5,0,0,1,72.66,92a9.45,9.45,0,0,1,3.07-5.29,13.75,13.75,0,0,1,2-1.65,8.1,8.1,0,0,1,1.93-1,3.82,3.82,0,0,1,1.74-.21,2.37,2.37,0,0,1,1.4.7A2.25,2.25,0,0,1,83.45,86a3.89,3.89,0,0,1-.12,1.45,8.14,8.14,0,0,0-2.26.65,7.15,7.15,0,0,0-2.22,1.54,3.56,3.56,0,0,0-1.15,1.78A1.3,1.3,0,0,0,78,92.56a1,1,0,0,0,1,.31,6.22,6.22,0,0,0,1.39-.52Z"/><path class="cls-8" d="M79.2,103.7a3.87,3.87,0,0,1,.91.36,4,4,0,0,1,1,.72,2.27,2.27,0,0,1,.82,1.56,1.88,1.88,0,0,1-.6,1.33l-9.25,9.25a3.92,3.92,0,0,1-.91-.36,4,4,0,0,1-1-.72,2.27,2.27,0,0,1-.82-1.56,1.88,1.88,0,0,1,.6-1.33l2.35-2.35-9.8-9.8a8.36,8.36,0,0,1,.6-.86A11,11,0,0,1,64,98.88,6.25,6.25,0,0,1,65,98.1a2.16,2.16,0,0,1,.89-.36,1.62,1.62,0,0,1,.91.15,3.65,3.65,0,0,1,1,.76L76,106.88Z"/></g><g id="Test-3"><path class="cls-9" d="M114.14,65.76a3.87,3.87,0,0,1,.91.36,4,4,0,0,1,1,.72,2.27,2.27,0,0,1,.82,1.56,1.88,1.88,0,0,1-.6,1.33L107,79a3.92,3.92,0,0,1-.91-.36,4,4,0,0,1-1-.72,2.27,2.27,0,0,1-.82-1.56,1.88,1.88,0,0,1,.6-1.33l2.35-2.35-9.8-9.8A8.36,8.36,0,0,1,98,62,11,11,0,0,1,99,60.95a6.25,6.25,0,0,1,.93-.78,2.16,2.16,0,0,1,.89-.36,1.62,1.62,0,0,1,.91.15,3.65,3.65,0,0,1,1,.76L111,68.94Z"/><path class="cls-9" d="M102.75,79.15a2.59,2.59,0,0,1,0,3.95l-7,7a3.63,3.63,0,0,1-.88-.35,3.9,3.9,0,0,1-.92-.69,2.2,2.2,0,0,1-.8-1.5,1.79,1.79,0,0,1,.58-1.26l4.48-4.48-2-2-4.77,4.77a3.66,3.66,0,0,1-.87-.34,3.74,3.74,0,0,1-.91-.68,2.24,2.24,0,0,1-.81-1.48,1.74,1.74,0,0,1,.57-1.25l3.9-3.9-2.23-2.23-5.45,5.45a3.62,3.62,0,0,1-.88-.35,3.9,3.9,0,0,1-.92-.69,2.25,2.25,0,0,1-.81-1.51,1.77,1.77,0,0,1,.57-1.27l6.19-6.19a2.59,2.59,0,0,1,3.95,0Z"/><path class="cls-9" d="M81.6,88.76q1.25-.62,2.34-1.05a7.36,7.36,0,0,1,2.11-.52,4.66,4.66,0,0,1,2,.25,5.17,5.17,0,0,1,1.89,1.27A4.91,4.91,0,0,1,91.41,93a8.77,8.77,0,0,1-2.81,5,15,15,0,0,1-1.82,1.57,7.17,7.17,0,0,1-1.74,1,3.32,3.32,0,0,1-1.56.2,2.18,2.18,0,0,1-1.28-.65,2.4,2.4,0,0,1-.69-1.2,3.75,3.75,0,0,1-.05-1.28,6.78,6.78,0,0,0,1.77-.73,8.87,8.87,0,0,0,1.94-1.5,4,4,0,0,0,1.13-1.67,1.09,1.09,0,0,0-.22-1.11.87.87,0,0,0-.8-.24,4,4,0,0,0-1.2.46l-1.48.76A11.52,11.52,0,0,1,77.91,95a4.91,4.91,0,0,1-3.75-1.61A5,5,0,0,1,72.66,89a9.45,9.45,0,0,1,3.07-5.29,13.75,13.75,0,0,1,2-1.65,8.1,8.1,0,0,1,1.93-1,3.82,3.82,0,0,1,1.74-.21,2.37,2.37,0,0,1,1.4.7A2.25,2.25,0,0,1,83.45,83a3.89,3.89,0,0,1-.12,1.45,8.14,8.14,0,0,0-2.26.65,7.15,7.15,0,0,0-2.22,1.54,3.56,3.56,0,0,0-1.15,1.78A1.3,1.3,0,0,0,78,89.56a1,1,0,0,0,1,.31,6.22,6.22,0,0,0,1.39-.52Z"/><path class="cls-9" d="M79.2,100.7a3.87,3.87,0,0,1,.91.36,4,4,0,0,1,1,.72,2.27,2.27,0,0,1,.82,1.56,1.88,1.88,0,0,1-.6,1.33l-9.25,9.25a3.92,3.92,0,0,1-.91-.36,4,4,0,0,1-1-.72,2.27,2.27,0,0,1-.82-1.56,1.88,1.88,0,0,1,.6-1.33l2.35-2.35-9.8-9.8a8.36,8.36,0,0,1,.6-.86A11,11,0,0,1,64,95.88,6.25,6.25,0,0,1,65,95.1a2.16,2.16,0,0,1,.89-.36,1.62,1.62,0,0,1,.91.15,3.65,3.65,0,0,1,1,.76L76,103.88Z"/></g></g></g></g></svg>